{"glyphs":{"0":{"ha":614,"x_min":7,"x_max":607,"o":"m 307 -6 q 165 14 221 -6 q 72 68 108 33 q 24 146 42 100 q 7 264 7 192 l 7 1322 q 24 1441 7 1394 q 72 1518 42 1488 q 165 1573 108 1554 q 307 1592 221 1592 q 450 1573 393 1592 q 542 1518 507 1554 q 590 1441 574 1488 q 607 1322 607 1394 l 607 264 q 590 146 607 192 q 542 68 574 100 q 450 14 507 33 q 307 -6 393 -6 m 307 147 q 363 168 342 147 q 376 192 371 176 q 382 236 382 208 l 382 1350 q 376 1394 382 1378 q 363 1418 371 1410 q 307 1439 342 1439 q 251 1418 272 1439 q 238 1394 243 1410 q 232 1350 232 1378 l 232 236 q 238 192 232 208 q 251 168 243 176 q 307 147 272 147 z "},"1":{"ha":321,"x_min":0,"x_max":314,"o":"m 89 0 l 89 1358 l 0 1358 l 86 1586 l 314 1586 l 314 0 l 89 0 z "},"2":{"ha":582,"x_min":7,"x_max":575,"o":"m 7 0 l 7 167 l 306 1111 q 339 1238 325 1174 q 353 1349 353 1303 q 338 1416 353 1393 q 290 1439 322 1439 q 244 1416 257 1439 q 232 1357 232 1393 l 232 1025 l 7 1025 l 7 1339 q 21 1445 7 1399 q 71 1526 35 1492 q 156 1575 104 1558 q 290 1592 208 1592 q 422 1576 369 1592 q 510 1526 474 1561 q 559 1448 543 1494 q 575 1336 575 1401 q 565 1224 575 1279 q 543 1122 556 1168 q 521 1047 531 1075 l 244 181 l 574 181 l 574 0 l 7 0 z "},"3":{"ha":614,"x_min":7,"x_max":607,"o":"m 307 -6 q 165 14 221 -6 q 72 68 108 33 q 24 146 42 100 q 7 263 7 192 l 7 594 l 232 594 l 232 236 q 238 192 232 208 q 251 168 243 176 q 307 147 272 147 q 363 168 342 147 q 376 192 371 176 q 382 236 382 208 l 382 644 q 376 688 382 672 q 363 713 371 704 q 337 728 353 722 q 293 733 321 733 l 190 733 l 190 897 l 293 897 q 335 902 321 897 q 358 917 350 907 q 371 940 367 926 q 375 979 375 954 l 375 1357 q 371 1396 375 1382 q 358 1419 367 1410 q 307 1439 342 1439 q 256 1419 272 1439 q 243 1396 247 1410 q 239 1357 239 1382 l 239 1025 l 14 1025 l 14 1325 q 31 1444 14 1399 q 79 1521 47 1490 q 169 1573 115 1554 q 307 1592 224 1592 q 444 1573 390 1592 q 533 1521 499 1554 q 583 1444 565 1490 q 600 1325 600 1399 l 600 1021 q 578 895 600 944 q 501 817 557 846 q 584 739 561 789 q 607 615 607 689 l 607 263 q 590 146 607 192 q 542 68 574 100 q 450 14 507 33 q 307 -6 393 -6 z "},"4":{"ha":697,"x_min":7,"x_max":690,"o":"m 357 0 l 357 417 l 7 417 l 7 578 l 260 1586 l 579 1586 l 579 594 l 690 594 l 690 417 l 579 417 l 579 0 l 357 0 m 199 594 l 357 594 l 357 1290 l 199 594 z "},"5":{"ha":614,"x_min":7,"x_max":607,"o":"m 307 -6 q 165 14 221 -6 q 72 68 108 33 q 24 146 42 100 q 7 263 7 192 l 7 594 l 232 594 l 232 236 q 238 192 232 208 q 251 168 243 176 q 307 147 272 147 q 363 168 342 147 q 376 192 371 176 q 382 236 382 208 l 382 883 q 376 927 382 911 q 363 951 371 943 q 307 972 342 972 q 251 951 272 972 q 238 927 243 943 q 232 883 232 911 l 232 751 l 14 751 l 22 1586 l 585 1586 l 585 1406 l 239 1406 l 236 1076 q 397 1139 293 1139 q 487 1125 449 1139 q 551 1085 525 1111 q 593 1017 579 1058 q 607 911 607 976 l 607 263 q 590 146 607 192 q 542 68 574 100 q 450 14 507 33 q 307 -6 393 -6 z "},"6":{"ha":614,"x_min":7,"x_max":607,"o":"m 307 -6 q 165 14 221 -6 q 72 68 108 33 q 24 146 42 100 q 7 263 7 192 l 7 1331 q 22 1443 7 1400 q 64 1515 36 1486 q 154 1572 99 1551 q 299 1592 210 1592 q 444 1572 388 1592 q 533 1515 500 1553 q 576 1442 561 1485 q 590 1331 590 1400 l 590 1025 l 365 1025 l 365 1358 q 362 1397 365 1383 q 350 1419 358 1410 q 299 1439 333 1439 q 247 1419 261 1439 q 236 1397 240 1410 q 232 1358 232 1383 l 232 900 q 303 949 260 933 q 397 965 346 965 q 487 951 449 965 q 551 911 525 938 q 593 844 579 885 q 607 738 607 803 l 607 263 q 590 146 607 192 q 542 68 574 100 q 450 14 507 33 q 307 -6 393 -6 m 307 147 q 363 168 342 147 q 376 192 371 176 q 382 236 382 208 l 382 710 q 376 753 382 738 q 363 778 371 769 q 307 799 342 799 q 251 778 272 799 q 238 753 243 769 q 232 710 232 738 l 232 236 q 238 192 232 208 q 251 168 243 176 q 307 147 272 147 z "},"7":{"ha":553,"x_min":7,"x_max":546,"o":"m 24 0 l 325 1403 l 7 1403 l 7 1586 l 546 1586 l 546 1411 l 258 0 l 24 0 z "},"8":{"ha":614,"x_min":7,"x_max":607,"o":"m 307 -6 q 165 14 221 -6 q 72 68 108 33 q 24 146 42 100 q 7 263 7 192 l 7 615 q 32 742 7 689 q 113 817 57 794 q 35 897 57 844 q 14 1021 14 950 l 14 1325 q 31 1444 14 1399 q 79 1521 47 1490 q 169 1573 115 1554 q 307 1592 224 1592 q 444 1573 390 1592 q 533 1521 499 1554 q 583 1444 565 1490 q 600 1325 600 1399 l 600 1021 q 578 897 600 950 q 501 817 557 844 q 582 742 557 794 q 607 615 607 689 l 607 263 q 590 146 607 192 q 542 68 574 100 q 450 14 507 33 q 307 -6 393 -6 m 307 147 q 363 168 342 147 q 376 192 371 176 q 382 236 382 208 l 382 644 q 376 688 382 672 q 363 713 371 704 q 307 733 342 733 q 251 713 272 733 q 238 688 243 704 q 232 644 232 672 l 232 236 q 238 192 232 208 q 251 168 243 176 q 307 147 272 147 m 307 897 q 358 917 342 897 q 371 940 367 926 q 375 979 375 954 l 375 1357 q 371 1396 375 1382 q 358 1419 367 1410 q 307 1439 342 1439 q 256 1419 272 1439 q 243 1396 247 1410 q 239 1357 239 1382 l 239 979 q 243 940 239 954 q 256 917 247 926 q 307 897 272 897 z "},"9":{"ha":614,"x_min":7,"x_max":607,"o":"m 315 -6 q 170 14 226 -6 q 81 71 114 33 q 39 144 54 101 q 24 256 24 188 l 24 594 l 249 594 l 249 228 q 252 190 249 203 q 264 167 256 176 q 315 147 281 147 q 367 167 353 147 q 378 190 374 176 q 382 228 382 203 l 382 719 q 311 670 354 686 q 217 654 268 654 q 128 668 165 654 q 63 708 90 682 q 22 776 36 735 q 7 882 7 817 l 7 1324 q 24 1441 7 1394 q 72 1518 42 1488 q 165 1573 108 1554 q 307 1592 221 1592 q 450 1573 393 1592 q 542 1518 507 1554 q 590 1441 574 1488 q 607 1324 607 1394 l 607 256 q 592 144 607 188 q 550 71 578 100 q 460 15 515 35 q 315 -6 404 -6 m 307 821 q 363 842 342 821 q 376 866 371 850 q 382 910 382 882 l 382 1350 q 376 1394 382 1378 q 363 1418 371 1410 q 307 1439 342 1439 q 251 1418 272 1439 q 238 1394 243 1410 q 232 1350 232 1378 l 232 910 q 238 866 232 882 q 251 842 243 850 q 307 821 272 821 z "},"\u0000":{"ha":0,"x_min":0,"x_max":0,"o":""},"\r":{"ha":136,"x_min":0,"x_max":0,"o":""}," ":{"ha":136,"x_min":0,"x_max":0,"o":""},"!":{"ha":267,"x_min":7,"x_max":260,"o":"m 35 0 l 35 193 l 232 193 l 232 0 l 35 0 m 60 304 l 7 1586 l 260 1586 l 207 304 l 60 304 z "},"\"":{"ha":408,"x_min":0,"x_max":408,"o":"m 28 1232 l 0 1586 l 197 1586 l 169 1232 l 28 1232 m 239 1232 l 211 1586 l 408 1586 l 381 1232 l 239 1232 z "},"#":{"ha":708,"x_min":7,"x_max":701,"o":"m 71 0 l 107 339 l 7 339 l 7 483 l 122 483 l 188 1103 l 60 1103 l 60 1247 l 203 1247 l 239 1586 l 386 1586 l 350 1247 l 453 1247 l 489 1586 l 636 1586 l 600 1247 l 701 1247 l 701 1103 l 585 1103 l 519 483 l 635 483 l 635 339 l 504 339 l 468 0 l 321 0 l 357 339 l 254 339 l 218 0 l 71 0 m 269 483 l 372 483 l 438 1103 l 335 1103 l 269 483 z "},"$":{"ha":614,"x_min":7,"x_max":607,"o":"m 229 1482 l 229 1683 l 385 1683 l 385 1482 l 229 1482 m 229 -97 l 229 104 l 385 104 l 385 -97 l 229 -97 m 307 -6 q 164 13 222 -6 q 69 67 106 32 q 23 146 39 99 q 7 253 7 193 l 7 594 l 232 594 l 232 247 q 251 184 232 204 q 307 164 269 164 q 361 184 343 164 q 379 247 379 204 q 352 383 379 308 q 289 543 325 458 l 92 1006 q 48 1119 65 1068 q 22 1217 31 1169 q 13 1318 13 1265 q 31 1431 13 1383 q 83 1517 49 1479 q 173 1572 117 1553 q 308 1592 229 1592 q 449 1574 392 1592 q 539 1522 506 1556 q 586 1444 571 1492 q 601 1333 601 1396 l 601 1025 l 376 1025 l 376 1339 q 360 1402 376 1382 q 308 1422 344 1422 q 258 1402 275 1422 q 240 1339 240 1382 q 260 1229 240 1296 q 315 1082 281 1163 l 500 649 q 558 505 535 568 q 594 383 582 442 q 607 261 607 325 q 587 145 607 193 q 529 64 567 97 q 434 13 490 31 q 307 -6 378 -6 z "},"%":{"ha":1068,"x_min":7,"x_max":1061,"o":"m 217 472 q 117 485 157 472 q 53 524 78 499 q 19 578 31 546 q 7 661 7 611 l 7 1403 q 19 1485 7 1453 q 53 1540 31 1518 q 117 1578 78 1565 q 217 1592 157 1592 q 317 1578 278 1592 q 382 1540 357 1565 q 416 1485 404 1518 q 428 1403 428 1453 l 428 661 q 416 578 428 611 q 382 524 404 546 q 317 485 357 499 q 217 472 278 472 m 217 589 q 258 605 246 589 q 269 651 269 621 l 269 1413 q 258 1459 269 1443 q 217 1475 246 1475 q 176 1459 188 1475 q 165 1413 165 1443 l 165 651 q 176 605 165 621 q 217 589 188 589 m 850 -6 q 751 8 790 -6 q 686 46 711 21 q 652 101 664 68 q 640 183 640 133 l 640 925 q 652 1008 640 975 q 686 1063 664 1040 q 751 1101 711 1088 q 850 1114 790 1114 q 951 1101 911 1114 q 1015 1063 990 1088 q 1049 1008 1038 1040 q 1061 925 1061 975 l 1061 183 q 1049 101 1061 133 q 1015 46 1038 68 q 951 8 990 21 q 850 -6 911 -6 m 850 111 q 891 127 879 111 q 903 174 903 143 l 903 935 q 891 981 903 965 q 850 997 879 997 q 810 981 821 997 q 799 935 799 965 l 799 174 q 810 127 799 143 q 850 111 821 111 m 363 0 l 560 1586 l 706 1586 l 508 0 l 363 0 z "},"&":{"ha":678,"x_min":7,"x_max":671,"o":"m 275 -6 q 389 14 336 -6 q 488 72 442 33 q 551 15 517 29 q 624 0 585 0 l 671 0 l 671 183 l 660 183 q 619 197 636 183 q 593 244 603 211 q 652 445 633 331 q 671 700 671 560 l 671 871 l 504 871 l 504 715 q 503 621 504 668 q 494 529 501 574 l 375 843 q 476 1044 440 963 q 527 1184 513 1126 q 542 1286 542 1242 l 542 1368 q 481 1536 542 1479 q 292 1593 421 1593 q 32 1357 32 1593 l 32 1283 q 38 1196 32 1235 q 56 1117 44 1157 q 86 1031 68 1078 q 128 918 104 983 l 161 825 q 76 670 107 735 q 30 560 44 606 q 11 480 15 514 q 7 414 7 446 l 7 239 q 40 110 7 165 q 134 24 74 54 q 275 -6 194 -6 m 311 172 q 235 199 263 172 q 208 269 208 226 l 208 414 q 221 513 208 471 q 263 615 233 556 l 413 221 q 369 185 396 197 q 311 172 343 172 m 292 1436 q 363 1354 363 1436 l 363 1274 q 355 1200 363 1235 q 330 1126 347 1165 q 282 1031 313 1086 q 236 1182 251 1121 q 221 1282 221 1243 l 221 1357 q 292 1436 221 1436 z "},"'":{"ha":197,"x_min":0,"x_max":197,"o":"m 28 1232 l 0 1586 l 197 1586 l 169 1232 l 28 1232 z "},"(":{"ha":303,"x_min":7,"x_max":296,"o":"m 168 -228 q 92 -217 122 -228 q 43 -189 63 -207 q 16 -147 25 -172 q 7 -83 7 -122 l 7 1442 q 16 1506 7 1481 q 43 1547 25 1531 q 92 1576 63 1567 q 168 1586 122 1586 l 296 1586 l 296 1425 l 242 1425 q 204 1388 204 1425 l 204 -29 q 242 -67 204 -67 l 296 -67 l 296 -228 l 168 -228 z "},")":{"ha":303,"x_min":7,"x_max":296,"o":"m 7 -228 l 7 -67 l 61 -67 q 99 -29 99 -67 l 99 1388 q 61 1425 99 1425 l 7 1425 l 7 1586 l 135 1586 q 210 1576 181 1586 q 260 1547 240 1567 q 287 1506 278 1531 q 296 1442 296 1481 l 296 -83 q 287 -147 296 -122 q 260 -189 278 -172 q 210 -217 240 -207 q 135 -228 181 -228 l 7 -228 z "},"*":{"ha":511,"x_min":7,"x_max":504,"o":"m 182 1586 l 329 1586 l 329 1450 l 458 1492 l 504 1351 l 375 1310 l 454 1199 l 336 1113 l 256 1222 l 175 1113 l 57 1199 l 136 1310 l 7 1351 l 53 1492 l 182 1450 l 182 1586 z "},"+":{"ha":614,"x_min":7,"x_max":607,"o":"m 229 465 l 229 688 l 7 688 l 7 843 l 229 843 l 229 1065 l 385 1065 l 385 843 l 607 843 l 607 688 l 385 688 l 385 465 l 229 465 z "},",":{"ha":225,"x_min":7,"x_max":218,"o":"m 21 -178 l 21 -94 l 26 -94 q 63 -83 51 -94 q 71 -69 68 -78 q 74 -47 74 -61 l 74 0 l 7 0 l 7 193 l 218 193 l 218 -31 q 212 -87 218 -65 q 196 -125 206 -110 q 149 -164 179 -150 q 71 -178 119 -178 l 21 -178 z "},"-":{"ha":339,"x_min":7,"x_max":332,"o":"m 7 538 l 7 693 l 332 693 l 332 538 l 7 538 z "},".":{"ha":225,"x_min":7,"x_max":218,"o":"m 7 0 l 7 193 l 218 193 l 218 0 l 7 0 z "},"/":{"ha":364,"x_min":7,"x_max":357,"o":"m 7 0 l 201 1586 l 357 1586 l 163 0 l 7 0 z "},":":{"ha":225,"x_min":7,"x_max":218,"o":"m 7 939 l 7 1132 l 218 1132 l 218 939 l 7 939 m 7 0 l 7 193 l 218 193 l 218 0 l 7 0 z "},";":{"ha":225,"x_min":7,"x_max":218,"o":"m 21 -178 l 21 -94 l 26 -94 q 63 -83 51 -94 q 71 -69 68 -78 q 74 -47 74 -61 l 74 0 l 7 0 l 7 193 l 218 193 l 218 -31 q 212 -87 218 -65 q 196 -125 206 -110 q 149 -164 179 -150 q 71 -178 119 -178 l 21 -178 m 7 939 l 7 1132 l 218 1132 l 218 939 l 7 939 z "},"<":{"ha":614,"x_min":7,"x_max":607,"o":"m 607 514 l 7 688 l 7 843 l 607 1017 l 607 853 l 281 765 l 607 683 l 607 514 z "},"=":{"ha":614,"x_min":7,"x_max":607,"o":"m 7 799 l 7 954 l 607 954 l 607 799 l 7 799 m 7 576 l 7 732 l 607 732 l 607 576 l 7 576 z "},">":{"ha":614,"x_min":7,"x_max":607,"o":"m 7 514 l 7 683 l 333 765 l 7 853 l 7 1017 l 607 843 l 607 688 l 7 514 z "},"?":{"ha":556,"x_min":7,"x_max":549,"o":"m 182 290 l 182 324 q 184 485 182 415 q 193 619 186 556 q 213 753 200 683 q 249 911 226 822 l 285 1058 q 315 1232 308 1153 q 322 1343 322 1311 q 310 1406 322 1388 q 269 1425 299 1425 q 218 1364 218 1425 l 218 1025 l 7 1025 l 7 1353 q 69 1536 7 1481 q 275 1592 132 1592 q 485 1531 422 1592 q 549 1328 549 1471 q 535 1174 549 1261 q 489 971 521 1088 l 421 722 q 375 513 390 613 q 360 290 360 413 l 182 290 m 165 0 l 165 193 l 376 193 l 376 0 l 165 0 z "},"@":{"ha":867,"x_min":7,"x_max":860,"o":"m 397 63 q 224 240 224 63 l 224 896 q 262 1026 224 986 q 363 1067 300 1067 q 434 1053 401 1067 q 482 1017 467 1040 l 482 1057 l 642 1057 l 642 208 q 665 185 642 185 l 686 185 q 703 191 697 185 q 710 208 710 197 l 710 1110 q 688 1132 710 1132 l 179 1132 q 157 1110 157 1132 l 157 22 q 179 0 157 0 l 860 0 l 860 -144 l 129 -144 q 38 -115 68 -144 q 7 -22 7 -86 l 7 1154 q 38 1247 7 1218 q 129 1276 68 1276 l 738 1276 q 829 1247 799 1276 q 860 1154 860 1218 l 860 190 q 829 97 860 126 q 738 68 799 68 l 646 68 q 585 77 611 68 q 540 113 560 86 q 484 76 522 90 q 397 63 446 63 m 433 190 q 467 203 454 190 q 481 243 481 217 l 481 881 q 467 921 481 908 q 433 933 454 933 q 398 921 411 933 q 385 881 385 908 l 385 243 q 398 203 385 217 q 433 190 411 190 z "},"A":{"ha":647,"x_min":0,"x_max":647,"o":"m 0 0 l 151 1586 l 497 1586 l 647 0 l 422 0 l 403 253 l 232 253 l 213 0 l 0 0 m 247 436 l 388 436 l 317 1329 l 247 436 z "},"B":{"ha":614,"x_min":7,"x_max":607,"o":"m 7 0 l 7 1586 l 368 1586 q 477 1572 436 1586 q 544 1531 518 1558 q 585 1465 571 1504 q 599 1358 599 1425 l 599 1033 q 585 927 599 967 q 544 861 571 888 q 475 819 517 833 q 553 775 522 806 q 593 709 579 749 q 607 603 607 669 l 607 228 q 593 122 607 161 q 553 56 579 82 q 485 15 526 29 q 376 0 444 0 l 7 0 m 232 910 l 285 910 q 354 931 336 910 q 368 959 363 940 q 374 1010 374 978 l 374 1314 q 368 1358 374 1342 q 354 1382 363 1374 q 328 1397 344 1392 q 285 1403 313 1403 l 232 1403 l 232 910 m 232 183 l 293 183 q 337 189 321 183 q 363 204 353 194 q 376 228 371 213 q 382 272 382 244 l 382 638 q 376 681 382 665 q 363 706 371 697 q 337 721 353 715 q 293 726 321 726 l 232 726 l 232 183 z "},"C":{"ha":614,"x_min":7,"x_max":607,"o":"m 307 -6 q 165 14 221 -6 q 72 68 108 33 q 24 146 42 100 q 7 264 7 192 l 7 1322 q 24 1441 7 1394 q 72 1518 42 1488 q 165 1573 108 1554 q 307 1592 221 1592 q 450 1573 393 1592 q 542 1518 507 1554 q 590 1441 574 1488 q 607 1322 607 1394 l 607 1025 l 382 1025 l 382 1346 q 376 1390 382 1374 q 363 1414 371 1406 q 339 1429 353 1424 q 307 1435 325 1435 q 251 1414 272 1435 q 238 1390 243 1406 q 232 1346 232 1374 l 232 240 q 238 197 232 213 q 251 172 243 181 q 275 157 261 163 q 307 151 289 151 q 363 172 342 151 q 376 197 371 181 q 382 240 382 213 l 382 594 l 607 594 l 607 264 q 590 146 607 192 q 542 68 574 100 q 450 14 507 33 q 307 -6 393 -6 z "},"D":{"ha":614,"x_min":7,"x_max":607,"o":"m 7 0 l 7 1586 l 350 1586 q 469 1570 424 1586 q 544 1524 514 1554 q 591 1447 575 1493 q 607 1329 607 1401 l 607 257 q 591 139 607 185 q 544 63 575 93 q 468 16 514 32 q 350 0 422 0 l 7 0 m 233 183 l 294 183 q 364 204 346 183 q 378 233 372 214 q 383 283 383 251 l 383 1314 q 378 1358 383 1342 q 364 1382 372 1374 q 338 1397 354 1392 q 294 1403 322 1403 l 233 1403 l 233 183 z "},"E":{"ha":522,"x_min":7,"x_max":515,"o":"m 7 0 l 7 1586 l 515 1586 l 515 1403 l 232 1403 l 232 910 l 515 910 l 515 726 l 232 726 l 232 183 l 515 183 l 515 0 l 7 0 z "},"F":{"ha":522,"x_min":7,"x_max":515,"o":"m 7 0 l 7 1586 l 515 1586 l 515 1403 l 232 1403 l 232 910 l 515 910 l 515 726 l 232 726 l 232 0 l 7 0 z "},"G":{"ha":614,"x_min":7,"x_max":607,"o":"m 217 -11 q 128 3 165 -11 q 63 43 90 17 q 22 110 36 69 q 7 217 7 151 l 7 1322 q 24 1441 7 1394 q 72 1518 42 1488 q 165 1573 108 1554 q 307 1592 221 1592 q 450 1573 393 1592 q 542 1518 507 1554 q 590 1441 574 1488 q 607 1322 607 1394 l 607 1025 l 382 1025 l 382 1346 q 376 1390 382 1374 q 363 1414 371 1406 q 307 1435 342 1435 q 251 1414 272 1435 q 238 1390 243 1406 q 232 1346 232 1374 l 232 249 q 238 205 232 221 q 251 181 243 189 q 275 165 261 171 q 307 160 289 160 q 363 181 342 160 q 376 205 371 189 q 382 249 382 221 l 382 699 l 296 699 l 296 871 l 607 871 l 607 0 l 382 0 l 382 56 q 308 5 351 21 q 217 -11 265 -11 z "},"H":{"ha":606,"x_min":7,"x_max":599,"o":"m 7 0 l 7 1586 l 232 1586 l 232 910 l 374 910 l 374 1586 l 599 1586 l 599 0 l 374 0 l 374 726 l 232 726 l 232 0 l 7 0 z "},"I":{"ha":239,"x_min":7,"x_max":232,"o":"m 7 0 l 7 1586 l 232 1586 l 232 0 l 7 0 z "},"J":{"ha":572,"x_min":7,"x_max":565,"o":"m 286 -6 q 157 13 207 -6 q 72 63 107 31 q 24 141 42 93 q 7 264 7 189 l 7 594 l 218 594 l 218 226 q 222 190 218 203 q 235 168 226 176 q 279 151 251 151 q 324 168 306 151 q 336 188 332 175 q 340 226 340 201 l 340 1586 l 565 1586 l 565 264 q 549 142 565 189 q 501 64 532 96 q 418 13 469 31 q 286 -6 367 -6 z "},"K":{"ha":617,"x_min":7,"x_max":617,"o":"m 7 0 l 7 1586 l 232 1586 l 232 917 l 390 1586 l 611 1586 l 426 851 l 617 0 l 379 0 l 232 707 l 232 0 l 7 0 z "},"L":{"ha":522,"x_min":7,"x_max":515,"o":"m 7 0 l 7 1586 l 232 1586 l 232 183 l 515 183 l 515 0 l 7 0 z "},"M":{"ha":928,"x_min":7,"x_max":921,"o":"m 7 0 l 7 1586 l 367 1586 l 463 728 l 558 1586 l 921 1586 l 921 0 l 696 0 l 696 1200 l 563 0 l 344 0 l 208 1200 l 208 0 l 7 0 z "},"N":{"ha":639,"x_min":7,"x_max":632,"o":"m 7 0 l 7 1586 l 285 1586 l 435 781 l 435 1586 l 632 1586 l 632 0 l 382 0 l 204 915 l 204 0 l 7 0 z "},"O":{"ha":614,"x_min":7,"x_max":607,"o":"m 307 -6 q 165 14 221 -6 q 72 68 108 33 q 24 146 42 100 q 7 264 7 192 l 7 1322 q 24 1441 7 1394 q 72 1518 42 1488 q 165 1573 108 1554 q 307 1592 221 1592 q 450 1573 393 1592 q 542 1518 507 1554 q 590 1441 574 1488 q 607 1322 607 1394 l 607 264 q 590 146 607 192 q 542 68 574 100 q 450 14 507 33 q 307 -6 393 -6 m 307 151 q 363 172 342 151 q 376 197 371 181 q 382 240 382 213 l 382 1346 q 376 1390 382 1374 q 363 1414 371 1406 q 307 1435 342 1435 q 251 1414 272 1435 q 238 1390 243 1406 q 232 1346 232 1374 l 232 240 q 238 197 232 213 q 251 172 243 181 q 307 151 272 151 z "},"P":{"ha":614,"x_min":7,"x_max":607,"o":"m 7 0 l 7 1586 l 376 1586 q 485 1572 444 1586 q 553 1531 526 1558 q 593 1465 579 1504 q 607 1358 607 1425 l 607 896 q 593 790 607 829 q 553 724 579 750 q 485 683 526 697 q 376 668 444 668 l 232 668 l 232 0 l 7 0 m 232 851 l 293 851 q 363 872 344 851 q 376 901 371 882 q 382 951 382 919 l 382 1314 q 376 1358 382 1342 q 363 1382 371 1374 q 337 1397 353 1392 q 293 1403 321 1403 l 232 1403 l 232 851 z "},"Q":{"ha":614,"x_min":7,"x_max":607,"o":"m 369 -228 q 295 -217 325 -228 q 246 -189 265 -207 q 219 -147 228 -172 q 210 -83 210 -122 l 210 3 q 72 68 121 19 q 24 146 42 100 q 7 264 7 192 l 7 1322 q 24 1441 7 1394 q 72 1518 42 1488 q 165 1573 108 1554 q 307 1592 221 1592 q 450 1573 393 1592 q 542 1518 507 1554 q 590 1441 574 1488 q 607 1322 607 1394 l 607 264 q 590 146 607 192 q 542 68 574 100 q 483 26 517 43 q 401 1 449 10 l 401 -43 q 439 -81 401 -81 l 499 -81 l 499 -228 l 369 -228 m 307 151 q 363 172 342 151 q 376 197 371 181 q 382 240 382 213 l 382 1346 q 376 1390 382 1374 q 363 1414 371 1406 q 307 1435 342 1435 q 251 1414 272 1435 q 238 1390 243 1406 q 232 1346 232 1374 l 232 240 q 238 197 232 213 q 251 172 243 181 q 275 157 261 163 q 307 151 289 151 z "},"R":{"ha":614,"x_min":7,"x_max":607,"o":"m 7 0 l 7 1586 l 376 1586 q 485 1572 444 1586 q 553 1531 526 1558 q 593 1465 579 1504 q 607 1358 607 1425 l 607 1033 q 593 927 607 967 q 553 861 579 888 q 523 838 539 847 q 486 821 507 828 q 582 746 550 800 q 601 696 594 725 q 607 617 607 667 l 607 0 l 382 0 l 382 638 q 376 681 382 665 q 363 706 371 697 q 337 721 353 715 q 293 726 321 726 l 232 726 l 232 0 l 7 0 m 232 910 l 293 910 q 363 931 344 910 q 376 959 371 940 q 382 1010 382 978 l 382 1314 q 376 1358 382 1342 q 363 1382 371 1374 q 337 1397 353 1392 q 293 1403 321 1403 l 232 1403 l 232 910 z "},"S":{"ha":614,"x_min":7,"x_max":607,"o":"m 307 -6 q 164 13 222 -6 q 69 67 106 32 q 23 146 39 99 q 7 253 7 193 l 7 594 l 232 594 l 232 247 q 251 184 232 204 q 307 164 269 164 q 361 184 343 164 q 379 247 379 204 q 352 383 379 308 q 289 543 325 458 l 92 1006 q 48 1119 65 1068 q 22 1217 31 1169 q 13 1318 13 1265 q 31 1431 13 1383 q 83 1517 49 1479 q 173 1572 117 1553 q 308 1592 229 1592 q 449 1574 392 1592 q 539 1522 506 1556 q 586 1444 571 1492 q 601 1333 601 1396 l 601 1025 l 376 1025 l 376 1339 q 360 1402 376 1382 q 308 1422 344 1422 q 258 1402 275 1422 q 240 1339 240 1382 q 260 1229 240 1296 q 315 1082 281 1163 l 500 649 q 558 505 535 568 q 594 383 582 442 q 607 261 607 325 q 587 145 607 193 q 529 64 567 97 q 434 13 490 31 q 307 -6 378 -6 z "},"T":{"ha":614,"x_min":7,"x_max":607,"o":"m 194 0 l 194 1403 l 7 1403 l 7 1586 l 607 1586 l 607 1403 l 419 1403 l 419 0 l 194 0 z "},"U":{"ha":614,"x_min":7,"x_max":607,"o":"m 307 -6 q 165 14 221 -6 q 72 68 108 33 q 24 146 42 100 q 7 263 7 192 l 7 1586 l 232 1586 l 232 240 q 238 197 232 213 q 251 172 243 181 q 275 157 261 163 q 307 151 289 151 q 363 172 342 151 q 376 197 371 181 q 382 240 382 213 l 382 1586 l 607 1586 l 607 263 q 590 146 607 192 q 542 68 574 100 q 450 14 507 33 q 307 -6 393 -6 z "},"V":{"ha":633,"x_min":0,"x_max":633,"o":"m 181 0 l 0 1586 l 224 1586 l 326 574 l 429 1586 l 633 1586 l 453 0 l 181 0 z "},"W":{"ha":1033,"x_min":0,"x_max":1033,"o":"m 154 0 l 0 1586 l 224 1586 l 301 557 l 379 1586 l 674 1586 l 751 557 l 829 1586 l 1033 1586 l 879 0 l 594 0 l 517 1011 l 439 0 l 154 0 z "},"X":{"ha":725,"x_min":0,"x_max":725,"o":"m 0 0 l 226 799 l 4 1586 l 239 1586 l 363 1126 l 486 1586 l 707 1586 l 492 815 l 725 0 l 490 0 l 356 496 l 221 0 l 0 0 z "},"Y":{"ha":665,"x_min":0,"x_max":665,"o":"m 219 0 l 219 565 l 0 1586 l 219 1586 l 339 990 l 460 1586 l 665 1586 l 444 565 l 444 0 l 219 0 z "},"Z":{"ha":550,"x_min":7,"x_max":543,"o":"m 7 0 l 7 181 l 308 1400 l 13 1400 l 13 1586 l 528 1586 l 528 1386 l 233 186 l 543 186 l 543 0 l 7 0 z "},"[":{"ha":303,"x_min":7,"x_max":296,"o":"m 7 -228 l 7 1586 l 296 1586 l 296 1439 l 204 1439 l 204 -81 l 296 -81 l 296 -228 l 7 -228 z "},"\\":{"ha":364,"x_min":7,"x_max":357,"o":"m 357 0 l 201 0 l 7 1586 l 163 1586 l 357 0 z "},"]":{"ha":303,"x_min":7,"x_max":296,"o":"m 7 -228 l 7 -81 l 99 -81 l 99 1439 l 7 1439 l 7 1586 l 296 1586 l 296 -228 l 7 -228 z "},"^":{"ha":486,"x_min":0,"x_max":486,"o":"m 0 1178 l 165 1586 l 321 1586 l 486 1178 l 322 1178 l 243 1375 l 167 1178 l 0 1178 z "},"_":{"ha":489,"x_min":7,"x_max":482,"o":"m 7 0 l 7 156 l 482 156 l 482 0 l 7 0 z "},"`":{"ha":261,"x_min":7,"x_max":254,"o":"m 92 1425 l 7 1586 l 229 1586 l 254 1425 l 92 1425 z "},"a":{"ha":531,"x_min":7,"x_max":524,"o":"m 185 -11 q 53 41 100 -11 q 7 190 7 93 l 7 421 q 22 509 7 472 q 71 576 38 546 l 264 756 q 304 804 290 781 q 324 853 318 828 q 329 907 329 878 q 315 971 329 951 q 269 990 301 990 q 224 972 239 990 q 210 918 210 954 l 210 725 l 15 725 l 15 899 q 80 1083 15 1028 q 269 1138 144 1138 q 463 1080 401 1138 q 524 899 524 1022 l 524 0 l 326 0 l 326 50 q 185 -11 278 -11 m 265 142 q 326 208 326 142 l 326 579 q 318 569 322 574 q 310 561 314 565 l 231 483 q 211 453 218 471 q 204 414 204 436 l 204 208 q 265 142 204 142 z "},"b":{"ha":531,"x_min":7,"x_max":524,"o":"m 344 -11 q 264 4 300 -11 q 204 51 228 19 l 204 0 l 7 0 l 7 1586 l 204 1586 l 204 1082 q 344 1143 253 1143 q 472 1096 425 1143 q 510 1032 497 1071 q 524 929 524 993 l 524 203 q 510 100 524 139 q 472 36 497 61 q 344 -11 425 -11 m 265 156 q 310 172 293 156 q 322 193 318 181 q 326 231 326 206 l 326 901 q 322 939 326 926 q 310 960 318 951 q 265 976 293 976 q 221 960 238 976 q 208 939 213 951 q 204 901 204 926 l 204 231 q 208 193 204 206 q 221 172 213 181 q 265 156 238 156 z "},"c":{"ha":531,"x_min":7,"x_max":524,"o":"m 265 -6 q 142 10 189 -6 q 64 57 94 26 q 22 126 38 85 q 7 236 7 168 l 7 896 q 22 1006 7 964 q 64 1075 38 1049 q 142 1122 94 1106 q 265 1138 189 1138 q 389 1122 342 1138 q 467 1075 436 1106 q 509 1006 494 1049 q 524 896 524 964 l 524 725 l 326 725 l 326 915 q 322 953 326 940 q 310 974 318 965 q 265 990 293 990 q 221 974 238 990 q 208 953 213 965 q 204 915 204 940 l 204 217 q 208 179 204 192 q 221 158 213 167 q 265 142 238 142 q 310 158 293 142 q 322 179 318 167 q 326 217 326 192 l 326 429 l 524 429 l 524 236 q 509 126 524 168 q 467 57 494 85 q 389 10 436 26 q 265 -6 342 -6 z "},"d":{"ha":531,"x_min":7,"x_max":524,"o":"m 186 -11 q 58 36 106 -11 q 20 100 33 61 q 7 203 7 139 l 7 929 q 20 1032 7 993 q 58 1096 33 1071 q 186 1143 106 1143 q 326 1082 278 1143 l 326 1586 l 524 1586 l 524 0 l 326 0 l 326 51 q 267 4 303 19 q 186 -11 231 -11 m 265 156 q 310 172 293 156 q 322 193 318 181 q 326 231 326 206 l 326 901 q 322 939 326 926 q 310 960 318 951 q 265 976 293 976 q 221 960 238 976 q 208 939 213 951 q 204 901 204 926 l 204 231 q 208 193 204 206 q 221 172 213 181 q 265 156 238 156 z "},"e":{"ha":531,"x_min":7,"x_max":524,"o":"m 265 -6 q 142 10 189 -6 q 64 57 94 26 q 22 126 38 85 q 7 236 7 168 l 7 896 q 22 1006 7 964 q 64 1075 38 1049 q 142 1122 94 1106 q 265 1138 189 1138 q 389 1122 342 1138 q 467 1075 436 1106 q 509 1006 494 1049 q 524 896 524 964 l 524 497 l 204 497 l 204 217 q 208 179 204 192 q 221 158 213 167 q 265 142 238 142 q 310 158 293 142 q 322 179 318 167 q 326 217 326 192 l 326 429 l 524 429 l 524 236 q 509 126 524 168 q 467 57 494 85 q 389 10 436 26 q 265 -6 342 -6 m 204 647 l 326 647 l 326 915 q 322 953 326 940 q 310 974 318 965 q 265 990 293 990 q 221 974 238 990 q 208 953 213 965 q 204 915 204 940 l 204 647 z "},"f":{"ha":394,"x_min":7,"x_max":388,"o":"m 76 0 l 76 976 l 7 976 l 7 1132 l 76 1132 l 76 1442 q 85 1506 76 1481 q 113 1547 94 1531 q 163 1576 133 1567 q 238 1586 192 1586 l 388 1586 l 388 1425 l 311 1425 q 274 1388 274 1425 l 274 1132 l 388 1132 l 388 976 l 274 976 l 274 0 l 76 0 z "},"g":{"ha":531,"x_min":7,"x_max":524,"o":"m 265 -233 q 142 -217 189 -233 q 64 -171 94 -201 q 22 -105 38 -144 q 7 -6 7 -65 l 7 0 l 204 0 l 204 -11 q 208 -49 204 -36 q 221 -69 213 -61 q 265 -86 238 -86 q 310 -69 293 -86 q 322 -49 318 -61 q 326 -11 326 -36 l 326 107 q 266 60 303 75 q 186 44 229 44 q 58 92 106 44 q 20 156 33 117 q 7 258 7 194 l 7 929 q 20 1032 7 993 q 58 1096 33 1071 q 186 1143 106 1143 q 326 1082 278 1143 l 326 1132 l 524 1132 l 524 8 q 509 -101 524 -60 q 467 -171 494 -143 q 389 -217 436 -201 q 265 -233 342 -233 m 265 211 q 310 228 293 211 q 322 249 318 236 q 326 286 326 261 l 326 901 q 322 939 326 926 q 310 960 318 951 q 265 976 293 976 q 221 960 238 976 q 208 939 213 951 q 204 901 204 926 l 204 286 q 208 249 204 261 q 221 228 213 236 q 265 211 238 211 z "},"h":{"ha":531,"x_min":7,"x_max":524,"o":"m 7 0 l 7 1586 l 204 1586 l 204 1082 q 266 1128 229 1113 q 344 1143 303 1143 q 472 1096 425 1143 q 510 1032 497 1071 q 524 929 524 993 l 524 0 l 326 0 l 326 901 q 322 939 326 926 q 310 960 318 951 q 265 976 293 976 q 221 960 238 976 q 208 939 213 951 q 204 901 204 926 l 204 0 l 7 0 z "},"i":{"ha":211,"x_min":7,"x_max":204,"o":"m 7 0 l 7 1132 l 204 1132 l 204 0 l 7 0 m 7 1199 l 7 1360 l 204 1360 l 204 1199 l 7 1199 z "},"j":{"ha":211,"x_min":-101,"x_max":204,"o":"m -101 -228 l -101 -67 l -31 -67 q 7 -29 7 -67 l 7 1132 l 204 1132 l 204 -83 q 195 -147 204 -122 q 168 -189 186 -172 q 119 -217 149 -207 q 43 -228 89 -228 l -101 -228 m 7 1199 l 7 1360 l 204 1360 l 204 1199 l 7 1199 z "},"k":{"ha":546,"x_min":7,"x_max":546,"o":"m 7 0 l 7 1586 l 204 1586 l 204 640 l 346 1132 l 540 1132 l 378 603 l 546 0 l 336 0 l 204 501 l 204 0 l 7 0 z "},"l":{"ha":211,"x_min":7,"x_max":204,"o":"m 7 0 l 7 1586 l 204 1586 l 204 0 l 7 0 z "},"m":{"ha":833,"x_min":7,"x_max":826,"o":"m 7 0 l 7 1132 l 204 1132 l 204 1085 q 340 1143 251 1143 q 486 1071 440 1143 q 651 1143 546 1143 q 778 1096 731 1143 q 814 1035 801 1072 q 826 939 826 999 l 826 0 l 629 0 l 629 913 q 613 963 629 949 q 572 976 596 976 q 532 963 546 976 q 520 944 525 956 q 515 913 515 932 l 515 0 l 318 0 l 318 913 q 301 963 318 949 q 261 976 285 976 q 221 963 235 976 q 209 944 214 956 q 204 913 204 932 l 204 0 l 7 0 z "},"n":{"ha":531,"x_min":7,"x_max":524,"o":"m 7 0 l 7 1132 l 204 1132 l 204 1082 q 266 1128 229 1114 q 344 1143 303 1143 q 472 1096 425 1143 q 510 1033 497 1071 q 524 929 524 994 l 524 0 l 326 0 l 326 901 q 322 939 326 926 q 310 960 318 951 q 265 976 293 976 q 221 960 238 976 q 208 939 213 951 q 204 901 204 926 l 204 0 l 7 0 z "},"o":{"ha":531,"x_min":7,"x_max":524,"o":"m 265 -6 q 142 10 189 -6 q 64 57 94 26 q 22 126 38 85 q 7 236 7 168 l 7 896 q 22 1006 7 964 q 64 1075 38 1049 q 142 1122 94 1106 q 265 1138 189 1138 q 390 1122 343 1138 q 467 1075 436 1106 q 509 1006 494 1049 q 524 896 524 964 l 524 236 q 509 126 524 168 q 467 57 494 85 q 390 10 436 26 q 265 -6 343 -6 m 265 142 q 310 158 293 142 q 322 179 318 167 q 326 217 326 192 l 326 915 q 322 953 326 940 q 310 974 318 965 q 265 990 293 990 q 221 974 238 990 q 208 953 213 965 q 204 915 204 940 l 204 217 q 208 179 204 192 q 221 158 213 167 q 265 142 238 142 z "},"p":{"ha":531,"x_min":7,"x_max":524,"o":"m 7 -228 l 7 1132 l 204 1132 l 204 1081 q 264 1128 228 1113 q 344 1143 300 1143 q 472 1096 425 1143 q 510 1032 497 1071 q 524 929 524 993 l 524 203 q 510 100 524 139 q 472 36 497 61 q 344 -11 425 -11 q 204 50 253 -11 l 204 -228 l 7 -228 m 265 156 q 310 172 293 156 q 322 193 318 181 q 326 231 326 206 l 326 901 q 322 939 326 926 q 310 960 318 951 q 265 976 293 976 q 221 960 238 976 q 208 939 213 951 q 204 901 204 926 l 204 231 q 208 193 204 206 q 221 172 213 181 q 265 156 238 156 z "},"q":{"ha":531,"x_min":7,"x_max":524,"o":"m 326 -228 l 326 50 q 186 -11 278 -11 q 58 36 106 -11 q 20 100 33 61 q 7 203 7 139 l 7 929 q 20 1032 7 993 q 58 1096 33 1071 q 186 1143 106 1143 q 267 1128 231 1143 q 326 1081 303 1113 l 326 1132 l 524 1132 l 524 -228 l 326 -228 m 265 156 q 310 172 293 156 q 322 193 318 181 q 326 231 326 206 l 326 901 q 322 939 326 926 q 310 960 318 951 q 265 976 293 976 q 221 960 238 976 q 208 939 213 951 q 204 901 204 926 l 204 231 q 208 193 204 206 q 221 172 213 181 q 265 156 238 156 z "},"r":{"ha":489,"x_min":7,"x_max":482,"o":"m 7 0 l 7 1132 l 204 1132 l 204 1089 q 333 1143 250 1143 q 440 1103 400 1143 q 471 1051 460 1083 q 482 964 482 1018 l 482 725 l 304 725 l 304 919 q 301 945 304 936 q 292 961 297 954 q 254 976 279 976 q 217 961 229 976 q 208 945 211 954 q 204 919 204 936 l 204 0 l 7 0 z "},"s":{"ha":531,"x_min":7,"x_max":524,"o":"m 265 -6 q 67 54 126 -6 q 7 226 7 114 l 7 429 l 204 429 l 204 213 q 219 160 204 178 q 265 142 235 142 q 313 161 299 142 q 326 211 326 181 q 306 292 326 242 q 243 410 285 342 l 86 671 q 28 787 47 738 q 10 903 10 836 q 42 1039 10 988 q 131 1114 74 1090 q 265 1138 189 1138 q 399 1114 342 1138 q 489 1038 457 1090 q 521 897 521 985 l 521 725 l 324 725 l 324 928 q 308 974 324 958 q 265 990 293 990 q 222 972 238 990 q 207 918 207 953 q 225 844 207 878 q 275 754 243 810 l 421 507 q 474 413 451 457 q 510 324 497 368 q 524 226 524 279 q 498 100 524 151 q 415 22 472 49 q 265 -6 358 -6 z "},"t":{"ha":372,"x_min":7,"x_max":365,"o":"m 238 0 q 162 10 192 0 q 113 39 132 19 q 85 81 94 56 q 76 144 76 106 l 76 976 l 7 976 l 7 1132 l 76 1132 l 76 1586 l 274 1586 l 274 1132 l 365 1132 l 365 976 l 274 976 l 274 199 q 311 161 274 161 l 365 161 l 365 0 l 238 0 z "},"u":{"ha":531,"x_min":7,"x_max":524,"o":"m 186 -11 q 58 36 106 -11 q 20 100 33 61 q 7 203 7 139 l 7 1132 l 204 1132 l 204 231 q 208 193 204 206 q 221 172 213 181 q 265 156 238 156 q 310 172 293 156 q 322 193 318 181 q 326 231 326 206 l 326 1132 l 524 1132 l 524 0 l 326 0 l 326 50 q 265 4 301 19 q 186 -11 228 -11 z "},"v":{"ha":553,"x_min":0,"x_max":553,"o":"m 133 0 l 0 1132 l 201 1132 l 285 326 l 368 1132 l 553 1132 l 419 0 l 133 0 z "},"w":{"ha":908,"x_min":0,"x_max":908,"o":"m 131 0 l 0 1132 l 197 1132 l 272 389 l 346 1132 l 582 1132 l 656 389 l 731 1132 l 908 1132 l 778 0 l 528 0 l 454 738 l 381 0 l 131 0 z "},"x":{"ha":617,"x_min":0,"x_max":617,"o":"m 0 0 l 200 571 l 4 1132 l 203 1132 l 308 803 l 415 1132 l 614 1132 l 418 571 l 617 0 l 418 0 l 308 339 l 199 0 l 0 0 z "},"y":{"ha":625,"x_min":0,"x_max":625,"o":"m 156 -228 l 222 58 l 0 1132 l 203 1132 l 318 518 l 438 1132 l 625 1132 l 344 -228 l 156 -228 z "},"z":{"ha":468,"x_min":7,"x_max":461,"o":"m 7 0 l 7 161 l 242 971 l 14 971 l 14 1132 l 444 1132 l 444 971 l 210 161 l 461 161 l 461 0 l 7 0 z "},"{":{"ha":378,"x_min":7,"x_max":371,"o":"m 243 -228 q 167 -217 197 -228 q 118 -189 138 -207 q 91 -147 100 -172 q 82 -83 82 -122 l 82 515 q 76 559 82 543 q 60 585 71 575 q 7 604 40 604 l 7 754 q 60 774 40 754 q 76 799 71 783 q 82 843 82 815 l 82 1442 q 91 1506 82 1481 q 118 1547 100 1531 q 167 1576 138 1567 q 243 1586 197 1586 l 371 1586 l 371 1425 l 317 1425 q 279 1388 279 1425 l 279 839 q 219 679 279 735 q 267 602 254 649 q 279 501 279 556 l 279 -29 q 317 -67 279 -67 l 371 -67 l 371 -228 l 243 -228 z "},"|":{"ha":211,"x_min":7,"x_max":204,"o":"m 7 -228 l 7 1586 l 204 1586 l 204 -228 l 7 -228 z "},"}":{"ha":378,"x_min":7,"x_max":371,"o":"m 7 -228 l 7 -67 l 61 -67 q 99 -29 99 -67 l 99 501 q 111 602 99 556 q 158 679 124 649 q 99 839 99 735 l 99 1388 q 61 1425 99 1425 l 7 1425 l 7 1586 l 135 1586 q 210 1576 181 1586 q 260 1547 240 1567 q 287 1506 278 1531 q 296 1442 296 1481 l 296 843 q 302 799 296 815 q 318 774 308 783 q 371 754 338 754 l 371 604 q 318 585 338 604 q 302 559 308 575 q 296 515 296 543 l 296 -83 q 287 -147 296 -122 q 260 -189 278 -172 q 210 -217 240 -207 q 135 -228 181 -228 l 7 -228 z "},"~":{"ha":614,"x_min":7,"x_max":607,"o":"m 426 633 q 337 649 374 633 q 271 683 300 665 q 229 707 249 697 q 186 717 210 717 q 142 698 157 717 q 126 656 126 679 l 7 689 q 56 823 7 772 q 189 874 104 874 q 282 857 243 874 q 351 821 321 840 q 392 798 372 807 q 429 789 411 789 q 473 808 457 789 q 489 849 489 828 l 607 819 q 560 684 607 735 q 426 633 513 633 z "}," ":{"ha":136,"x_min":0,"x_max":0,"o":""},"¡":{"ha":267,"x_min":7,"x_max":260,"o":"m 35 939 l 35 1132 l 232 1132 l 232 939 l 35 939 m 7 -228 l 60 835 l 207 835 l 260 -228 l 7 -228 z "},"¢":{"ha":531,"x_min":7,"x_max":524,"o":"m 188 0 l 188 165 q 115 186 144 172 q 64 222 86 200 q 22 292 38 250 q 7 401 7 333 l 7 1186 q 22 1297 7 1254 q 64 1365 38 1339 q 115 1402 86 1388 q 188 1422 144 1417 l 188 1586 l 343 1586 l 343 1422 q 415 1402 386 1417 q 467 1365 444 1388 q 509 1297 494 1339 q 524 1186 524 1254 l 524 969 l 326 969 l 326 1206 q 322 1243 326 1231 q 310 1264 318 1256 q 265 1281 293 1281 q 221 1264 238 1281 q 208 1243 213 1256 q 204 1206 204 1231 l 204 382 q 208 344 204 357 q 221 324 213 332 q 265 307 238 307 q 310 324 293 307 q 322 344 318 332 q 326 382 326 357 l 326 640 l 524 640 l 524 401 q 509 292 524 333 q 467 222 494 250 q 415 186 444 200 q 343 165 386 172 l 343 0 l 188 0 z "},"£":{"ha":614,"x_min":7,"x_max":607,"o":"m 7 0 l 7 181 q 50 205 39 186 q 61 258 61 224 l 61 715 l 7 715 l 7 871 l 61 871 l 61 1360 q 73 1456 61 1421 q 106 1518 85 1492 q 187 1573 135 1554 q 331 1592 239 1592 q 453 1581 408 1592 q 526 1547 499 1569 q 581 1474 563 1521 q 600 1346 600 1428 l 600 1025 l 389 1025 l 389 1368 q 385 1406 389 1393 q 372 1426 381 1418 q 338 1439 360 1439 q 300 1424 314 1439 q 290 1404 294 1417 q 286 1368 286 1392 l 286 871 l 444 871 l 444 715 l 286 715 l 286 299 q 276 225 286 251 q 250 181 267 199 l 607 181 l 607 0 l 7 0 z "},"¤":{"ha":631,"x_min":7,"x_max":624,"o":"m 118 88 l 8 199 l 82 272 q 69 376 69 314 l 69 757 q 82 860 69 818 l 7 933 l 118 1044 l 186 976 q 243 993 211 988 q 314 999 275 999 q 386 992 354 999 q 444 975 418 986 l 513 1044 l 624 933 l 546 857 q 558 757 558 815 l 558 376 q 546 275 558 317 l 622 199 l 513 88 l 443 157 q 386 141 418 147 q 314 135 354 135 q 186 157 236 135 l 118 88 m 314 282 q 358 299 342 282 q 371 319 367 307 q 375 357 375 332 l 375 776 q 371 814 375 801 q 358 835 367 826 q 314 851 342 851 q 269 835 286 851 q 257 814 261 826 q 253 776 253 801 l 253 357 q 257 319 253 332 q 269 299 261 307 q 314 282 286 282 z "},"¥":{"ha":625,"x_min":0,"x_max":625,"o":"m 200 0 l 200 481 l 28 481 l 28 640 l 185 640 l 172 707 l 28 707 l 28 867 l 140 867 l 0 1586 l 221 1586 l 319 907 l 419 1586 l 625 1586 l 485 867 l 597 867 l 597 707 l 453 707 l 440 640 l 597 640 l 597 481 l 425 481 l 425 0 l 200 0 z "},"¦":{"ha":211,"x_min":7,"x_max":204,"o":"m 7 -228 l 7 493 l 204 493 l 204 -228 l 7 -228 m 7 865 l 7 1586 l 204 1586 l 204 865 l 7 865 z "},"§":{"ha":585,"x_min":7,"x_max":578,"o":"m 292 -247 q 190 -235 235 -247 q 113 -200 144 -224 q 74 -158 90 -182 q 50 -101 58 -133 q 42 -29 42 -69 l 42 233 l 236 233 l 236 -19 q 240 -51 236 -37 q 251 -74 244 -64 q 301 -94 268 -94 q 347 -76 332 -94 q 361 -19 361 -58 q 335 97 361 39 q 282 203 310 154 l 88 544 q 54 609 74 571 q 21 697 35 647 q 7 806 7 746 q 42 957 7 897 q 144 1054 78 1017 q 73 1194 106 1122 q 40 1358 40 1267 q 106 1535 40 1476 q 190 1580 140 1565 q 306 1594 240 1594 q 419 1580 371 1594 q 500 1535 468 1565 q 532 1492 519 1517 q 551 1437 544 1467 q 557 1369 557 1407 l 557 1136 l 363 1136 l 363 1371 q 358 1404 363 1390 q 346 1426 354 1418 q 306 1442 331 1442 q 260 1424 275 1442 q 244 1365 244 1406 q 265 1270 244 1317 q 307 1183 285 1224 l 486 868 q 529 783 508 829 q 564 686 550 738 q 578 576 578 635 q 548 431 578 494 q 450 322 518 368 q 524 174 490 254 q 558 -4 558 94 q 490 -189 558 -128 q 407 -233 457 -218 q 292 -247 357 -247 m 353 490 q 374 522 368 501 q 381 567 381 542 q 369 635 381 599 q 341 703 357 671 q 314 756 325 736 l 242 883 q 211 811 211 867 q 231 715 211 760 q 274 632 251 671 l 353 490 z "},"¨":{"ha":447,"x_min":7,"x_max":440,"o":"m 7 1425 l 7 1586 l 190 1586 l 190 1425 l 7 1425 m 257 1425 l 257 1586 l 440 1586 l 440 1425 l 257 1425 z "},"©":{"ha":828,"x_min":7,"x_max":821,"o":"m 189 371 l 189 1215 q 242 1367 189 1319 q 414 1414 296 1414 q 585 1367 532 1414 q 639 1215 639 1319 l 639 957 l 472 957 l 472 1219 q 414 1286 472 1286 q 356 1219 356 1286 l 356 367 q 414 300 356 300 q 472 367 472 300 l 472 636 l 639 636 l 639 371 q 585 219 639 267 q 414 172 532 172 q 242 219 296 172 q 189 371 189 267 m 179 144 l 649 144 q 671 167 671 144 l 671 1419 q 649 1442 671 1442 l 179 1442 q 157 1419 157 1442 l 157 167 q 179 144 157 144 m 701 1586 q 791 1557 761 1586 q 821 1464 821 1528 l 821 122 q 790 29 821 58 q 699 0 760 0 l 129 0 q 38 29 68 0 q 7 122 7 58 l 7 1464 q 38 1557 7 1528 q 129 1586 68 1586 l 701 1586 z "},"ª":{"ha":531,"x_min":7,"x_max":524,"o":"m 185 443 q 53 495 100 443 q 7 644 7 547 l 7 875 q 22 963 7 926 q 71 1031 38 1000 l 264 1210 q 304 1258 290 1235 q 324 1307 318 1282 q 329 1361 329 1332 q 315 1425 329 1406 q 269 1444 301 1444 q 224 1426 239 1444 q 210 1372 210 1408 l 210 1179 l 15 1179 l 15 1353 q 80 1537 15 1482 q 269 1592 144 1592 q 463 1534 401 1592 q 524 1353 524 1476 l 524 454 l 326 454 l 326 504 q 185 443 278 443 m 265 596 q 326 663 326 596 l 326 1033 q 318 1024 322 1028 q 310 1015 314 1019 l 231 938 q 211 908 218 925 q 204 868 204 890 l 204 663 q 265 596 204 596 z "},"«":{"ha":482,"x_min":0,"x_max":482,"o":"m 119 425 l 0 664 l 119 903 l 290 903 l 171 664 l 290 425 l 119 425 m 311 425 l 192 664 l 311 903 l 482 903 l 363 664 l 482 425 l 311 425 z "},"¬":{"ha":614,"x_min":7,"x_max":607,"o":"m 451 521 l 451 688 l 7 688 l 7 843 l 607 843 l 607 521 l 451 521 z "},"­":{"ha":339,"x_min":7,"x_max":332,"o":"m 7 538 l 7 693 l 332 693 l 332 538 l 7 538 z "},"®":{"ha":828,"x_min":7,"x_max":821,"o":"m 204 188 l 204 1399 l 454 1399 q 583 1359 543 1399 q 624 1231 624 1319 l 624 947 q 601 840 624 879 q 536 793 579 801 q 604 742 585 776 q 624 640 624 707 l 624 188 l 465 188 l 465 658 q 450 709 465 694 q 399 724 435 724 l 363 724 l 363 188 l 204 188 m 363 854 l 399 854 q 451 871 438 854 q 465 926 465 888 l 465 1203 q 399 1268 465 1268 l 363 1268 l 363 854 m 179 144 l 649 144 q 671 167 671 144 l 671 1419 q 649 1442 671 1442 l 179 1442 q 157 1419 157 1442 l 157 167 q 179 144 157 144 m 701 1586 q 791 1557 761 1586 q 821 1464 821 1528 l 821 122 q 790 29 821 58 q 699 0 760 0 l 129 0 q 38 29 68 0 q 7 122 7 58 l 7 1464 q 38 1557 7 1528 q 129 1586 68 1586 l 701 1586 z "},"¯":{"ha":408,"x_min":7,"x_max":401,"o":"m 7 1425 l 7 1567 l 401 1567 l 401 1425 l 7 1425 z "},"°":{"ha":431,"x_min":7,"x_max":424,"o":"m 215 1175 q 110 1203 157 1175 q 35 1278 63 1231 q 7 1383 7 1325 q 35 1490 7 1443 q 110 1564 63 1536 q 215 1592 157 1592 q 322 1564 275 1592 q 396 1490 368 1536 q 424 1383 424 1443 q 396 1278 424 1325 q 322 1203 368 1231 q 215 1175 275 1175 m 215 1303 q 273 1326 250 1303 q 296 1383 296 1349 q 273 1441 296 1418 q 215 1464 250 1464 q 158 1441 181 1464 q 135 1383 135 1418 q 158 1326 135 1349 q 215 1303 181 1303 z "},"±":{"ha":614,"x_min":7,"x_max":607,"o":"m 229 642 l 229 794 l 7 794 l 7 950 l 229 950 l 229 1103 l 385 1103 l 385 950 l 607 950 l 607 794 l 385 794 l 385 642 l 229 642 m 7 428 l 7 583 l 607 583 l 607 428 l 7 428 z "},"²":{"ha":410,"x_min":7,"x_max":404,"o":"m 7 478 l 7 593 l 215 1256 q 239 1345 229 1300 q 249 1422 249 1390 q 238 1469 249 1454 q 206 1485 226 1485 q 173 1469 182 1485 q 164 1428 164 1453 l 164 1196 l 7 1196 l 7 1415 q 17 1490 7 1457 q 51 1546 26 1522 q 111 1580 75 1568 q 206 1592 147 1592 q 297 1581 261 1592 q 358 1546 332 1569 q 404 1413 404 1500 q 390 1297 404 1353 q 365 1211 376 1240 l 172 603 l 403 603 l 403 478 l 7 478 z "},"³":{"ha":433,"x_min":7,"x_max":426,"o":"m 217 472 q 117 486 157 472 q 53 525 78 500 q 19 579 31 547 q 7 660 7 611 l 7 894 l 164 894 l 164 638 q 175 594 164 610 q 217 579 186 579 q 258 594 246 579 q 269 638 269 610 l 269 929 q 266 960 269 949 q 256 976 263 971 q 238 988 250 983 q 207 992 226 992 l 135 992 l 135 1106 l 207 1106 q 237 1110 226 1106 q 253 1119 247 1114 q 262 1136 260 1126 q 264 1163 264 1146 l 264 1426 q 253 1469 264 1454 q 217 1485 243 1485 q 180 1469 190 1485 q 169 1426 169 1454 l 169 1196 l 11 1196 l 11 1406 q 23 1489 11 1457 q 57 1542 35 1521 q 120 1578 82 1565 q 217 1592 158 1592 q 313 1578 275 1592 q 375 1542 351 1565 q 410 1488 399 1519 q 422 1406 422 1457 l 422 1192 q 407 1104 422 1139 q 353 1050 392 1069 q 410 996 394 1031 q 426 908 426 961 l 426 660 q 415 579 426 611 q 381 525 403 547 q 317 486 357 500 q 217 472 278 472 z "},"´":{"ha":261,"x_min":7,"x_max":254,"o":"m 7 1425 l 32 1586 l 254 1586 l 169 1425 l 7 1425 z "},"µ":{"ha":531,"x_min":7,"x_max":524,"o":"m 7 -228 l 7 1132 l 204 1132 l 204 231 q 208 193 204 206 q 221 172 213 181 q 265 156 238 156 q 310 172 293 156 q 322 193 318 181 q 326 231 326 206 l 326 1132 l 524 1132 l 524 0 l 326 0 l 326 50 q 265 4 301 19 q 186 -11 228 -11 l 176 -11 l 176 -228 l 7 -228 z "},"¶":{"ha":683,"x_min":7,"x_max":676,"o":"m 165 0 l 165 1175 q 52 1248 97 1192 q 7 1378 7 1304 q 22 1455 7 1418 q 61 1518 36 1492 q 133 1568 90 1550 q 243 1586 176 1586 l 676 1586 l 676 1403 l 610 1403 l 610 0 l 426 0 l 426 1403 l 349 1403 l 349 0 l 165 0 z "},"·":{"ha":225,"x_min":7,"x_max":218,"o":"m 7 456 l 7 649 l 218 649 l 218 456 l 7 456 z "},"¸":{"ha":194,"x_min":7,"x_max":188,"o":"m 7 -264 l 7 -181 l 13 -181 q 49 -169 38 -181 q 57 -155 54 -162 q 60 -133 60 -147 l 60 -107 l 7 -107 l 7 21 l 188 21 l 188 -117 q 182 -174 188 -151 q 165 -211 176 -196 q 119 -250 149 -236 q 40 -264 89 -264 l 7 -264 z "},"¹":{"ha":233,"x_min":7,"x_max":226,"o":"m 68 478 l 68 1426 l 7 1426 l 67 1586 l 226 1586 l 226 478 l 68 478 z "},"º":{"ha":531,"x_min":7,"x_max":524,"o":"m 265 449 q 142 465 189 449 q 64 511 94 481 q 22 580 36 538 q 7 690 7 622 l 7 1350 q 22 1460 7 1418 q 64 1529 36 1503 q 142 1576 94 1560 q 265 1592 189 1592 q 389 1576 342 1592 q 467 1529 436 1560 q 509 1460 494 1503 q 524 1350 524 1418 l 524 690 q 509 580 524 622 q 467 511 494 538 q 389 465 436 481 q 265 449 342 449 m 265 596 q 310 613 293 596 q 322 633 318 621 q 326 671 326 646 l 326 1369 q 322 1407 326 1394 q 310 1428 318 1419 q 265 1444 293 1444 q 221 1428 238 1444 q 208 1407 213 1419 q 204 1369 204 1394 l 204 671 q 208 633 204 646 q 221 613 213 621 q 265 596 238 596 z "},"»":{"ha":482,"x_min":0,"x_max":482,"o":"m 363 425 l 192 425 l 311 664 l 192 903 l 363 903 l 482 664 l 363 425 m 171 425 l 0 425 l 119 664 l 0 903 l 171 903 l 290 664 l 171 425 z "},"¼":{"ha":871,"x_min":7,"x_max":864,"o":"m 175 0 l 372 1586 l 518 1586 l 321 0 l 175 0 m 68 478 l 68 1426 l 7 1426 l 67 1586 l 226 1586 l 226 478 l 68 478 m 631 0 l 631 289 l 386 289 l 386 403 l 563 1108 l 786 1108 l 786 414 l 864 414 l 864 289 l 786 289 l 786 0 l 631 0 m 521 414 l 631 414 l 631 901 l 521 414 z "},"½":{"ha":858,"x_min":7,"x_max":851,"o":"m 175 0 l 372 1586 l 518 1586 l 321 0 l 175 0 m 68 478 l 68 1426 l 7 1426 l 67 1586 l 226 1586 l 226 478 l 68 478 m 454 0 l 454 115 l 663 778 q 686 867 676 822 q 696 944 696 913 q 685 992 696 976 q 653 1007 674 1007 q 620 991 629 1007 q 611 950 611 975 l 611 718 l 454 718 l 454 938 q 464 1012 454 979 q 499 1068 474 1044 q 558 1102 522 1090 q 653 1114 594 1114 q 744 1103 708 1114 q 806 1068 779 1092 q 851 935 851 1022 q 838 819 851 875 q 813 733 824 763 l 619 125 l 850 125 l 850 0 l 454 0 z "},"¾":{"ha":1056,"x_min":7,"x_max":1049,"o":"m 361 0 l 558 1586 l 704 1586 l 507 0 l 361 0 m 815 0 l 815 289 l 571 289 l 571 403 l 747 1108 l 971 1108 l 971 414 l 1049 414 l 1049 289 l 971 289 l 971 0 l 815 0 m 706 414 l 815 414 l 815 901 l 706 414 m 217 472 q 117 486 157 472 q 53 525 78 500 q 19 579 31 547 q 7 660 7 611 l 7 894 l 164 894 l 164 638 q 175 594 164 610 q 217 579 186 579 q 258 594 246 579 q 269 638 269 610 l 269 929 q 266 960 269 949 q 256 976 263 971 q 238 988 250 983 q 207 992 226 992 l 135 992 l 135 1106 l 207 1106 q 237 1110 226 1106 q 253 1119 247 1114 q 262 1136 260 1126 q 264 1163 264 1146 l 264 1426 q 253 1469 264 1454 q 217 1485 243 1485 q 180 1469 190 1485 q 169 1426 169 1454 l 169 1196 l 11 1196 l 11 1406 q 23 1489 11 1457 q 57 1542 35 1521 q 120 1578 82 1565 q 217 1592 158 1592 q 313 1578 275 1592 q 375 1542 351 1565 q 410 1488 399 1519 q 422 1406 422 1457 l 422 1192 q 407 1104 422 1139 q 353 1050 392 1069 q 410 996 394 1031 q 426 908 426 961 l 426 660 q 415 579 426 611 q 381 525 403 547 q 317 486 357 500 q 217 472 278 472 z "},"¿":{"ha":556,"x_min":7,"x_max":549,"o":"m 374 842 l 374 826 q 371 694 374 751 q 361 586 368 638 q 341 479 354 535 q 307 350 328 424 l 271 224 q 249 131 257 175 q 237 53 240 86 q 233 4 233 21 q 247 -49 233 -32 q 286 -67 260 -67 q 338 -14 338 -67 l 338 281 l 549 281 l 549 6 q 483 -175 549 -117 q 281 -233 418 -233 q 74 -174 140 -233 q 7 10 7 -115 q 22 134 7 64 q 67 299 36 204 l 135 513 q 167 622 153 569 q 188 727 181 674 q 196 842 196 781 l 374 842 m 390 1132 l 390 939 l 179 939 l 179 1132 l 390 1132 z "},"À":{"ha":647,"x_min":0,"x_max":647,"o":"m 0 0 l 151 1586 l 497 1586 l 647 0 l 422 0 l 403 253 l 232 253 l 213 0 l 0 0 m 247 436 l 388 436 l 317 1329 l 247 436 m 235 1639 l 150 1778 l 386 1778 l 411 1639 l 235 1639 z "},"Á":{"ha":647,"x_min":0,"x_max":647,"o":"m 0 0 l 151 1586 l 497 1586 l 647 0 l 422 0 l 403 253 l 232 253 l 213 0 l 0 0 m 247 436 l 388 436 l 317 1329 l 247 436 m 235 1639 l 260 1778 l 496 1778 l 411 1639 l 235 1639 z "},"Â":{"ha":647,"x_min":0,"x_max":647,"o":"m 0 0 l 151 1586 l 497 1586 l 647 0 l 422 0 l 403 253 l 232 253 l 213 0 l 0 0 m 247 436 l 388 436 l 317 1329 l 247 436 m 111 1639 l 179 1783 l 465 1783 l 536 1639 l 358 1639 l 321 1724 l 283 1639 l 111 1639 z "},"Ã":{"ha":647,"x_min":0,"x_max":647,"o":"m 0 0 l 151 1586 l 497 1586 l 647 0 l 422 0 l 403 253 l 232 253 l 213 0 l 0 0 m 247 436 l 388 436 l 317 1329 l 247 436 m 378 1629 q 334 1636 351 1629 q 303 1650 317 1643 q 284 1661 293 1657 q 267 1665 275 1665 q 245 1656 253 1665 q 238 1633 238 1647 l 132 1633 l 132 1679 q 169 1773 132 1738 q 269 1808 206 1808 q 309 1803 293 1808 q 338 1790 325 1797 q 361 1777 351 1783 q 381 1771 371 1771 q 410 1803 410 1771 l 515 1803 l 515 1758 q 479 1665 515 1700 q 378 1629 443 1629 z "},"Ä":{"ha":647,"x_min":0,"x_max":647,"o":"m 0 0 l 151 1586 l 497 1586 l 647 0 l 422 0 l 403 253 l 232 253 l 213 0 l 0 0 m 247 436 l 388 436 l 317 1329 l 247 436 m 100 1639 l 100 1783 l 290 1783 l 290 1639 l 100 1639 m 357 1639 l 357 1783 l 547 1783 l 547 1639 l 357 1639 z "},"Å":{"ha":647,"x_min":0,"x_max":647,"o":"m 0 0 l 151 1586 l 497 1586 l 647 0 l 422 0 l 403 253 l 232 253 l 213 0 l 0 0 m 247 436 l 388 436 l 317 1329 l 247 436 m 324 1611 q 210 1657 256 1611 q 164 1771 164 1703 q 210 1885 164 1839 q 324 1931 256 1931 q 438 1885 392 1931 q 483 1771 483 1839 q 438 1657 483 1703 q 324 1611 392 1611 m 324 1731 q 352 1742 340 1731 q 364 1771 364 1754 q 352 1799 364 1788 q 324 1811 340 1811 q 295 1799 307 1811 q 283 1771 283 1788 q 295 1742 283 1754 q 324 1731 307 1731 z "},"Æ":{"ha":854,"x_min":0,"x_max":847,"o":"m 0 0 l 239 1586 l 847 1586 l 847 1403 l 619 1403 l 619 910 l 847 910 l 847 726 l 619 726 l 619 183 l 847 183 l 847 0 l 394 0 l 394 226 l 243 226 l 213 0 l 0 0 m 267 403 l 394 403 l 394 1367 l 393 1367 l 267 403 z "},"Ç":{"ha":614,"x_min":7,"x_max":607,"o":"m 307 -6 q 165 14 221 -6 q 72 68 108 33 q 24 146 42 100 q 7 264 7 192 l 7 1322 q 24 1441 7 1394 q 72 1518 42 1488 q 165 1573 108 1554 q 307 1592 221 1592 q 450 1573 393 1592 q 542 1518 507 1554 q 590 1441 574 1488 q 607 1322 607 1394 l 607 1025 l 382 1025 l 382 1346 q 376 1390 382 1374 q 363 1414 371 1406 q 339 1429 353 1424 q 307 1435 325 1435 q 251 1414 272 1435 q 238 1390 243 1406 q 232 1346 232 1374 l 232 240 q 238 197 232 213 q 251 172 243 181 q 275 157 261 163 q 307 151 289 151 q 363 172 342 151 q 376 197 371 181 q 382 240 382 213 l 382 594 l 607 594 l 607 264 q 590 146 607 192 q 542 68 574 100 q 450 14 507 33 q 307 -6 393 -6 m 210 -264 l 210 -181 l 215 -181 q 251 -169 240 -181 q 260 -155 257 -162 q 263 -133 263 -147 l 263 -107 l 210 -107 l 210 21 l 404 21 l 404 -117 q 399 -174 404 -151 q 382 -211 393 -196 q 335 -250 365 -236 q 257 -264 306 -264 l 210 -264 z "},"È":{"ha":522,"x_min":7,"x_max":515,"o":"m 7 0 l 7 1586 l 515 1586 l 515 1403 l 232 1403 l 232 910 l 515 910 l 515 726 l 232 726 l 232 183 l 515 183 l 515 0 l 7 0 m 172 1639 l 88 1778 l 324 1778 l 349 1639 l 172 1639 z "},"É":{"ha":522,"x_min":7,"x_max":515,"o":"m 7 0 l 7 1586 l 515 1586 l 515 1403 l 232 1403 l 232 910 l 515 910 l 515 726 l 232 726 l 232 183 l 515 183 l 515 0 l 7 0 m 172 1639 l 197 1778 l 433 1778 l 349 1639 l 172 1639 z "},"Ê":{"ha":522,"x_min":7,"x_max":515,"o":"m 7 0 l 7 1586 l 515 1586 l 515 1403 l 232 1403 l 232 910 l 515 910 l 515 726 l 232 726 l 232 183 l 515 183 l 515 0 l 7 0 m 49 1639 l 117 1783 l 403 1783 l 474 1639 l 296 1639 l 258 1724 l 221 1639 l 49 1639 z "},"Ë":{"ha":522,"x_min":7,"x_max":515,"o":"m 7 0 l 7 1586 l 515 1586 l 515 1403 l 232 1403 l 232 910 l 515 910 l 515 726 l 232 726 l 232 183 l 515 183 l 515 0 l 7 0 m 38 1639 l 38 1783 l 228 1783 l 228 1639 l 38 1639 m 294 1639 l 294 1783 l 485 1783 l 485 1639 l 294 1639 z "},"Ì":{"ha":239,"x_min":-54,"x_max":232,"o":"m 7 0 l 7 1586 l 232 1586 l 232 0 l 7 0 m 31 1639 l -54 1778 l 182 1778 l 207 1639 l 31 1639 z "},"Í":{"ha":239,"x_min":7,"x_max":292,"o":"m 7 0 l 7 1586 l 232 1586 l 232 0 l 7 0 m 31 1639 l 56 1778 l 292 1778 l 207 1639 l 31 1639 z "},"Î":{"ha":239,"x_min":-93,"x_max":332,"o":"m 7 0 l 7 1586 l 232 1586 l 232 0 l 7 0 m -93 1639 l -25 1783 l 261 1783 l 332 1639 l 154 1639 l 117 1724 l 79 1639 l -93 1639 z "},"Ï":{"ha":239,"x_min":-104,"x_max":343,"o":"m 7 0 l 7 1586 l 232 1586 l 232 0 l 7 0 m -104 1639 l -104 1783 l 86 1783 l 86 1639 l -104 1639 m 153 1639 l 153 1783 l 343 1783 l 343 1639 l 153 1639 z "},"Ð":{"ha":681,"x_min":7,"x_max":674,"o":"m 74 0 l 74 1586 l 417 1586 q 535 1570 490 1586 q 611 1524 581 1554 q 658 1447 642 1493 q 674 1329 674 1401 l 674 257 q 658 139 674 185 q 611 63 642 93 q 535 16 581 32 q 417 0 490 0 l 74 0 m 7 715 l 7 871 l 400 871 l 400 715 l 7 715 m 300 183 l 361 183 q 431 204 414 183 q 444 233 439 214 q 450 283 450 251 l 450 1314 q 444 1358 450 1342 q 431 1382 439 1374 q 405 1397 421 1392 q 361 1403 389 1403 l 300 1403 l 300 183 z "},"Ñ":{"ha":639,"x_min":7,"x_max":632,"o":"m 7 0 l 7 1586 l 285 1586 l 435 781 l 435 1586 l 632 1586 l 632 0 l 382 0 l 204 915 l 204 0 l 7 0 m 374 1629 q 330 1636 347 1629 q 299 1650 313 1643 q 280 1661 289 1657 q 263 1665 271 1665 q 241 1656 249 1665 q 233 1633 233 1647 l 128 1633 l 128 1679 q 165 1773 128 1738 q 265 1808 201 1808 q 305 1803 289 1808 q 333 1790 321 1797 q 357 1777 347 1783 q 376 1771 367 1771 q 406 1803 406 1771 l 511 1803 l 511 1758 q 475 1665 511 1700 q 374 1629 439 1629 z "},"Ò":{"ha":614,"x_min":7,"x_max":607,"o":"m 307 -6 q 165 14 221 -6 q 72 68 108 33 q 24 146 42 100 q 7 264 7 192 l 7 1322 q 24 1441 7 1394 q 72 1518 42 1488 q 165 1573 108 1554 q 307 1592 221 1592 q 450 1573 393 1592 q 542 1518 507 1554 q 590 1441 574 1488 q 607 1322 607 1394 l 607 264 q 590 146 607 192 q 542 68 574 100 q 450 14 507 33 q 307 -6 393 -6 m 307 151 q 363 172 342 151 q 376 197 371 181 q 382 240 382 213 l 382 1346 q 376 1390 382 1374 q 363 1414 371 1406 q 307 1435 342 1435 q 251 1414 272 1435 q 238 1390 243 1406 q 232 1346 232 1374 l 232 240 q 238 197 232 213 q 251 172 243 181 q 307 151 272 151 m 218 1639 l 133 1778 l 369 1778 l 394 1639 l 218 1639 z "},"Ó":{"ha":614,"x_min":7,"x_max":607,"o":"m 307 -6 q 165 14 221 -6 q 72 68 108 33 q 24 146 42 100 q 7 264 7 192 l 7 1322 q 24 1441 7 1394 q 72 1518 42 1488 q 165 1573 108 1554 q 307 1592 221 1592 q 450 1573 393 1592 q 542 1518 507 1554 q 590 1441 574 1488 q 607 1322 607 1394 l 607 264 q 590 146 607 192 q 542 68 574 100 q 450 14 507 33 q 307 -6 393 -6 m 307 151 q 363 172 342 151 q 376 197 371 181 q 382 240 382 213 l 382 1346 q 376 1390 382 1374 q 363 1414 371 1406 q 307 1435 342 1435 q 251 1414 272 1435 q 238 1390 243 1406 q 232 1346 232 1374 l 232 240 q 238 197 232 213 q 251 172 243 181 q 307 151 272 151 m 218 1639 l 243 1778 l 479 1778 l 394 1639 l 218 1639 z "},"Ô":{"ha":614,"x_min":7,"x_max":607,"o":"m 307 -6 q 165 14 221 -6 q 72 68 108 33 q 24 146 42 100 q 7 264 7 192 l 7 1322 q 24 1441 7 1394 q 72 1518 42 1488 q 165 1573 108 1554 q 307 1592 221 1592 q 450 1573 393 1592 q 542 1518 507 1554 q 590 1441 574 1488 q 607 1322 607 1394 l 607 264 q 590 146 607 192 q 542 68 574 100 q 450 14 507 33 q 307 -6 393 -6 m 307 151 q 363 172 342 151 q 376 197 371 181 q 382 240 382 213 l 382 1346 q 376 1390 382 1374 q 363 1414 371 1406 q 307 1435 342 1435 q 251 1414 272 1435 q 238 1390 243 1406 q 232 1346 232 1374 l 232 240 q 238 197 232 213 q 251 172 243 181 q 307 151 272 151 m 94 1639 l 163 1783 l 449 1783 l 519 1639 l 342 1639 l 304 1724 l 267 1639 l 94 1639 z "},"Õ":{"ha":614,"x_min":7,"x_max":607,"o":"m 307 -6 q 165 14 221 -6 q 72 68 108 33 q 24 146 42 100 q 7 264 7 192 l 7 1322 q 24 1441 7 1394 q 72 1518 42 1488 q 165 1573 108 1554 q 307 1592 221 1592 q 450 1573 393 1592 q 542 1518 507 1554 q 590 1441 574 1488 q 607 1322 607 1394 l 607 264 q 590 146 607 192 q 542 68 574 100 q 450 14 507 33 q 307 -6 393 -6 m 307 151 q 363 172 342 151 q 376 197 371 181 q 382 240 382 213 l 382 1346 q 376 1390 382 1374 q 363 1414 371 1406 q 307 1435 342 1435 q 251 1414 272 1435 q 238 1390 243 1406 q 232 1346 232 1374 l 232 240 q 238 197 232 213 q 251 172 243 181 q 307 151 272 151 m 361 1629 q 317 1636 335 1629 q 286 1650 300 1643 q 267 1661 276 1657 q 250 1665 258 1665 q 228 1656 236 1665 q 221 1633 221 1647 l 115 1633 l 115 1679 q 152 1773 115 1738 q 253 1808 189 1808 q 292 1803 276 1808 q 321 1790 308 1797 q 344 1777 335 1783 q 364 1771 354 1771 q 393 1803 393 1771 l 499 1803 l 499 1758 q 463 1665 499 1700 q 361 1629 426 1629 z "},"Ö":{"ha":614,"x_min":7,"x_max":607,"o":"m 307 -6 q 165 14 221 -6 q 72 68 108 33 q 24 146 42 100 q 7 264 7 192 l 7 1322 q 24 1441 7 1394 q 72 1518 42 1488 q 165 1573 108 1554 q 307 1592 221 1592 q 450 1573 393 1592 q 542 1518 507 1554 q 590 1441 574 1488 q 607 1322 607 1394 l 607 264 q 590 146 607 192 q 542 68 574 100 q 450 14 507 33 q 307 -6 393 -6 m 307 151 q 363 172 342 151 q 376 197 371 181 q 382 240 382 213 l 382 1346 q 376 1390 382 1374 q 363 1414 371 1406 q 307 1435 342 1435 q 251 1414 272 1435 q 238 1390 243 1406 q 232 1346 232 1374 l 232 240 q 238 197 232 213 q 251 172 243 181 q 307 151 272 151 m 83 1639 l 83 1783 l 274 1783 l 274 1639 l 83 1639 m 340 1639 l 340 1783 l 531 1783 l 531 1639 l 340 1639 z "},"×":{"ha":614,"x_min":7,"x_max":607,"o":"m 117 479 l 7 589 l 197 779 l 7 969 l 117 1079 l 307 889 l 497 1079 l 607 969 l 417 779 l 607 589 l 497 479 l 307 669 l 117 479 z "},"Ø":{"ha":614,"x_min":7,"x_max":607,"o":"m 172 -57 l 7 -12 l 39 111 q 15 176 24 139 q 7 264 7 214 l 7 1322 q 24 1441 7 1394 q 72 1518 42 1488 q 165 1573 108 1554 q 307 1592 221 1592 q 370 1589 342 1592 q 424 1579 399 1586 l 440 1642 l 606 1597 l 574 1475 q 599 1410 590 1447 q 607 1322 607 1372 l 607 264 q 590 146 607 192 q 542 68 574 100 q 450 14 507 33 q 307 -6 393 -6 q 243 -2 272 -6 q 189 7 214 1 l 172 -57 m 232 779 l 382 1351 q 365 1415 382 1392 q 307 1439 347 1439 q 251 1418 272 1439 q 238 1394 243 1410 q 232 1350 232 1378 l 232 779 m 307 147 q 363 168 342 147 q 376 192 371 176 q 382 236 382 208 l 382 815 l 232 243 q 248 174 232 200 q 307 147 264 147 z "},"Ù":{"ha":614,"x_min":7,"x_max":607,"o":"m 307 -6 q 165 14 221 -6 q 72 68 108 33 q 24 146 42 100 q 7 263 7 192 l 7 1586 l 232 1586 l 232 240 q 238 197 232 213 q 251 172 243 181 q 275 157 261 163 q 307 151 289 151 q 363 172 342 151 q 376 197 371 181 q 382 240 382 213 l 382 1586 l 607 1586 l 607 263 q 590 146 607 192 q 542 68 574 100 q 450 14 507 33 q 307 -6 393 -6 m 218 1639 l 133 1778 l 369 1778 l 394 1639 l 218 1639 z "},"Ú":{"ha":614,"x_min":7,"x_max":607,"o":"m 307 -6 q 165 14 221 -6 q 72 68 108 33 q 24 146 42 100 q 7 263 7 192 l 7 1586 l 232 1586 l 232 240 q 238 197 232 213 q 251 172 243 181 q 275 157 261 163 q 307 151 289 151 q 363 172 342 151 q 376 197 371 181 q 382 240 382 213 l 382 1586 l 607 1586 l 607 263 q 590 146 607 192 q 542 68 574 100 q 450 14 507 33 q 307 -6 393 -6 m 218 1639 l 243 1778 l 479 1778 l 394 1639 l 218 1639 z "},"Û":{"ha":614,"x_min":7,"x_max":607,"o":"m 307 -6 q 165 14 221 -6 q 72 68 108 33 q 24 146 42 100 q 7 263 7 192 l 7 1586 l 232 1586 l 232 240 q 238 197 232 213 q 251 172 243 181 q 275 157 261 163 q 307 151 289 151 q 363 172 342 151 q 376 197 371 181 q 382 240 382 213 l 382 1586 l 607 1586 l 607 263 q 590 146 607 192 q 542 68 574 100 q 450 14 507 33 q 307 -6 393 -6 m 94 1639 l 163 1783 l 449 1783 l 519 1639 l 342 1639 l 304 1724 l 267 1639 l 94 1639 z "},"Ü":{"ha":614,"x_min":7,"x_max":607,"o":"m 307 -6 q 165 14 221 -6 q 72 68 108 33 q 24 146 42 100 q 7 263 7 192 l 7 1586 l 232 1586 l 232 240 q 238 197 232 213 q 251 172 243 181 q 275 157 261 163 q 307 151 289 151 q 363 172 342 151 q 376 197 371 181 q 382 240 382 213 l 382 1586 l 607 1586 l 607 263 q 590 146 607 192 q 542 68 574 100 q 450 14 507 33 q 307 -6 393 -6 m 83 1639 l 83 1783 l 274 1783 l 274 1639 l 83 1639 m 340 1639 l 340 1783 l 531 1783 l 531 1639 l 340 1639 z "},"Ý":{"ha":665,"x_min":0,"x_max":665,"o":"m 219 0 l 219 565 l 0 1586 l 219 1586 l 339 990 l 460 1586 l 665 1586 l 444 565 l 444 0 l 219 0 m 244 1639 l 269 1778 l 506 1778 l 421 1639 l 244 1639 z "},"Þ":{"ha":614,"x_min":7,"x_max":607,"o":"m 7 0 l 7 1586 l 232 1586 l 232 1271 l 376 1271 q 485 1257 444 1271 q 553 1215 526 1243 q 593 1149 579 1189 q 607 1043 607 1110 l 607 581 q 593 474 607 514 q 553 408 579 435 q 485 367 526 382 q 376 353 444 353 l 232 353 l 232 0 l 7 0 m 232 536 l 293 536 q 363 557 344 536 q 376 585 371 567 q 382 636 382 604 l 382 999 q 376 1042 382 1026 q 363 1067 371 1058 q 337 1082 353 1076 q 293 1088 321 1088 l 232 1088 l 232 536 z "},"ß":{"ha":536,"x_min":7,"x_max":529,"o":"m 7 0 l 7 1365 q 22 1474 7 1431 q 71 1543 36 1517 q 149 1583 103 1568 q 261 1597 196 1597 q 379 1581 332 1597 q 457 1539 426 1565 q 502 1469 489 1511 q 515 1365 515 1426 l 515 932 q 440 800 515 831 q 509 751 489 786 q 529 665 529 717 l 529 242 q 515 132 529 174 q 472 63 500 90 q 392 16 442 32 q 243 0 342 0 l 229 0 l 229 147 l 257 147 q 295 152 282 147 q 315 164 308 157 q 328 185 324 172 q 332 222 332 197 l 332 650 q 328 688 332 675 q 315 708 324 700 q 295 720 308 715 q 257 725 282 725 l 229 725 l 229 872 l 257 872 q 286 878 276 872 q 301 889 296 883 q 314 910 310 897 q 318 947 318 922 l 318 1379 q 313 1416 318 1403 q 300 1436 308 1429 q 261 1450 283 1450 q 222 1436 239 1450 q 209 1416 214 1429 q 204 1379 204 1403 l 204 0 l 7 0 z "},"à":{"ha":531,"x_min":7,"x_max":524,"o":"m 185 -11 q 53 41 100 -11 q 7 190 7 93 l 7 421 q 22 509 7 472 q 71 576 38 546 l 264 756 q 304 804 290 781 q 324 853 318 828 q 329 907 329 878 q 315 971 329 951 q 269 990 301 990 q 224 972 239 990 q 210 918 210 954 l 210 725 l 15 725 l 15 899 q 80 1083 15 1028 q 269 1138 144 1138 q 463 1080 401 1138 q 524 899 524 1022 l 524 0 l 326 0 l 326 50 q 185 -11 278 -11 m 265 142 q 326 208 326 142 l 326 579 q 318 569 322 574 q 310 561 314 565 l 231 483 q 211 453 218 471 q 204 414 204 436 l 204 208 q 265 142 204 142 m 183 1199 l 99 1360 l 321 1360 l 346 1199 l 183 1199 z "},"á":{"ha":531,"x_min":7,"x_max":524,"o":"m 185 -11 q 53 41 100 -11 q 7 190 7 93 l 7 421 q 22 509 7 472 q 71 576 38 546 l 264 756 q 304 804 290 781 q 324 853 318 828 q 329 907 329 878 q 315 971 329 951 q 269 990 301 990 q 224 972 239 990 q 210 918 210 954 l 210 725 l 15 725 l 15 899 q 80 1083 15 1028 q 269 1138 144 1138 q 463 1080 401 1138 q 524 899 524 1022 l 524 0 l 326 0 l 326 50 q 185 -11 278 -11 m 265 142 q 326 208 326 142 l 326 579 q 318 569 322 574 q 310 561 314 565 l 231 483 q 211 453 218 471 q 204 414 204 436 l 204 208 q 265 142 204 142 m 183 1199 l 208 1360 l 431 1360 l 346 1199 l 183 1199 z "},"â":{"ha":531,"x_min":7,"x_max":524,"o":"m 185 -11 q 53 41 100 -11 q 7 190 7 93 l 7 421 q 22 509 7 472 q 71 576 38 546 l 264 756 q 304 804 290 781 q 324 853 318 828 q 329 907 329 878 q 315 971 329 951 q 269 990 301 990 q 224 972 239 990 q 210 918 210 954 l 210 725 l 15 725 l 15 899 q 80 1083 15 1028 q 269 1138 144 1138 q 463 1080 401 1138 q 524 899 524 1022 l 524 0 l 326 0 l 326 50 q 185 -11 278 -11 m 265 142 q 326 208 326 142 l 326 579 q 318 569 322 574 q 310 561 314 565 l 231 483 q 211 453 218 471 q 204 414 204 436 l 204 208 q 265 142 204 142 m 60 1199 l 128 1360 l 400 1360 l 471 1199 l 294 1199 l 257 1292 l 219 1199 l 60 1199 z "},"ã":{"ha":531,"x_min":7,"x_max":524,"o":"m 185 -11 q 53 41 100 -11 q 7 190 7 93 l 7 421 q 22 509 7 472 q 71 576 38 546 l 264 756 q 304 804 290 781 q 324 853 318 828 q 329 907 329 878 q 315 971 329 951 q 269 990 301 990 q 224 972 239 990 q 210 918 210 954 l 210 725 l 15 725 l 15 899 q 80 1083 15 1028 q 269 1138 144 1138 q 463 1080 401 1138 q 524 899 524 1022 l 524 0 l 326 0 l 326 50 q 185 -11 278 -11 m 265 142 q 326 208 326 142 l 326 579 q 318 569 322 574 q 310 561 314 565 l 231 483 q 211 453 218 471 q 204 414 204 436 l 204 208 q 265 142 204 142 m 319 1192 q 276 1197 293 1192 q 244 1213 258 1203 q 208 1228 222 1228 q 187 1219 194 1228 q 179 1196 179 1210 l 74 1196 l 74 1236 q 110 1330 74 1294 q 211 1365 147 1365 q 251 1360 235 1365 q 279 1347 267 1354 q 303 1334 293 1340 q 322 1328 313 1328 q 351 1360 351 1328 l 351 1361 l 457 1361 l 457 1321 q 421 1227 457 1263 q 319 1192 385 1192 z "},"ä":{"ha":531,"x_min":7,"x_max":524,"o":"m 185 -11 q 53 41 100 -11 q 7 190 7 93 l 7 421 q 22 509 7 472 q 71 576 38 546 l 264 756 q 304 804 290 781 q 324 853 318 828 q 329 907 329 878 q 315 971 329 951 q 269 990 301 990 q 224 972 239 990 q 210 918 210 954 l 210 725 l 15 725 l 15 899 q 80 1083 15 1028 q 269 1138 144 1138 q 463 1080 401 1138 q 524 899 524 1022 l 524 0 l 326 0 l 326 50 q 185 -11 278 -11 m 265 142 q 326 208 326 142 l 326 579 q 318 569 322 574 q 310 561 314 565 l 231 483 q 211 453 218 471 q 204 414 204 436 l 204 208 q 265 142 204 142 m 49 1199 l 49 1360 l 232 1360 l 232 1199 l 49 1199 m 299 1199 l 299 1360 l 482 1360 l 482 1199 l 299 1199 z "},"å":{"ha":531,"x_min":7,"x_max":524,"o":"m 185 -11 q 53 41 100 -11 q 7 190 7 93 l 7 421 q 22 509 7 472 q 71 576 38 546 l 264 756 q 304 804 290 781 q 324 853 318 828 q 329 907 329 878 q 315 971 329 951 q 269 990 301 990 q 224 972 239 990 q 210 918 210 954 l 210 725 l 15 725 l 15 899 q 80 1083 15 1028 q 269 1138 144 1138 q 463 1080 401 1138 q 524 899 524 1022 l 524 0 l 326 0 l 326 50 q 185 -11 278 -11 m 265 142 q 326 208 326 142 l 326 579 q 318 569 322 574 q 310 561 314 565 l 231 483 q 211 453 218 471 q 204 414 204 436 l 204 208 q 265 142 204 142 m 265 1176 q 157 1221 201 1176 q 113 1329 113 1265 q 157 1438 113 1394 q 265 1482 201 1482 q 374 1438 331 1482 q 418 1329 418 1394 q 374 1221 418 1265 q 265 1176 331 1176 m 265 1289 q 294 1301 282 1289 q 306 1329 306 1313 q 294 1358 306 1346 q 265 1369 282 1369 q 237 1358 249 1369 q 225 1329 225 1346 q 237 1301 225 1313 q 265 1289 249 1289 z "},"æ":{"ha":850,"x_min":7,"x_max":843,"o":"m 213 -11 q 60 41 114 -11 q 7 190 7 93 l 7 421 q 22 509 7 472 q 71 576 38 546 l 264 756 q 304 804 290 781 q 324 853 318 828 q 329 907 329 878 q 315 968 329 949 q 269 988 301 988 q 210 918 210 988 l 210 725 l 15 725 l 15 896 q 77 1081 15 1025 q 257 1138 139 1138 q 353 1127 311 1138 q 425 1093 394 1117 q 592 1138 483 1138 q 710 1120 665 1138 q 786 1075 756 1103 q 828 1006 814 1049 q 843 896 843 964 l 843 539 l 524 539 l 524 217 q 528 179 524 192 q 540 158 532 167 q 585 142 557 142 q 629 158 613 142 q 642 179 638 167 q 646 217 646 192 l 646 429 l 843 429 l 843 236 q 828 126 843 168 q 786 57 814 85 q 709 10 756 26 q 588 -6 663 -6 q 465 10 511 -6 q 389 57 419 26 q 313 6 357 22 q 213 -11 268 -11 m 265 142 q 326 208 326 142 l 326 579 q 318 569 322 574 q 310 561 314 565 l 231 483 q 211 453 218 471 q 204 414 204 436 l 204 208 q 265 142 204 142 m 524 689 l 646 689 l 646 915 q 642 953 646 940 q 629 974 638 965 q 585 990 613 990 q 540 974 557 990 q 528 953 532 965 q 524 915 524 940 l 524 689 z "},"ç":{"ha":531,"x_min":7,"x_max":524,"o":"m 265 -6 q 142 10 189 -6 q 64 57 94 26 q 22 126 38 85 q 7 236 7 168 l 7 896 q 22 1006 7 964 q 64 1075 38 1049 q 142 1122 94 1106 q 265 1138 189 1138 q 389 1122 342 1138 q 467 1075 436 1106 q 509 1006 494 1049 q 524 896 524 964 l 524 725 l 326 725 l 326 915 q 322 953 326 940 q 310 974 318 965 q 265 990 293 990 q 221 974 238 990 q 208 953 213 965 q 204 915 204 940 l 204 217 q 208 179 204 192 q 221 158 213 167 q 265 142 238 142 q 310 158 293 142 q 322 179 318 167 q 326 217 326 192 l 326 429 l 524 429 l 524 236 q 509 126 524 168 q 467 57 494 85 q 389 10 436 26 q 265 -6 342 -6 m 175 -264 l 175 -181 l 181 -181 q 217 -169 206 -181 q 225 -155 222 -162 q 228 -133 228 -147 l 228 -107 l 175 -107 l 175 21 l 356 21 l 356 -117 q 350 -174 356 -151 q 333 -211 344 -196 q 287 -250 317 -236 q 208 -264 257 -264 l 175 -264 z "},"è":{"ha":531,"x_min":7,"x_max":524,"o":"m 265 -6 q 142 10 189 -6 q 64 57 94 26 q 22 126 38 85 q 7 236 7 168 l 7 896 q 22 1006 7 964 q 64 1075 38 1049 q 142 1122 94 1106 q 265 1138 189 1138 q 389 1122 342 1138 q 467 1075 436 1106 q 509 1006 494 1049 q 524 896 524 964 l 524 497 l 204 497 l 204 217 q 208 179 204 192 q 221 158 213 167 q 265 142 238 142 q 310 158 293 142 q 322 179 318 167 q 326 217 326 192 l 326 429 l 524 429 l 524 236 q 509 126 524 168 q 467 57 494 85 q 389 10 436 26 q 265 -6 342 -6 m 204 647 l 326 647 l 326 915 q 322 953 326 940 q 310 974 318 965 q 265 990 293 990 q 221 974 238 990 q 208 953 213 965 q 204 915 204 940 l 204 647 m 183 1199 l 99 1360 l 321 1360 l 346 1199 l 183 1199 z "},"é":{"ha":531,"x_min":7,"x_max":524,"o":"m 265 -6 q 142 10 189 -6 q 64 57 94 26 q 22 126 38 85 q 7 236 7 168 l 7 896 q 22 1006 7 964 q 64 1075 38 1049 q 142 1122 94 1106 q 265 1138 189 1138 q 389 1122 342 1138 q 467 1075 436 1106 q 509 1006 494 1049 q 524 896 524 964 l 524 497 l 204 497 l 204 217 q 208 179 204 192 q 221 158 213 167 q 265 142 238 142 q 310 158 293 142 q 322 179 318 167 q 326 217 326 192 l 326 429 l 524 429 l 524 236 q 509 126 524 168 q 467 57 494 85 q 389 10 436 26 q 265 -6 342 -6 m 204 647 l 326 647 l 326 915 q 322 953 326 940 q 310 974 318 965 q 265 990 293 990 q 221 974 238 990 q 208 953 213 965 q 204 915 204 940 l 204 647 m 183 1199 l 208 1360 l 431 1360 l 346 1199 l 183 1199 z "},"ê":{"ha":531,"x_min":7,"x_max":524,"o":"m 265 -6 q 142 10 189 -6 q 64 57 94 26 q 22 126 38 85 q 7 236 7 168 l 7 896 q 22 1006 7 964 q 64 1075 38 1049 q 142 1122 94 1106 q 265 1138 189 1138 q 389 1122 342 1138 q 467 1075 436 1106 q 509 1006 494 1049 q 524 896 524 964 l 524 497 l 204 497 l 204 217 q 208 179 204 192 q 221 158 213 167 q 265 142 238 142 q 310 158 293 142 q 322 179 318 167 q 326 217 326 192 l 326 429 l 524 429 l 524 236 q 509 126 524 168 q 467 57 494 85 q 389 10 436 26 q 265 -6 342 -6 m 204 647 l 326 647 l 326 915 q 322 953 326 940 q 310 974 318 965 q 265 990 293 990 q 221 974 238 990 q 208 953 213 965 q 204 915 204 940 l 204 647 m 60 1199 l 128 1360 l 400 1360 l 471 1199 l 294 1199 l 257 1292 l 219 1199 l 60 1199 z "},"ë":{"ha":531,"x_min":7,"x_max":524,"o":"m 265 -6 q 142 10 189 -6 q 64 57 94 26 q 22 126 38 85 q 7 236 7 168 l 7 896 q 22 1006 7 964 q 64 1075 38 1049 q 142 1122 94 1106 q 265 1138 189 1138 q 389 1122 342 1138 q 467 1075 436 1106 q 509 1006 494 1049 q 524 896 524 964 l 524 497 l 204 497 l 204 217 q 208 179 204 192 q 221 158 213 167 q 265 142 238 142 q 310 158 293 142 q 322 179 318 167 q 326 217 326 192 l 326 429 l 524 429 l 524 236 q 509 126 524 168 q 467 57 494 85 q 389 10 436 26 q 265 -6 342 -6 m 204 647 l 326 647 l 326 915 q 322 953 326 940 q 310 974 318 965 q 265 990 293 990 q 221 974 238 990 q 208 953 213 965 q 204 915 204 940 l 204 647 m 49 1199 l 49 1360 l 232 1360 l 232 1199 l 49 1199 m 299 1199 l 299 1360 l 482 1360 l 482 1199 l 299 1199 z "},"ì":{"ha":211,"x_min":-61,"x_max":204,"o":"m 7 0 l 7 1132 l 204 1132 l 204 0 l 7 0 m 24 1199 l -61 1360 l 161 1360 l 186 1199 l 24 1199 z "},"í":{"ha":211,"x_min":7,"x_max":271,"o":"m 7 0 l 7 1132 l 204 1132 l 204 0 l 7 0 m 24 1199 l 49 1360 l 271 1360 l 186 1199 l 24 1199 z "},"î":{"ha":211,"x_min":-100,"x_max":311,"o":"m 7 0 l 7 1132 l 204 1132 l 204 0 l 7 0 m -100 1199 l -32 1360 l 240 1360 l 311 1199 l 135 1199 l 97 1292 l 60 1199 l -100 1199 z "},"ï":{"ha":211,"x_min":-111,"x_max":322,"o":"m 7 0 l 7 1132 l 204 1132 l 204 0 l 7 0 m -111 1199 l -111 1360 l 72 1360 l 72 1199 l -111 1199 m 139 1199 l 139 1360 l 322 1360 l 322 1199 l 139 1199 z "},"ð":{"ha":531,"x_min":7,"x_max":524,"o":"m 265 -6 q 142 10 189 -6 q 64 57 94 26 q 22 126 38 85 q 7 236 7 168 l 7 881 q 22 991 7 949 q 64 1060 38 1033 q 141 1106 94 1090 q 263 1124 188 1122 l 56 1549 l 218 1628 l 476 1096 q 513 997 501 1044 q 524 894 524 950 l 524 236 q 509 126 524 168 q 467 57 494 85 q 390 10 436 26 q 265 -6 343 -6 m 265 142 q 310 158 293 142 q 322 179 318 167 q 326 217 326 192 l 326 907 q 322 944 326 932 q 310 965 318 957 q 265 982 293 982 q 221 965 238 982 q 208 944 213 957 q 204 907 204 932 l 204 217 q 208 179 204 192 q 221 158 213 167 q 265 142 238 142 m 96 1217 l 43 1322 l 410 1504 l 461 1399 l 96 1217 z "},"ñ":{"ha":531,"x_min":7,"x_max":524,"o":"m 7 0 l 7 1132 l 204 1132 l 204 1082 q 266 1128 229 1114 q 344 1143 303 1143 q 472 1096 425 1143 q 510 1033 497 1071 q 524 929 524 994 l 524 0 l 326 0 l 326 901 q 322 939 326 926 q 310 960 318 951 q 265 976 293 976 q 221 960 238 976 q 208 939 213 951 q 204 901 204 926 l 204 0 l 7 0 m 319 1192 q 276 1197 293 1192 q 244 1213 258 1203 q 208 1228 222 1228 q 187 1219 194 1228 q 179 1196 179 1210 l 74 1196 l 74 1236 q 110 1330 74 1294 q 211 1365 147 1365 q 251 1360 235 1365 q 279 1347 267 1354 q 303 1334 293 1340 q 322 1328 313 1328 q 351 1360 351 1328 l 351 1361 l 457 1361 l 457 1321 q 421 1227 457 1263 q 319 1192 385 1192 z "},"ò":{"ha":531,"x_min":7,"x_max":524,"o":"m 265 -6 q 142 10 189 -6 q 64 57 94 26 q 22 126 38 85 q 7 236 7 168 l 7 896 q 22 1006 7 964 q 64 1075 38 1049 q 142 1122 94 1106 q 265 1138 189 1138 q 390 1122 343 1138 q 467 1075 436 1106 q 509 1006 494 1049 q 524 896 524 964 l 524 236 q 509 126 524 168 q 467 57 494 85 q 390 10 436 26 q 265 -6 343 -6 m 265 142 q 310 158 293 142 q 322 179 318 167 q 326 217 326 192 l 326 915 q 322 953 326 940 q 310 974 318 965 q 265 990 293 990 q 221 974 238 990 q 208 953 213 965 q 204 915 204 940 l 204 217 q 208 179 204 192 q 221 158 213 167 q 265 142 238 142 m 183 1199 l 99 1360 l 321 1360 l 346 1199 l 183 1199 z "},"ó":{"ha":531,"x_min":7,"x_max":524,"o":"m 265 -6 q 142 10 189 -6 q 64 57 94 26 q 22 126 38 85 q 7 236 7 168 l 7 896 q 22 1006 7 964 q 64 1075 38 1049 q 142 1122 94 1106 q 265 1138 189 1138 q 390 1122 343 1138 q 467 1075 436 1106 q 509 1006 494 1049 q 524 896 524 964 l 524 236 q 509 126 524 168 q 467 57 494 85 q 390 10 436 26 q 265 -6 343 -6 m 265 142 q 310 158 293 142 q 322 179 318 167 q 326 217 326 192 l 326 915 q 322 953 326 940 q 310 974 318 965 q 265 990 293 990 q 221 974 238 990 q 208 953 213 965 q 204 915 204 940 l 204 217 q 208 179 204 192 q 221 158 213 167 q 265 142 238 142 m 183 1199 l 208 1360 l 431 1360 l 346 1199 l 183 1199 z "},"ô":{"ha":531,"x_min":7,"x_max":524,"o":"m 265 -6 q 142 10 189 -6 q 64 57 94 26 q 22 126 38 85 q 7 236 7 168 l 7 896 q 22 1006 7 964 q 64 1075 38 1049 q 142 1122 94 1106 q 265 1138 189 1138 q 390 1122 343 1138 q 467 1075 436 1106 q 509 1006 494 1049 q 524 896 524 964 l 524 236 q 509 126 524 168 q 467 57 494 85 q 390 10 436 26 q 265 -6 343 -6 m 265 142 q 310 158 293 142 q 322 179 318 167 q 326 217 326 192 l 326 915 q 322 953 326 940 q 310 974 318 965 q 265 990 293 990 q 221 974 238 990 q 208 953 213 965 q 204 915 204 940 l 204 217 q 208 179 204 192 q 221 158 213 167 q 265 142 238 142 m 60 1199 l 128 1360 l 400 1360 l 471 1199 l 294 1199 l 257 1292 l 219 1199 l 60 1199 z "},"õ":{"ha":531,"x_min":7,"x_max":524,"o":"m 265 -6 q 142 10 189 -6 q 64 57 94 26 q 22 126 38 85 q 7 236 7 168 l 7 896 q 22 1006 7 964 q 64 1075 38 1049 q 142 1122 94 1106 q 265 1138 189 1138 q 390 1122 343 1138 q 467 1075 436 1106 q 509 1006 494 1049 q 524 896 524 964 l 524 236 q 509 126 524 168 q 467 57 494 85 q 390 10 436 26 q 265 -6 343 -6 m 265 142 q 310 158 293 142 q 322 179 318 167 q 326 217 326 192 l 326 915 q 322 953 326 940 q 310 974 318 965 q 265 990 293 990 q 221 974 238 990 q 208 953 213 965 q 204 915 204 940 l 204 217 q 208 179 204 192 q 221 158 213 167 q 265 142 238 142 m 319 1192 q 276 1197 293 1192 q 244 1213 258 1203 q 208 1228 222 1228 q 187 1219 194 1228 q 179 1196 179 1210 l 74 1196 l 74 1236 q 110 1330 74 1294 q 211 1365 147 1365 q 251 1360 235 1365 q 279 1347 267 1354 q 303 1334 293 1340 q 322 1328 313 1328 q 351 1360 351 1328 l 351 1361 l 457 1361 l 457 1321 q 421 1227 457 1263 q 319 1192 385 1192 z "},"ö":{"ha":531,"x_min":7,"x_max":524,"o":"m 265 -6 q 142 10 189 -6 q 64 57 94 26 q 22 126 38 85 q 7 236 7 168 l 7 896 q 22 1006 7 964 q 64 1075 38 1049 q 142 1122 94 1106 q 265 1138 189 1138 q 390 1122 343 1138 q 467 1075 436 1106 q 509 1006 494 1049 q 524 896 524 964 l 524 236 q 509 126 524 168 q 467 57 494 85 q 390 10 436 26 q 265 -6 343 -6 m 265 142 q 310 158 293 142 q 322 179 318 167 q 326 217 326 192 l 326 915 q 322 953 326 940 q 310 974 318 965 q 265 990 293 990 q 221 974 238 990 q 208 953 213 965 q 204 915 204 940 l 204 217 q 208 179 204 192 q 221 158 213 167 q 265 142 238 142 m 49 1199 l 49 1360 l 232 1360 l 232 1199 l 49 1199 m 299 1199 l 299 1360 l 482 1360 l 482 1199 l 299 1199 z "},"÷":{"ha":614,"x_min":7,"x_max":607,"o":"m 7 688 l 7 843 l 607 843 l 607 688 l 7 688 m 217 461 l 217 640 l 400 640 l 400 461 l 217 461 m 217 890 l 217 1069 l 400 1069 l 400 890 l 217 890 z "},"ø":{"ha":531,"x_min":7,"x_max":524,"o":"m 176 -58 l 31 -21 l 54 67 q 19 134 32 93 q 7 236 7 175 l 7 896 q 22 1006 7 964 q 64 1075 36 1049 q 142 1122 94 1106 q 265 1138 189 1138 q 305 1136 286 1138 q 340 1132 324 1135 l 356 1190 l 500 1154 l 476 1065 q 512 998 500 1039 q 524 896 524 957 l 524 236 q 509 126 524 168 q 467 57 494 83 q 389 10 436 26 q 265 -6 342 -6 q 226 -4 244 -6 q 192 -1 208 -3 l 176 -58 m 204 564 l 313 971 q 291 986 303 982 q 265 990 279 990 q 221 974 238 990 q 208 953 213 965 q 204 915 204 940 l 204 564 m 265 142 q 310 158 293 142 q 322 179 318 167 q 326 217 326 192 l 326 567 l 218 161 q 240 147 228 151 q 265 142 251 142 z "},"ù":{"ha":531,"x_min":7,"x_max":524,"o":"m 186 -11 q 58 36 106 -11 q 20 100 33 61 q 7 203 7 139 l 7 1132 l 204 1132 l 204 231 q 208 193 204 206 q 221 172 213 181 q 265 156 238 156 q 310 172 293 156 q 322 193 318 181 q 326 231 326 206 l 326 1132 l 524 1132 l 524 0 l 326 0 l 326 50 q 265 4 301 19 q 186 -11 228 -11 m 183 1199 l 99 1360 l 321 1360 l 346 1199 l 183 1199 z "},"ú":{"ha":531,"x_min":7,"x_max":524,"o":"m 186 -11 q 58 36 106 -11 q 20 100 33 61 q 7 203 7 139 l 7 1132 l 204 1132 l 204 231 q 208 193 204 206 q 221 172 213 181 q 265 156 238 156 q 310 172 293 156 q 322 193 318 181 q 326 231 326 206 l 326 1132 l 524 1132 l 524 0 l 326 0 l 326 50 q 265 4 301 19 q 186 -11 228 -11 m 183 1199 l 208 1360 l 431 1360 l 346 1199 l 183 1199 z "},"û":{"ha":531,"x_min":7,"x_max":524,"o":"m 186 -11 q 58 36 106 -11 q 20 100 33 61 q 7 203 7 139 l 7 1132 l 204 1132 l 204 231 q 208 193 204 206 q 221 172 213 181 q 265 156 238 156 q 310 172 293 156 q 322 193 318 181 q 326 231 326 206 l 326 1132 l 524 1132 l 524 0 l 326 0 l 326 50 q 265 4 301 19 q 186 -11 228 -11 m 60 1199 l 128 1360 l 400 1360 l 471 1199 l 294 1199 l 257 1292 l 219 1199 l 60 1199 z "},"ü":{"ha":531,"x_min":7,"x_max":524,"o":"m 186 -11 q 58 36 106 -11 q 20 100 33 61 q 7 203 7 139 l 7 1132 l 204 1132 l 204 231 q 208 193 204 206 q 221 172 213 181 q 265 156 238 156 q 310 172 293 156 q 322 193 318 181 q 326 231 326 206 l 326 1132 l 524 1132 l 524 0 l 326 0 l 326 50 q 265 4 301 19 q 186 -11 228 -11 m 49 1199 l 49 1360 l 232 1360 l 232 1199 l 49 1199 m 299 1199 l 299 1360 l 482 1360 l 482 1199 l 299 1199 z "},"ý":{"ha":625,"x_min":0,"x_max":625,"o":"m 156 -228 l 222 58 l 0 1132 l 203 1132 l 318 518 l 438 1132 l 625 1132 l 344 -228 l 156 -228 m 231 1199 l 256 1360 l 478 1360 l 393 1199 l 231 1199 z "},"þ":{"ha":531,"x_min":7,"x_max":524,"o":"m 7 -228 l 7 1586 l 204 1586 l 204 1081 q 264 1128 228 1113 q 344 1143 300 1143 q 472 1096 425 1143 q 510 1032 497 1071 q 524 929 524 993 l 524 203 q 510 100 524 139 q 472 36 497 61 q 344 -11 425 -11 q 263 4 299 -11 q 204 50 228 19 l 204 -228 l 7 -228 m 265 156 q 310 172 293 156 q 322 193 318 181 q 326 231 326 206 l 326 901 q 322 939 326 926 q 310 960 318 951 q 265 976 293 976 q 221 960 238 976 q 208 939 213 951 q 204 901 204 926 l 204 231 q 208 193 204 206 q 221 172 213 181 q 265 156 238 156 z "},"ÿ":{"ha":625,"x_min":0,"x_max":625,"o":"m 156 -228 l 222 58 l 0 1132 l 203 1132 l 318 518 l 438 1132 l 625 1132 l 344 -228 l 156 -228 m 96 1199 l 96 1360 l 279 1360 l 279 1199 l 96 1199 m 346 1199 l 346 1360 l 529 1360 l 529 1199 l 346 1199 z "},"Ā":{"ha":647,"x_min":0,"x_max":647,"o":"m 0 0 l 151 1586 l 497 1586 l 647 0 l 422 0 l 403 253 l 232 253 l 213 0 l 0 0 m 247 436 l 388 436 l 317 1329 l 247 436 m 126 1639 l 126 1781 l 521 1781 l 521 1639 l 126 1639 z "},"ā":{"ha":531,"x_min":7,"x_max":524,"o":"m 185 -11 q 53 41 100 -11 q 7 190 7 93 l 7 421 q 22 509 7 472 q 71 576 38 546 l 264 756 q 304 804 290 781 q 324 853 318 828 q 329 907 329 878 q 315 971 329 951 q 269 990 301 990 q 224 972 239 990 q 210 918 210 954 l 210 725 l 15 725 l 15 899 q 80 1083 15 1028 q 269 1138 144 1138 q 463 1080 401 1138 q 524 899 524 1022 l 524 0 l 326 0 l 326 50 q 185 -11 278 -11 m 265 142 q 326 208 326 142 l 326 579 q 318 569 322 574 q 310 561 314 565 l 231 483 q 211 453 218 471 q 204 414 204 436 l 204 208 q 265 142 204 142 m 68 1199 l 68 1340 l 463 1340 l 463 1199 l 68 1199 z "},"Ă":{"ha":647,"x_min":0,"x_max":647,"o":"m 0 0 l 151 1586 l 497 1586 l 647 0 l 422 0 l 403 253 l 232 253 l 213 0 l 0 0 m 247 436 l 388 436 l 317 1329 l 247 436 m 324 1633 q 172 1672 226 1633 q 117 1783 118 1711 l 276 1783 q 324 1746 279 1746 q 371 1783 368 1746 l 531 1783 q 474 1672 529 1710 q 324 1633 418 1633 z "},"ă":{"ha":531,"x_min":7,"x_max":524,"o":"m 185 -11 q 53 41 100 -11 q 7 190 7 93 l 7 421 q 22 509 7 472 q 71 576 38 546 l 264 756 q 304 804 290 781 q 324 853 318 828 q 329 907 329 878 q 315 971 329 951 q 269 990 301 990 q 224 972 239 990 q 210 918 210 954 l 210 725 l 15 725 l 15 899 q 80 1083 15 1028 q 269 1138 144 1138 q 463 1080 401 1138 q 524 899 524 1022 l 524 0 l 326 0 l 326 50 q 185 -11 278 -11 m 265 142 q 326 208 326 142 l 326 579 q 318 569 322 574 q 310 561 314 565 l 231 483 q 211 453 218 471 q 204 414 204 436 l 204 208 q 265 142 204 142 m 265 1193 q 119 1236 172 1193 q 65 1360 67 1279 l 218 1360 q 265 1315 221 1315 q 313 1360 310 1315 l 465 1360 q 410 1235 464 1278 q 265 1193 357 1193 z "},"Ą":{"ha":647,"x_min":0,"x_max":647,"o":"m 0 0 l 151 1586 l 497 1586 l 647 0 l 422 0 l 403 253 l 232 253 l 213 0 l 0 0 m 247 436 l 388 436 l 317 1329 l 247 436 m 579 -242 q 481 -210 524 -242 q 439 -114 439 -179 q 481 -23 439 -61 q 582 36 522 15 l 647 0 q 601 -32 617 -12 q 586 -71 586 -51 q 633 -119 586 -119 l 647 -119 l 647 -242 l 579 -242 z "},"ą":{"ha":531,"x_min":7,"x_max":524,"o":"m 185 -11 q 53 41 100 -11 q 7 190 7 93 l 7 421 q 22 509 7 472 q 71 576 38 546 l 264 756 q 304 804 290 781 q 324 853 318 828 q 329 907 329 878 q 315 971 329 951 q 269 990 301 990 q 224 972 239 990 q 210 918 210 954 l 210 725 l 15 725 l 15 899 q 80 1083 15 1028 q 269 1138 144 1138 q 463 1080 401 1138 q 524 899 524 1022 l 524 0 l 326 0 l 326 50 q 185 -11 278 -11 m 265 142 q 326 208 326 142 l 326 579 q 318 569 322 574 q 310 561 314 565 l 231 483 q 211 453 218 471 q 204 414 204 436 l 204 208 q 265 142 204 142 m 453 -242 q 362 -210 401 -242 q 322 -114 322 -179 q 362 -23 322 -61 q 458 36 401 15 l 524 0 q 478 -32 493 -12 q 463 -71 463 -51 q 510 -119 463 -119 l 524 -119 l 524 -242 l 453 -242 z "},"Ć":{"ha":614,"x_min":7,"x_max":607,"o":"m 307 -6 q 165 14 221 -6 q 72 68 108 33 q 24 146 42 100 q 7 264 7 192 l 7 1322 q 24 1441 7 1394 q 72 1518 42 1488 q 165 1573 108 1554 q 307 1592 221 1592 q 450 1573 393 1592 q 542 1518 507 1554 q 590 1441 574 1488 q 607 1322 607 1394 l 607 1025 l 382 1025 l 382 1346 q 376 1390 382 1374 q 363 1414 371 1406 q 339 1429 353 1424 q 307 1435 325 1435 q 251 1414 272 1435 q 238 1390 243 1406 q 232 1346 232 1374 l 232 240 q 238 197 232 213 q 251 172 243 181 q 275 157 261 163 q 307 151 289 151 q 363 172 342 151 q 376 197 371 181 q 382 240 382 213 l 382 594 l 607 594 l 607 264 q 590 146 607 192 q 542 68 574 100 q 450 14 507 33 q 307 -6 393 -6 m 218 1639 l 243 1778 l 479 1778 l 394 1639 l 218 1639 z "},"ć":{"ha":531,"x_min":7,"x_max":524,"o":"m 265 -6 q 142 10 189 -6 q 64 57 94 26 q 22 126 38 85 q 7 236 7 168 l 7 896 q 22 1006 7 964 q 64 1075 38 1049 q 142 1122 94 1106 q 265 1138 189 1138 q 389 1122 342 1138 q 467 1075 436 1106 q 509 1006 494 1049 q 524 896 524 964 l 524 725 l 326 725 l 326 915 q 322 953 326 940 q 310 974 318 965 q 265 990 293 990 q 221 974 238 990 q 208 953 213 965 q 204 915 204 940 l 204 217 q 208 179 204 192 q 221 158 213 167 q 265 142 238 142 q 310 158 293 142 q 322 179 318 167 q 326 217 326 192 l 326 429 l 524 429 l 524 236 q 509 126 524 168 q 467 57 494 85 q 389 10 436 26 q 265 -6 342 -6 m 183 1199 l 208 1360 l 431 1360 l 346 1199 l 183 1199 z "},"Ĉ":{"ha":614,"x_min":7,"x_max":607,"o":"m 307 -6 q 165 14 221 -6 q 72 68 108 33 q 24 146 42 100 q 7 264 7 192 l 7 1322 q 24 1441 7 1394 q 72 1518 42 1488 q 165 1573 108 1554 q 307 1592 221 1592 q 450 1573 393 1592 q 542 1518 507 1554 q 590 1441 574 1488 q 607 1322 607 1394 l 607 1025 l 382 1025 l 382 1346 q 376 1390 382 1374 q 363 1414 371 1406 q 339 1429 353 1424 q 307 1435 325 1435 q 251 1414 272 1435 q 238 1390 243 1406 q 232 1346 232 1374 l 232 240 q 238 197 232 213 q 251 172 243 181 q 275 157 261 163 q 307 151 289 151 q 363 172 342 151 q 376 197 371 181 q 382 240 382 213 l 382 594 l 607 594 l 607 264 q 590 146 607 192 q 542 68 574 100 q 450 14 507 33 q 307 -6 393 -6 m 94 1639 l 163 1783 l 449 1783 l 519 1639 l 342 1639 l 304 1724 l 267 1639 l 94 1639 z "},"ĉ":{"ha":531,"x_min":7,"x_max":524,"o":"m 265 -6 q 142 10 189 -6 q 64 57 94 26 q 22 126 38 85 q 7 236 7 168 l 7 896 q 22 1006 7 964 q 64 1075 38 1049 q 142 1122 94 1106 q 265 1138 189 1138 q 389 1122 342 1138 q 467 1075 436 1106 q 509 1006 494 1049 q 524 896 524 964 l 524 725 l 326 725 l 326 915 q 322 953 326 940 q 310 974 318 965 q 265 990 293 990 q 221 974 238 990 q 208 953 213 965 q 204 915 204 940 l 204 217 q 208 179 204 192 q 221 158 213 167 q 265 142 238 142 q 310 158 293 142 q 322 179 318 167 q 326 217 326 192 l 326 429 l 524 429 l 524 236 q 509 126 524 168 q 467 57 494 85 q 389 10 436 26 q 265 -6 342 -6 m 60 1199 l 128 1360 l 400 1360 l 471 1199 l 294 1199 l 257 1292 l 219 1199 l 60 1199 z "},"Ċ":{"ha":614,"x_min":7,"x_max":607,"o":"m 307 -6 q 165 14 221 -6 q 72 68 108 33 q 24 146 42 100 q 7 264 7 192 l 7 1322 q 24 1441 7 1394 q 72 1518 42 1488 q 165 1573 108 1554 q 307 1592 221 1592 q 450 1573 393 1592 q 542 1518 507 1554 q 590 1441 574 1488 q 607 1322 607 1394 l 607 1025 l 382 1025 l 382 1346 q 376 1390 382 1374 q 363 1414 371 1406 q 339 1429 353 1424 q 307 1435 325 1435 q 251 1414 272 1435 q 238 1390 243 1406 q 232 1346 232 1374 l 232 240 q 238 197 232 213 q 251 172 243 181 q 275 157 261 163 q 307 151 289 151 q 363 172 342 151 q 376 197 371 181 q 382 240 382 213 l 382 594 l 607 594 l 607 264 q 590 146 607 192 q 542 68 574 100 q 450 14 507 33 q 307 -6 393 -6 m 201 1639 l 201 1783 l 413 1783 l 413 1639 l 201 1639 z "},"ċ":{"ha":531,"x_min":7,"x_max":524,"o":"m 265 -6 q 142 10 189 -6 q 64 57 94 26 q 22 126 38 85 q 7 236 7 168 l 7 896 q 22 1006 7 964 q 64 1075 38 1049 q 142 1122 94 1106 q 265 1138 189 1138 q 389 1122 342 1138 q 467 1075 436 1106 q 509 1006 494 1049 q 524 896 524 964 l 524 725 l 326 725 l 326 915 q 322 953 326 940 q 310 974 318 965 q 265 990 293 990 q 221 974 238 990 q 208 953 213 965 q 204 915 204 940 l 204 217 q 208 179 204 192 q 221 158 213 167 q 265 142 238 142 q 310 158 293 142 q 322 179 318 167 q 326 217 326 192 l 326 429 l 524 429 l 524 236 q 509 126 524 168 q 467 57 494 85 q 389 10 436 26 q 265 -6 342 -6 m 167 1199 l 167 1360 l 364 1360 l 364 1199 l 167 1199 z "},"Č":{"ha":614,"x_min":7,"x_max":607,"o":"m 307 -6 q 165 14 221 -6 q 72 68 108 33 q 24 146 42 100 q 7 264 7 192 l 7 1322 q 24 1441 7 1394 q 72 1518 42 1488 q 165 1573 108 1554 q 307 1592 221 1592 q 450 1573 393 1592 q 542 1518 507 1554 q 590 1441 574 1488 q 607 1322 607 1394 l 607 1025 l 382 1025 l 382 1346 q 376 1390 382 1374 q 363 1414 371 1406 q 339 1429 353 1424 q 307 1435 325 1435 q 251 1414 272 1435 q 238 1390 243 1406 q 232 1346 232 1374 l 232 240 q 238 197 232 213 q 251 172 243 181 q 275 157 261 163 q 307 151 289 151 q 363 172 342 151 q 376 197 371 181 q 382 240 382 213 l 382 594 l 607 594 l 607 264 q 590 146 607 192 q 542 68 574 100 q 450 14 507 33 q 307 -6 393 -6 m 165 1639 l 94 1783 l 274 1783 l 311 1699 l 349 1783 l 519 1783 l 451 1639 l 165 1639 z "},"č":{"ha":531,"x_min":7,"x_max":524,"o":"m 265 -6 q 142 10 189 -6 q 64 57 94 26 q 22 126 38 85 q 7 236 7 168 l 7 896 q 22 1006 7 964 q 64 1075 38 1049 q 142 1122 94 1106 q 265 1138 189 1138 q 389 1122 342 1138 q 467 1075 436 1106 q 509 1006 494 1049 q 524 896 524 964 l 524 725 l 326 725 l 326 915 q 322 953 326 940 q 310 974 318 965 q 265 990 293 990 q 221 974 238 990 q 208 953 213 965 q 204 915 204 940 l 204 217 q 208 179 204 192 q 221 158 213 167 q 265 142 238 142 q 310 158 293 142 q 322 179 318 167 q 326 217 326 192 l 326 429 l 524 429 l 524 236 q 509 126 524 168 q 467 57 494 85 q 389 10 436 26 q 265 -6 342 -6 m 131 1199 l 60 1360 l 236 1360 l 274 1267 l 311 1360 l 471 1360 l 403 1199 l 131 1199 z "},"Ď":{"ha":614,"x_min":7,"x_max":607,"o":"m 7 0 l 7 1586 l 350 1586 q 469 1570 424 1586 q 544 1524 514 1554 q 591 1447 575 1493 q 607 1329 607 1401 l 607 257 q 591 139 607 185 q 544 63 575 93 q 468 16 514 32 q 350 0 422 0 l 7 0 m 233 183 l 294 183 q 364 204 346 183 q 378 233 372 214 q 383 283 383 251 l 383 1314 q 378 1358 383 1342 q 364 1382 372 1374 q 338 1397 354 1392 q 294 1403 322 1403 l 233 1403 l 233 183 m 165 1639 l 94 1783 l 274 1783 l 311 1699 l 349 1783 l 519 1783 l 451 1639 l 165 1639 z "},"ď":{"ha":531,"x_min":7,"x_max":751,"o":"m 186 -11 q 58 36 106 -11 q 20 100 33 61 q 7 203 7 139 l 7 929 q 20 1032 7 993 q 58 1096 33 1071 q 186 1143 106 1143 q 326 1082 278 1143 l 326 1586 l 524 1586 l 524 0 l 326 0 l 326 51 q 267 4 303 19 q 186 -11 231 -11 m 265 156 q 310 172 293 156 q 322 193 318 181 q 326 231 326 206 l 326 901 q 322 939 326 926 q 310 960 318 951 q 265 976 293 976 q 221 960 238 976 q 208 939 213 951 q 204 901 204 926 l 204 231 q 208 193 204 206 q 221 172 213 181 q 265 156 238 156 m 538 1392 l 538 1586 l 751 1586 l 700 1392 l 538 1392 z "},"Đ":{"ha":681,"x_min":7,"x_max":674,"o":"m 74 0 l 74 1586 l 417 1586 q 535 1570 490 1586 q 611 1524 581 1554 q 658 1447 642 1493 q 674 1329 674 1401 l 674 257 q 658 139 674 185 q 611 63 642 93 q 535 16 581 32 q 417 0 490 0 l 74 0 m 7 715 l 7 871 l 400 871 l 400 715 l 7 715 m 300 183 l 361 183 q 431 204 414 183 q 444 233 439 214 q 450 283 450 251 l 450 1314 q 444 1358 450 1342 q 431 1382 439 1374 q 405 1397 421 1392 q 361 1403 389 1403 l 300 1403 l 300 183 z "},"đ":{"ha":531,"x_min":7,"x_max":590,"o":"m 186 -11 q 58 36 106 -11 q 20 100 33 61 q 7 203 7 139 l 7 901 q 20 1005 7 967 q 58 1068 33 1043 q 186 1115 106 1115 q 267 1100 231 1115 q 326 1054 303 1085 l 326 1279 l 232 1279 l 232 1435 l 326 1435 l 326 1586 l 524 1586 l 524 1435 l 590 1435 l 590 1279 l 524 1279 l 524 0 l 326 0 l 326 51 q 267 5 304 21 q 186 -11 231 -11 m 265 156 q 310 172 293 156 q 322 193 318 181 q 326 231 326 206 l 326 874 q 322 911 326 899 q 310 932 318 924 q 265 949 293 949 q 221 932 238 949 q 208 911 213 924 q 204 874 204 899 l 204 231 q 208 193 204 206 q 221 172 213 181 q 265 156 238 156 z "},"Ē":{"ha":522,"x_min":7,"x_max":515,"o":"m 7 0 l 7 1586 l 515 1586 l 515 1403 l 232 1403 l 232 910 l 515 910 l 515 726 l 232 726 l 232 183 l 515 183 l 515 0 l 7 0 m 64 1639 l 64 1781 l 458 1781 l 458 1639 l 64 1639 z "},"ē":{"ha":531,"x_min":7,"x_max":524,"o":"m 265 -6 q 142 10 189 -6 q 64 57 94 26 q 22 126 38 85 q 7 236 7 168 l 7 896 q 22 1006 7 964 q 64 1075 38 1049 q 142 1122 94 1106 q 265 1138 189 1138 q 389 1122 342 1138 q 467 1075 436 1106 q 509 1006 494 1049 q 524 896 524 964 l 524 497 l 204 497 l 204 217 q 208 179 204 192 q 221 158 213 167 q 265 142 238 142 q 310 158 293 142 q 322 179 318 167 q 326 217 326 192 l 326 429 l 524 429 l 524 236 q 509 126 524 168 q 467 57 494 85 q 389 10 436 26 q 265 -6 342 -6 m 204 647 l 326 647 l 326 915 q 322 953 326 940 q 310 974 318 965 q 265 990 293 990 q 221 974 238 990 q 208 953 213 965 q 204 915 204 940 l 204 647 m 68 1199 l 68 1340 l 463 1340 l 463 1199 l 68 1199 z "},"Ĕ":{"ha":522,"x_min":7,"x_max":515,"o":"m 7 0 l 7 1586 l 515 1586 l 515 1403 l 232 1403 l 232 910 l 515 910 l 515 726 l 232 726 l 232 183 l 515 183 l 515 0 l 7 0 m 261 1633 q 110 1672 164 1633 q 54 1783 56 1711 l 214 1783 q 261 1746 217 1746 q 308 1783 306 1746 l 468 1783 q 411 1672 467 1710 q 261 1633 356 1633 z "},"ĕ":{"ha":531,"x_min":7,"x_max":524,"o":"m 265 -6 q 142 10 189 -6 q 64 57 94 26 q 22 126 38 85 q 7 236 7 168 l 7 896 q 22 1006 7 964 q 64 1075 38 1049 q 142 1122 94 1106 q 265 1138 189 1138 q 389 1122 342 1138 q 467 1075 436 1106 q 509 1006 494 1049 q 524 896 524 964 l 524 497 l 204 497 l 204 217 q 208 179 204 192 q 221 158 213 167 q 265 142 238 142 q 310 158 293 142 q 322 179 318 167 q 326 217 326 192 l 326 429 l 524 429 l 524 236 q 509 126 524 168 q 467 57 494 85 q 389 10 436 26 q 265 -6 342 -6 m 204 647 l 326 647 l 326 915 q 322 953 326 940 q 310 974 318 965 q 265 990 293 990 q 221 974 238 990 q 208 953 213 965 q 204 915 204 940 l 204 647 m 265 1193 q 119 1236 172 1193 q 65 1360 67 1279 l 218 1360 q 265 1315 221 1315 q 313 1360 310 1315 l 465 1360 q 410 1235 464 1278 q 265 1193 357 1193 z "},"Ė":{"ha":522,"x_min":7,"x_max":515,"o":"m 7 0 l 7 1586 l 515 1586 l 515 1403 l 232 1403 l 232 910 l 515 910 l 515 726 l 232 726 l 232 183 l 515 183 l 515 0 l 7 0 m 156 1639 l 156 1783 l 367 1783 l 367 1639 l 156 1639 z "},"ė":{"ha":531,"x_min":7,"x_max":524,"o":"m 265 -6 q 142 10 189 -6 q 64 57 94 26 q 22 126 38 85 q 7 236 7 168 l 7 896 q 22 1006 7 964 q 64 1075 38 1049 q 142 1122 94 1106 q 265 1138 189 1138 q 389 1122 342 1138 q 467 1075 436 1106 q 509 1006 494 1049 q 524 896 524 964 l 524 497 l 204 497 l 204 217 q 208 179 204 192 q 221 158 213 167 q 265 142 238 142 q 310 158 293 142 q 322 179 318 167 q 326 217 326 192 l 326 429 l 524 429 l 524 236 q 509 126 524 168 q 467 57 494 85 q 389 10 436 26 q 265 -6 342 -6 m 204 647 l 326 647 l 326 915 q 322 953 326 940 q 310 974 318 965 q 265 990 293 990 q 221 974 238 990 q 208 953 213 965 q 204 915 204 940 l 204 647 m 167 1199 l 167 1360 l 364 1360 l 364 1199 l 167 1199 z "},"Ę":{"ha":522,"x_min":7,"x_max":515,"o":"m 7 0 l 7 1586 l 515 1586 l 515 1403 l 232 1403 l 232 910 l 515 910 l 515 726 l 232 726 l 232 183 l 515 183 l 515 0 l 7 0 m 447 -242 q 349 -210 392 -242 q 307 -114 307 -179 q 349 -23 307 -61 q 450 36 390 15 l 515 0 q 469 -32 485 -12 q 454 -71 454 -51 q 501 -119 454 -119 l 515 -119 l 515 -242 l 447 -242 z "},"ę":{"ha":531,"x_min":7,"x_max":524,"o":"m 265 -6 q 142 10 189 -6 q 64 57 94 26 q 22 126 38 85 q 7 236 7 168 l 7 896 q 22 1006 7 964 q 64 1075 38 1049 q 142 1122 94 1106 q 265 1138 189 1138 q 389 1122 342 1138 q 467 1075 436 1106 q 509 1006 494 1049 q 524 896 524 964 l 524 497 l 204 497 l 204 217 q 208 179 204 192 q 221 158 213 167 q 265 142 238 142 q 310 158 293 142 q 322 179 318 167 q 326 217 326 192 l 326 429 l 524 429 l 524 236 q 509 126 524 168 q 467 57 494 85 q 389 10 436 26 q 265 -6 342 -6 m 204 647 l 326 647 l 326 915 q 322 953 326 940 q 310 974 318 965 q 265 990 293 990 q 221 974 238 990 q 208 953 213 965 q 204 915 204 940 l 204 647 m 328 -226 q 237 -195 276 -226 q 197 -99 197 -164 q 237 -8 197 -46 q 333 51 276 31 l 399 15 q 353 -17 368 3 q 338 -56 338 -36 q 385 -104 338 -104 l 399 -104 l 399 -226 l 328 -226 z "},"Ě":{"ha":522,"x_min":7,"x_max":515,"o":"m 7 0 l 7 1586 l 515 1586 l 515 1403 l 232 1403 l 232 910 l 515 910 l 515 726 l 232 726 l 232 183 l 515 183 l 515 0 l 7 0 m 119 1639 l 49 1783 l 228 1783 l 265 1699 l 303 1783 l 474 1783 l 406 1639 l 119 1639 z "},"ě":{"ha":531,"x_min":7,"x_max":524,"o":"m 265 -6 q 142 10 189 -6 q 64 57 94 26 q 22 126 38 85 q 7 236 7 168 l 7 896 q 22 1006 7 964 q 64 1075 38 1049 q 142 1122 94 1106 q 265 1138 189 1138 q 389 1122 342 1138 q 467 1075 436 1106 q 509 1006 494 1049 q 524 896 524 964 l 524 497 l 204 497 l 204 217 q 208 179 204 192 q 221 158 213 167 q 265 142 238 142 q 310 158 293 142 q 322 179 318 167 q 326 217 326 192 l 326 429 l 524 429 l 524 236 q 509 126 524 168 q 467 57 494 85 q 389 10 436 26 q 265 -6 342 -6 m 204 647 l 326 647 l 326 915 q 322 953 326 940 q 310 974 318 965 q 265 990 293 990 q 221 974 238 990 q 208 953 213 965 q 204 915 204 940 l 204 647 m 131 1199 l 60 1360 l 236 1360 l 274 1267 l 311 1360 l 471 1360 l 403 1199 l 131 1199 z "},"Ĝ":{"ha":614,"x_min":7,"x_max":607,"o":"m 217 -11 q 128 3 165 -11 q 63 43 90 17 q 22 110 36 69 q 7 217 7 151 l 7 1322 q 24 1441 7 1394 q 72 1518 42 1488 q 165 1573 108 1554 q 307 1592 221 1592 q 450 1573 393 1592 q 542 1518 507 1554 q 590 1441 574 1488 q 607 1322 607 1394 l 607 1025 l 382 1025 l 382 1346 q 376 1390 382 1374 q 363 1414 371 1406 q 307 1435 342 1435 q 251 1414 272 1435 q 238 1390 243 1406 q 232 1346 232 1374 l 232 249 q 238 205 232 221 q 251 181 243 189 q 275 165 261 171 q 307 160 289 160 q 363 181 342 160 q 376 205 371 189 q 382 249 382 221 l 382 699 l 296 699 l 296 871 l 607 871 l 607 0 l 382 0 l 382 56 q 308 5 351 21 q 217 -11 265 -11 m 94 1639 l 163 1783 l 449 1783 l 519 1639 l 342 1639 l 304 1724 l 267 1639 l 94 1639 z "},"ĝ":{"ha":531,"x_min":7,"x_max":524,"o":"m 265 -233 q 142 -217 189 -233 q 64 -171 94 -201 q 22 -105 38 -144 q 7 -6 7 -65 l 7 0 l 204 0 l 204 -11 q 208 -49 204 -36 q 221 -69 213 -61 q 265 -86 238 -86 q 310 -69 293 -86 q 322 -49 318 -61 q 326 -11 326 -36 l 326 107 q 266 60 303 75 q 186 44 229 44 q 58 92 106 44 q 20 156 33 117 q 7 258 7 194 l 7 929 q 20 1032 7 993 q 58 1096 33 1071 q 186 1143 106 1143 q 326 1082 278 1143 l 326 1132 l 524 1132 l 524 8 q 509 -101 524 -60 q 467 -171 494 -143 q 389 -217 436 -201 q 265 -233 342 -233 m 265 211 q 310 228 293 211 q 322 249 318 236 q 326 286 326 261 l 326 901 q 322 939 326 926 q 310 960 318 951 q 265 976 293 976 q 221 960 238 976 q 208 939 213 951 q 204 901 204 926 l 204 286 q 208 249 204 261 q 221 228 213 236 q 265 211 238 211 m 60 1199 l 128 1360 l 400 1360 l 471 1199 l 294 1199 l 257 1292 l 219 1199 l 60 1199 z "},"Ğ":{"ha":614,"x_min":7,"x_max":607,"o":"m 217 -11 q 128 3 165 -11 q 63 43 90 17 q 22 110 36 69 q 7 217 7 151 l 7 1322 q 24 1441 7 1394 q 72 1518 42 1488 q 165 1573 108 1554 q 307 1592 221 1592 q 450 1573 393 1592 q 542 1518 507 1554 q 590 1441 574 1488 q 607 1322 607 1394 l 607 1025 l 382 1025 l 382 1346 q 376 1390 382 1374 q 363 1414 371 1406 q 307 1435 342 1435 q 251 1414 272 1435 q 238 1390 243 1406 q 232 1346 232 1374 l 232 249 q 238 205 232 221 q 251 181 243 189 q 275 165 261 171 q 307 160 289 160 q 363 181 342 160 q 376 205 371 189 q 382 249 382 221 l 382 699 l 296 699 l 296 871 l 607 871 l 607 0 l 382 0 l 382 56 q 308 5 351 21 q 217 -11 265 -11 m 307 1633 q 156 1672 210 1633 q 100 1783 101 1711 l 260 1783 q 307 1746 263 1746 q 354 1783 351 1746 l 514 1783 q 457 1672 513 1710 q 307 1633 401 1633 z "},"ğ":{"ha":531,"x_min":7,"x_max":524,"o":"m 265 -233 q 142 -217 189 -233 q 64 -171 94 -201 q 22 -105 38 -144 q 7 -6 7 -65 l 7 0 l 204 0 l 204 -11 q 208 -49 204 -36 q 221 -69 213 -61 q 265 -86 238 -86 q 310 -69 293 -86 q 322 -49 318 -61 q 326 -11 326 -36 l 326 107 q 266 60 303 75 q 186 44 229 44 q 58 92 106 44 q 20 156 33 117 q 7 258 7 194 l 7 929 q 20 1032 7 993 q 58 1096 33 1071 q 186 1143 106 1143 q 326 1082 278 1143 l 326 1132 l 524 1132 l 524 8 q 509 -101 524 -60 q 467 -171 494 -143 q 389 -217 436 -201 q 265 -233 342 -233 m 265 211 q 310 228 293 211 q 322 249 318 236 q 326 286 326 261 l 326 901 q 322 939 326 926 q 310 960 318 951 q 265 976 293 976 q 221 960 238 976 q 208 939 213 951 q 204 901 204 926 l 204 286 q 208 249 204 261 q 221 228 213 236 q 265 211 238 211 m 265 1193 q 119 1236 172 1193 q 65 1360 67 1279 l 218 1360 q 265 1315 221 1315 q 313 1360 310 1315 l 465 1360 q 410 1235 464 1278 q 265 1193 357 1193 z "},"Ġ":{"ha":614,"x_min":7,"x_max":607,"o":"m 217 -11 q 128 3 165 -11 q 63 43 90 17 q 22 110 36 69 q 7 217 7 151 l 7 1322 q 24 1441 7 1394 q 72 1518 42 1488 q 165 1573 108 1554 q 307 1592 221 1592 q 450 1573 393 1592 q 542 1518 507 1554 q 590 1441 574 1488 q 607 1322 607 1394 l 607 1025 l 382 1025 l 382 1346 q 376 1390 382 1374 q 363 1414 371 1406 q 307 1435 342 1435 q 251 1414 272 1435 q 238 1390 243 1406 q 232 1346 232 1374 l 232 249 q 238 205 232 221 q 251 181 243 189 q 275 165 261 171 q 307 160 289 160 q 363 181 342 160 q 376 205 371 189 q 382 249 382 221 l 382 699 l 296 699 l 296 871 l 607 871 l 607 0 l 382 0 l 382 56 q 308 5 351 21 q 217 -11 265 -11 m 201 1639 l 201 1783 l 413 1783 l 413 1639 l 201 1639 z "},"ġ":{"ha":531,"x_min":7,"x_max":524,"o":"m 265 -233 q 142 -217 189 -233 q 64 -171 94 -201 q 22 -105 38 -144 q 7 -6 7 -65 l 7 0 l 204 0 l 204 -11 q 208 -49 204 -36 q 221 -69 213 -61 q 265 -86 238 -86 q 310 -69 293 -86 q 322 -49 318 -61 q 326 -11 326 -36 l 326 107 q 266 60 303 75 q 186 44 229 44 q 58 92 106 44 q 20 156 33 117 q 7 258 7 194 l 7 929 q 20 1032 7 993 q 58 1096 33 1071 q 186 1143 106 1143 q 326 1082 278 1143 l 326 1132 l 524 1132 l 524 8 q 509 -101 524 -60 q 467 -171 494 -143 q 389 -217 436 -201 q 265 -233 342 -233 m 265 211 q 310 228 293 211 q 322 249 318 236 q 326 286 326 261 l 326 901 q 322 939 326 926 q 310 960 318 951 q 265 976 293 976 q 221 960 238 976 q 208 939 213 951 q 204 901 204 926 l 204 286 q 208 249 204 261 q 221 228 213 236 q 265 211 238 211 m 167 1199 l 167 1360 l 364 1360 l 364 1199 l 167 1199 z "},"Ģ":{"ha":614,"x_min":7,"x_max":607,"o":"m 217 -11 q 128 3 165 -11 q 63 43 90 17 q 22 110 36 69 q 7 217 7 151 l 7 1322 q 24 1441 7 1394 q 72 1518 42 1488 q 165 1573 108 1554 q 307 1592 221 1592 q 450 1573 393 1592 q 542 1518 507 1554 q 590 1441 574 1488 q 607 1322 607 1394 l 607 1025 l 382 1025 l 382 1346 q 376 1390 382 1374 q 363 1414 371 1406 q 307 1435 342 1435 q 251 1414 272 1435 q 238 1390 243 1406 q 232 1346 232 1374 l 232 249 q 238 205 232 221 q 251 181 243 189 q 275 165 261 171 q 307 160 289 160 q 363 181 342 160 q 376 205 371 189 q 382 249 382 221 l 382 699 l 296 699 l 296 871 l 607 871 l 607 0 l 382 0 l 382 56 q 308 5 351 21 q 217 -11 265 -11 m 164 -214 l 189 -53 l 425 -53 l 340 -214 l 164 -214 z "},"ģ":{"ha":531,"x_min":7,"x_max":524,"o":"m 265 -233 q 142 -217 189 -233 q 64 -171 94 -201 q 22 -105 38 -144 q 7 -6 7 -65 l 7 0 l 204 0 l 204 -11 q 208 -49 204 -36 q 221 -69 213 -61 q 265 -86 238 -86 q 310 -69 293 -86 q 322 -49 318 -61 q 326 -11 326 -36 l 326 107 q 266 60 303 75 q 186 44 229 44 q 58 92 106 44 q 20 156 33 117 q 7 258 7 194 l 7 929 q 20 1032 7 993 q 58 1096 33 1071 q 186 1143 106 1143 q 326 1082 278 1143 l 326 1132 l 524 1132 l 524 8 q 509 -101 524 -60 q 467 -171 494 -143 q 389 -217 436 -201 q 265 -233 342 -233 m 265 211 q 310 228 293 211 q 322 249 318 236 q 326 286 326 261 l 326 901 q 322 939 326 926 q 310 960 318 951 q 265 976 293 976 q 221 960 238 976 q 208 939 213 951 q 204 901 204 926 l 204 286 q 208 249 204 261 q 221 228 213 236 q 265 211 238 211 m 154 1199 l 239 1360 l 401 1360 l 376 1199 l 154 1199 z "},"Ĥ":{"ha":606,"x_min":7,"x_max":599,"o":"m 7 0 l 7 1586 l 232 1586 l 232 910 l 374 910 l 374 1586 l 599 1586 l 599 0 l 374 0 l 374 726 l 232 726 l 232 0 l 7 0 m 90 1639 l 158 1783 l 444 1783 l 515 1639 l 338 1639 l 300 1724 l 263 1639 l 90 1639 z "},"ĥ":{"ha":531,"x_min":-107,"x_max":524,"o":"m 7 0 l 7 1586 l 204 1586 l 204 1082 q 266 1128 229 1113 q 344 1143 303 1143 q 472 1096 425 1143 q 510 1032 497 1071 q 524 929 524 993 l 524 0 l 326 0 l 326 901 q 322 939 326 926 q 310 960 318 951 q 265 976 293 976 q 221 960 238 976 q 208 939 213 951 q 204 901 204 926 l 204 0 l 7 0 m -107 1639 l -39 1783 l 247 1783 l 318 1639 l 140 1639 l 103 1724 l 65 1639 l -107 1639 z "},"Ħ":{"ha":725,"x_min":7,"x_max":718,"o":"m 67 0 l 67 1586 l 292 1586 l 292 910 l 433 910 l 433 1586 l 658 1586 l 658 0 l 433 0 l 433 726 l 292 726 l 292 0 l 67 0 m 7 1125 l 7 1281 l 718 1281 l 718 1125 l 7 1125 z "},"ħ":{"ha":531,"x_min":-60,"x_max":524,"o":"m 7 0 l 7 1279 l -60 1279 l -60 1435 l 7 1435 l 7 1586 l 204 1586 l 204 1435 l 299 1435 l 299 1279 l 204 1279 l 204 1082 q 265 1128 228 1113 q 344 1143 301 1143 q 472 1096 425 1143 q 510 1033 497 1071 q 524 929 524 994 l 524 0 l 326 0 l 326 901 q 322 939 326 926 q 310 960 318 951 q 265 976 293 976 q 221 960 238 976 q 208 939 213 951 q 204 901 204 926 l 204 0 l 7 0 z "},"Ĩ":{"ha":239,"x_min":-72,"x_max":311,"o":"m 7 0 l 7 1586 l 232 1586 l 232 0 l 7 0 m 174 1629 q 130 1636 147 1629 q 99 1650 113 1643 q 80 1661 89 1657 q 63 1665 71 1665 q 41 1656 49 1665 q 33 1633 33 1647 l -72 1633 l -72 1679 q -35 1773 -72 1738 q 65 1808 1 1808 q 105 1803 89 1808 q 133 1790 121 1797 q 157 1777 147 1783 q 176 1771 167 1771 q 206 1803 206 1771 l 311 1803 l 311 1758 q 275 1665 311 1700 q 174 1629 239 1629 z "},"ĩ":{"ha":211,"x_min":-86,"x_max":297,"o":"m 7 0 l 7 1132 l 204 1132 l 204 0 l 7 0 m 160 1192 q 116 1197 133 1192 q 85 1213 99 1203 q 49 1228 63 1228 q 27 1219 35 1228 q 19 1196 19 1210 l -86 1196 l -86 1236 q -49 1330 -86 1294 q 51 1365 -12 1365 q 91 1360 75 1365 q 119 1347 107 1354 q 143 1334 133 1340 q 163 1328 153 1328 q 192 1360 192 1328 l 192 1361 l 297 1361 l 297 1321 q 261 1227 297 1263 q 160 1192 225 1192 z "},"Ī":{"ha":239,"x_min":-78,"x_max":317,"o":"m 7 0 l 7 1586 l 232 1586 l 232 0 l 7 0 m -78 1639 l -78 1781 l 317 1781 l 317 1639 l -78 1639 z "},"ī":{"ha":211,"x_min":-92,"x_max":303,"o":"m 7 0 l 7 1132 l 204 1132 l 204 0 l 7 0 m -92 1199 l -92 1340 l 303 1340 l 303 1199 l -92 1199 z "},"Ĭ":{"ha":239,"x_min":-87,"x_max":326,"o":"m 7 0 l 7 1586 l 232 1586 l 232 0 l 7 0 m 119 1633 q -32 1672 22 1633 q -87 1783 -86 1711 l 72 1783 q 119 1746 75 1746 q 167 1783 164 1746 l 326 1783 q 269 1672 325 1710 q 119 1633 214 1633 z "},"ĭ":{"ha":211,"x_min":-94,"x_max":306,"o":"m 7 0 l 7 1132 l 204 1132 l 204 0 l 7 0 m 106 1193 q -40 1236 13 1193 q -94 1360 -93 1279 l 58 1360 q 106 1315 61 1315 q 153 1360 150 1315 l 306 1360 q 251 1235 304 1278 q 106 1193 197 1193 z "},"Į":{"ha":239,"x_min":7,"x_max":232,"o":"m 7 0 l 7 1586 l 232 1586 l 232 0 l 7 0 m 164 -242 q 66 -210 108 -242 q 24 -114 24 -179 q 65 -23 24 -61 q 167 36 107 15 l 232 0 q 186 -32 201 -12 q 171 -71 171 -51 q 218 -119 171 -119 l 232 -119 l 232 -242 l 164 -242 z "},"į":{"ha":211,"x_min":3,"x_max":204,"o":"m 7 0 l 7 1132 l 204 1132 l 204 0 l 7 0 m 7 1199 l 7 1360 l 204 1360 l 204 1199 l 7 1199 m 133 -242 q 42 -210 82 -242 q 3 -114 3 -179 q 42 -23 3 -61 q 139 36 82 15 l 204 0 q 158 -32 174 -12 q 143 -71 143 -51 q 190 -119 143 -119 l 204 -119 l 204 -242 l 133 -242 z "},"İ":{"ha":239,"x_min":7,"x_max":232,"o":"m 7 0 l 7 1586 l 232 1586 l 232 0 l 7 0 m 14 1639 l 14 1783 l 225 1783 l 225 1639 l 14 1639 z "},"ı":{"ha":211,"x_min":7,"x_max":204,"o":"m 7 0 l 7 1132 l 204 1132 l 204 0 l 7 0 z "},"Ĳ":{"ha":586,"x_min":7,"x_max":579,"o":"m 293 -6 q 170 9 222 -6 q 82 54 118 24 q 25 140 43 88 q 7 264 7 192 l 7 594 l 232 594 l 232 222 q 236 185 232 199 q 249 164 240 172 q 293 147 265 147 q 317 151 307 147 q 338 164 328 156 q 350 184 346 171 q 354 222 354 197 l 354 1586 l 579 1586 l 579 264 q 563 147 579 196 q 514 64 547 97 q 424 12 479 29 q 293 -6 368 -6 m 7 690 l 7 1586 l 232 1586 l 232 690 l 7 690 z "},"ĳ":{"ha":422,"x_min":7,"x_max":415,"o":"m 7 0 l 7 1132 l 204 1132 l 204 0 l 7 0 m 7 1199 l 7 1360 l 204 1360 l 204 1199 l 7 1199 m 110 -228 l 110 -67 l 181 -67 q 218 -29 218 -67 l 218 1132 l 415 1132 l 415 -83 q 406 -147 415 -122 q 379 -189 397 -172 q 330 -217 360 -207 q 254 -228 300 -228 l 110 -228 m 218 1199 l 218 1360 l 415 1360 l 415 1199 l 218 1199 z "},"Ĵ":{"ha":572,"x_min":7,"x_max":665,"o":"m 286 -6 q 157 13 207 -6 q 72 63 107 31 q 24 141 42 93 q 7 264 7 189 l 7 594 l 218 594 l 218 226 q 222 190 218 203 q 235 168 226 176 q 279 151 251 151 q 324 168 306 151 q 336 188 332 175 q 340 226 340 201 l 340 1586 l 565 1586 l 565 264 q 549 142 565 189 q 501 64 532 96 q 418 13 469 31 q 286 -6 367 -6 m 240 1639 l 308 1783 l 594 1783 l 665 1639 l 488 1639 l 450 1724 l 413 1639 l 240 1639 z "},"ĵ":{"ha":211,"x_min":-101,"x_max":311,"o":"m -101 -228 l -101 -67 l -31 -67 q 7 -29 7 -67 l 7 1132 l 204 1132 l 204 -83 q 195 -147 204 -122 q 168 -189 186 -172 q 119 -218 149 -208 q 43 -228 89 -228 l -101 -228 m -100 1199 l -32 1360 l 240 1360 l 311 1199 l 135 1199 l 97 1292 l 60 1199 l -100 1199 z "},"Ķ":{"ha":617,"x_min":7,"x_max":617,"o":"m 7 0 l 7 1586 l 232 1586 l 232 917 l 390 1586 l 611 1586 l 426 851 l 617 0 l 379 0 l 232 707 l 232 0 l 7 0 m 165 -214 l 190 -53 l 426 -53 l 342 -214 l 165 -214 z "},"ķ":{"ha":546,"x_min":7,"x_max":546,"o":"m 7 0 l 7 1586 l 204 1586 l 204 640 l 346 1132 l 540 1132 l 378 603 l 546 0 l 336 0 l 204 501 l 204 0 l 7 0 m 138 -228 l 163 -67 l 385 -67 l 300 -228 l 138 -228 z "},"ĸ":{"ha":546,"x_min":7,"x_max":546,"o":"m 7 0 l 7 1132 l 204 1132 l 204 640 l 339 1132 l 540 1132 l 379 597 l 546 0 l 332 0 l 204 501 l 204 0 l 7 0 z "},"Ĺ":{"ha":522,"x_min":7,"x_max":515,"o":"m 7 0 l 7 1586 l 232 1586 l 232 183 l 515 183 l 515 0 l 7 0 m 31 1639 l 56 1778 l 292 1778 l 207 1639 l 31 1639 z "},"ĺ":{"ha":211,"x_min":7,"x_max":278,"o":"m 7 0 l 7 1586 l 204 1586 l 204 0 l 7 0 m 17 1639 l 42 1778 l 278 1778 l 193 1639 l 17 1639 z "},"Ļ":{"ha":522,"x_min":7,"x_max":515,"o":"m 7 0 l 7 1586 l 232 1586 l 232 183 l 515 183 l 515 0 l 7 0 m 118 -214 l 143 -53 l 379 -53 l 294 -214 l 118 -214 z "},"ļ":{"ha":211,"x_min":-31,"x_max":217,"o":"m 7 0 l 7 1586 l 204 1586 l 204 0 l 7 0 m -31 -228 l -6 -67 l 217 -67 l 132 -228 l -31 -228 z "},"Ľ":{"ha":522,"x_min":7,"x_max":515,"o":"m 7 0 l 7 1586 l 232 1586 l 232 183 l 515 183 l 515 0 l 7 0 m 246 1403 l 246 1586 l 474 1586 l 422 1403 l 246 1403 z "},"ľ":{"ha":211,"x_min":7,"x_max":432,"o":"m 7 0 l 7 1586 l 204 1586 l 204 0 l 7 0 m 218 1392 l 218 1586 l 432 1586 l 381 1392 l 218 1392 z "},"Ŀ":{"ha":522,"x_min":7,"x_max":515,"o":"m 275 725 l 275 918 l 486 918 l 486 725 l 275 725 m 7 0 l 7 1586 l 232 1586 l 232 183 l 515 183 l 515 0 l 7 0 z "},"ŀ":{"ha":436,"x_min":7,"x_max":429,"o":"m 7 0 l 7 1586 l 204 1586 l 204 0 l 7 0 m 218 554 l 218 747 l 429 747 l 429 554 l 218 554 z "},"Ł":{"ha":522,"x_min":-67,"x_max":515,"o":"m 7 0 l 7 1586 l 232 1586 l 232 183 l 515 183 l 515 0 l 7 0 m -67 628 l -67 803 l 386 1040 l 386 865 l -67 628 z "},"ł":{"ha":372,"x_min":7,"x_max":365,"o":"m 88 0 l 88 1586 l 285 1586 l 285 0 l 88 0 m 7 769 l 7 944 l 365 1132 l 365 957 l 7 769 z "},"Ń":{"ha":639,"x_min":7,"x_max":632,"o":"m 7 0 l 7 1586 l 285 1586 l 435 781 l 435 1586 l 632 1586 l 632 0 l 382 0 l 204 915 l 204 0 l 7 0 m 231 1639 l 256 1778 l 492 1778 l 407 1639 l 231 1639 z "},"ń":{"ha":531,"x_min":7,"x_max":524,"o":"m 7 0 l 7 1132 l 204 1132 l 204 1082 q 266 1128 229 1114 q 344 1143 303 1143 q 472 1096 425 1143 q 510 1033 497 1071 q 524 929 524 994 l 524 0 l 326 0 l 326 901 q 322 939 326 926 q 310 960 318 951 q 265 976 293 976 q 221 960 238 976 q 208 939 213 951 q 204 901 204 926 l 204 0 l 7 0 m 183 1199 l 208 1360 l 431 1360 l 346 1199 l 183 1199 z "},"Ņ":{"ha":639,"x_min":7,"x_max":632,"o":"m 7 0 l 7 1586 l 285 1586 l 435 781 l 435 1586 l 632 1586 l 632 0 l 382 0 l 204 915 l 204 0 l 7 0 m 176 -214 l 201 -53 l 438 -53 l 353 -214 l 176 -214 z "},"ņ":{"ha":531,"x_min":7,"x_max":524,"o":"m 7 0 l 7 1132 l 204 1132 l 204 1082 q 266 1128 229 1114 q 344 1143 303 1143 q 472 1096 425 1143 q 510 1033 497 1071 q 524 929 524 994 l 524 0 l 326 0 l 326 901 q 322 939 326 926 q 310 960 318 951 q 265 976 293 976 q 221 960 238 976 q 208 939 213 951 q 204 901 204 926 l 204 0 l 7 0 m 129 -228 l 154 -67 l 376 -67 l 292 -228 l 129 -228 z "},"Ň":{"ha":639,"x_min":7,"x_max":632,"o":"m 7 0 l 7 1586 l 285 1586 l 435 781 l 435 1586 l 632 1586 l 632 0 l 382 0 l 204 915 l 204 0 l 7 0 m 178 1639 l 107 1783 l 286 1783 l 324 1699 l 361 1783 l 532 1783 l 464 1639 l 178 1639 z "},"ň":{"ha":531,"x_min":7,"x_max":524,"o":"m 7 0 l 7 1132 l 204 1132 l 204 1082 q 266 1128 229 1114 q 344 1143 303 1143 q 472 1096 425 1143 q 510 1033 497 1071 q 524 929 524 994 l 524 0 l 326 0 l 326 901 q 322 939 326 926 q 310 960 318 951 q 265 976 293 976 q 221 960 238 976 q 208 939 213 951 q 204 901 204 926 l 204 0 l 7 0 m 131 1199 l 60 1360 l 236 1360 l 274 1267 l 311 1360 l 471 1360 l 403 1199 l 131 1199 z "},"Ŋ":{"ha":639,"x_min":7,"x_max":632,"o":"m 326 -228 l 326 -67 l 397 -67 q 435 -29 435 -67 l 435 0 l 204 913 l 204 0 l 7 0 l 7 1586 l 249 1586 l 435 819 l 435 1586 l 632 1586 l 632 -83 q 623 -147 632 -122 q 596 -189 614 -172 q 547 -217 576 -207 q 471 -228 517 -228 l 326 -228 z "},"ŋ":{"ha":531,"x_min":7,"x_max":524,"o":"m 218 -228 l 218 -67 l 289 -67 q 326 -29 326 -67 l 326 901 q 322 939 326 926 q 310 960 318 951 q 265 976 293 976 q 221 960 238 976 q 208 939 213 951 q 204 901 204 926 l 204 0 l 7 0 l 7 1132 l 204 1132 l 204 1082 q 267 1128 231 1113 q 344 1143 303 1143 q 416 1132 385 1143 q 472 1096 447 1121 q 510 1032 497 1071 q 524 929 524 993 l 524 -83 q 515 -147 524 -122 q 488 -189 506 -172 q 438 -218 468 -208 q 363 -228 408 -228 l 218 -228 z "},"Ō":{"ha":614,"x_min":7,"x_max":607,"o":"m 307 -6 q 165 14 221 -6 q 72 68 108 33 q 24 146 42 100 q 7 264 7 192 l 7 1322 q 24 1441 7 1394 q 72 1518 42 1488 q 165 1573 108 1554 q 307 1592 221 1592 q 450 1573 393 1592 q 542 1518 507 1554 q 590 1441 574 1488 q 607 1322 607 1394 l 607 264 q 590 146 607 192 q 542 68 574 100 q 450 14 507 33 q 307 -6 393 -6 m 307 151 q 363 172 342 151 q 376 197 371 181 q 382 240 382 213 l 382 1346 q 376 1390 382 1374 q 363 1414 371 1406 q 307 1435 342 1435 q 251 1414 272 1435 q 238 1390 243 1406 q 232 1346 232 1374 l 232 240 q 238 197 232 213 q 251 172 243 181 q 307 151 272 151 m 110 1639 l 110 1781 l 504 1781 l 504 1639 l 110 1639 z "},"ō":{"ha":531,"x_min":7,"x_max":524,"o":"m 265 -6 q 142 10 189 -6 q 64 57 94 26 q 22 126 38 85 q 7 236 7 168 l 7 896 q 22 1006 7 964 q 64 1075 38 1049 q 142 1122 94 1106 q 265 1138 189 1138 q 390 1122 343 1138 q 467 1075 436 1106 q 509 1006 494 1049 q 524 896 524 964 l 524 236 q 509 126 524 168 q 467 57 494 85 q 390 10 436 26 q 265 -6 343 -6 m 265 142 q 310 158 293 142 q 322 179 318 167 q 326 217 326 192 l 326 915 q 322 953 326 940 q 310 974 318 965 q 265 990 293 990 q 221 974 238 990 q 208 953 213 965 q 204 915 204 940 l 204 217 q 208 179 204 192 q 221 158 213 167 q 265 142 238 142 m 68 1199 l 68 1340 l 463 1340 l 463 1199 l 68 1199 z "},"Ŏ":{"ha":614,"x_min":7,"x_max":607,"o":"m 307 -6 q 165 14 221 -6 q 72 68 108 33 q 24 146 42 100 q 7 264 7 192 l 7 1322 q 24 1441 7 1394 q 72 1518 42 1488 q 165 1573 108 1554 q 307 1592 221 1592 q 450 1573 393 1592 q 542 1518 507 1554 q 590 1441 574 1488 q 607 1322 607 1394 l 607 264 q 590 146 607 192 q 542 68 574 100 q 450 14 507 33 q 307 -6 393 -6 m 307 151 q 363 172 342 151 q 376 197 371 181 q 382 240 382 213 l 382 1346 q 376 1390 382 1374 q 363 1414 371 1406 q 307 1435 342 1435 q 251 1414 272 1435 q 238 1390 243 1406 q 232 1346 232 1374 l 232 240 q 238 197 232 213 q 251 172 243 181 q 307 151 272 151 m 307 1633 q 156 1672 210 1633 q 100 1783 101 1711 l 260 1783 q 307 1746 263 1746 q 354 1783 351 1746 l 514 1783 q 457 1672 513 1710 q 307 1633 401 1633 z "},"ŏ":{"ha":531,"x_min":7,"x_max":524,"o":"m 265 -6 q 142 10 189 -6 q 64 57 94 26 q 22 126 38 85 q 7 236 7 168 l 7 896 q 22 1006 7 964 q 64 1075 38 1049 q 142 1122 94 1106 q 265 1138 189 1138 q 390 1122 343 1138 q 467 1075 436 1106 q 509 1006 494 1049 q 524 896 524 964 l 524 236 q 509 126 524 168 q 467 57 494 85 q 390 10 436 26 q 265 -6 343 -6 m 265 142 q 310 158 293 142 q 322 179 318 167 q 326 217 326 192 l 326 915 q 322 953 326 940 q 310 974 318 965 q 265 990 293 990 q 221 974 238 990 q 208 953 213 965 q 204 915 204 940 l 204 217 q 208 179 204 192 q 221 158 213 167 q 265 142 238 142 m 265 1193 q 119 1236 172 1193 q 65 1360 67 1279 l 218 1360 q 265 1315 221 1315 q 313 1360 310 1315 l 465 1360 q 410 1235 464 1278 q 265 1193 357 1193 z "},"Ő":{"ha":614,"x_min":7,"x_max":607,"o":"m 307 -6 q 165 14 221 -6 q 72 68 108 33 q 24 146 42 100 q 7 264 7 192 l 7 1322 q 24 1441 7 1394 q 72 1518 42 1488 q 165 1573 108 1554 q 307 1592 221 1592 q 450 1573 393 1592 q 542 1518 507 1554 q 590 1441 574 1488 q 607 1322 607 1394 l 607 264 q 590 146 607 192 q 542 68 574 100 q 450 14 507 33 q 307 -6 393 -6 m 307 151 q 363 172 342 151 q 376 197 371 181 q 382 240 382 213 l 382 1346 q 376 1390 382 1374 q 363 1414 371 1406 q 307 1435 342 1435 q 251 1414 272 1435 q 238 1390 243 1406 q 232 1346 232 1374 l 232 240 q 238 197 232 213 q 251 172 243 181 q 307 151 272 151 m 113 1639 l 126 1778 l 340 1778 l 282 1639 l 113 1639 m 332 1639 l 389 1778 l 603 1778 l 501 1639 l 332 1639 z "},"ő":{"ha":531,"x_min":7,"x_max":554,"o":"m 265 -6 q 142 10 189 -6 q 64 57 94 26 q 22 126 38 85 q 7 236 7 168 l 7 896 q 22 1006 7 964 q 64 1075 38 1049 q 142 1122 94 1106 q 265 1138 189 1138 q 390 1122 343 1138 q 467 1075 436 1106 q 509 1006 494 1049 q 524 896 524 964 l 524 236 q 509 126 524 168 q 467 57 494 85 q 390 10 436 26 q 265 -6 343 -6 m 265 142 q 310 158 293 142 q 322 179 318 167 q 326 217 326 192 l 326 915 q 322 953 326 940 q 310 974 318 965 q 265 990 293 990 q 221 974 238 990 q 208 953 213 965 q 204 915 204 940 l 204 217 q 208 179 204 192 q 221 158 213 167 q 265 142 238 142 m 78 1199 l 96 1360 l 299 1360 l 240 1199 l 78 1199 m 290 1199 l 347 1360 l 554 1360 l 453 1199 l 290 1199 z "},"Œ":{"ha":856,"x_min":7,"x_max":849,"o":"m 321 0 q 166 19 224 0 q 72 74 108 39 q 24 151 42 106 q 7 269 7 197 l 7 1317 q 24 1435 7 1389 q 72 1513 42 1482 q 166 1567 108 1549 q 321 1586 224 1586 l 849 1586 l 849 1403 l 607 1403 l 607 910 l 849 910 l 849 726 l 607 726 l 607 183 l 849 183 l 849 0 l 321 0 m 321 167 l 382 167 l 382 1419 l 321 1419 q 278 1414 294 1419 q 251 1399 261 1408 q 238 1374 243 1390 q 232 1331 232 1358 l 232 256 q 238 212 232 228 q 251 188 243 196 q 278 172 261 178 q 321 167 294 167 z "},"œ":{"ha":850,"x_min":7,"x_max":843,"o":"m 265 -6 q 142 10 189 -6 q 64 57 94 26 q 22 126 38 85 q 7 236 7 168 l 7 896 q 22 1006 7 964 q 64 1075 38 1049 q 142 1122 94 1106 q 265 1138 189 1138 q 356 1124 315 1138 q 425 1088 396 1111 q 494 1124 454 1111 q 585 1138 535 1138 q 709 1122 663 1138 q 786 1075 756 1106 q 828 1006 814 1049 q 843 896 843 964 l 843 539 l 524 539 l 524 217 q 528 179 524 192 q 540 158 532 167 q 585 142 557 142 q 629 158 613 142 q 642 179 638 167 q 646 217 646 192 l 646 429 l 843 429 l 843 236 q 828 126 843 168 q 786 57 814 85 q 709 10 756 26 q 585 -6 663 -6 q 494 8 535 -6 q 425 44 454 21 q 356 8 396 21 q 265 -6 315 -6 m 524 689 l 646 689 l 646 915 q 642 953 646 940 q 629 974 638 965 q 585 990 613 990 q 540 974 557 990 q 528 953 532 965 q 524 915 524 940 l 524 689 m 265 142 q 310 158 293 142 q 322 179 318 167 q 326 217 326 192 l 326 915 q 322 953 326 940 q 310 974 318 965 q 265 990 293 990 q 221 974 238 990 q 208 953 213 965 q 204 915 204 940 l 204 217 q 208 179 204 192 q 221 158 213 167 q 265 142 238 142 z "},"Ŕ":{"ha":614,"x_min":7,"x_max":607,"o":"m 7 0 l 7 1586 l 376 1586 q 485 1572 444 1586 q 553 1531 526 1558 q 593 1465 579 1504 q 607 1358 607 1425 l 607 1033 q 593 927 607 967 q 553 861 579 888 q 523 838 539 847 q 486 821 507 828 q 582 746 550 800 q 601 696 594 725 q 607 617 607 667 l 607 0 l 382 0 l 382 638 q 376 681 382 665 q 363 706 371 697 q 337 721 353 715 q 293 726 321 726 l 232 726 l 232 0 l 7 0 m 232 910 l 293 910 q 363 931 344 910 q 376 959 371 940 q 382 1010 382 978 l 382 1314 q 376 1358 382 1342 q 363 1382 371 1374 q 337 1397 353 1392 q 293 1403 321 1403 l 232 1403 l 232 910 m 218 1639 l 243 1778 l 479 1778 l 394 1639 l 218 1639 z "},"ŕ":{"ha":489,"x_min":7,"x_max":482,"o":"m 7 0 l 7 1132 l 204 1132 l 204 1089 q 333 1143 250 1143 q 440 1103 400 1143 q 471 1051 460 1083 q 482 964 482 1018 l 482 725 l 304 725 l 304 919 q 301 945 304 936 q 292 961 297 954 q 254 976 279 976 q 217 961 229 976 q 208 945 211 954 q 204 919 204 936 l 204 0 l 7 0 m 163 1199 l 188 1360 l 410 1360 l 325 1199 l 163 1199 z "},"Ŗ":{"ha":614,"x_min":7,"x_max":607,"o":"m 7 0 l 7 1586 l 376 1586 q 485 1572 444 1586 q 553 1531 526 1558 q 593 1465 579 1504 q 607 1358 607 1425 l 607 1033 q 593 927 607 967 q 553 861 579 888 q 523 838 539 847 q 486 821 507 828 q 582 746 550 800 q 601 696 594 725 q 607 617 607 667 l 607 0 l 382 0 l 382 638 q 376 681 382 665 q 363 706 371 697 q 337 721 353 715 q 293 726 321 726 l 232 726 l 232 0 l 7 0 m 232 910 l 293 910 q 363 931 344 910 q 376 959 371 940 q 382 1010 382 978 l 382 1314 q 376 1358 382 1342 q 363 1382 371 1374 q 337 1397 353 1392 q 293 1403 321 1403 l 232 1403 l 232 910 m 164 -214 l 189 -53 l 425 -53 l 340 -214 l 164 -214 z "},"ŗ":{"ha":489,"x_min":-31,"x_max":482,"o":"m 7 0 l 7 1132 l 204 1132 l 204 1089 q 333 1143 250 1143 q 440 1103 400 1143 q 471 1051 460 1083 q 482 964 482 1018 l 482 725 l 304 725 l 304 919 q 301 945 304 936 q 292 961 297 954 q 254 976 279 976 q 217 961 229 976 q 208 945 211 954 q 204 919 204 936 l 204 0 l 7 0 m -31 -228 l -6 -67 l 217 -67 l 132 -228 l -31 -228 z "},"Ř":{"ha":614,"x_min":7,"x_max":607,"o":"m 7 0 l 7 1586 l 376 1586 q 485 1572 444 1586 q 553 1531 526 1558 q 593 1465 579 1504 q 607 1358 607 1425 l 607 1033 q 593 927 607 967 q 553 861 579 888 q 523 838 539 847 q 486 821 507 828 q 582 746 550 800 q 601 696 594 725 q 607 617 607 667 l 607 0 l 382 0 l 382 638 q 376 681 382 665 q 363 706 371 697 q 337 721 353 715 q 293 726 321 726 l 232 726 l 232 0 l 7 0 m 232 910 l 293 910 q 363 931 344 910 q 376 959 371 940 q 382 1010 382 978 l 382 1314 q 376 1358 382 1342 q 363 1382 371 1374 q 337 1397 353 1392 q 293 1403 321 1403 l 232 1403 l 232 910 m 165 1639 l 94 1783 l 274 1783 l 311 1699 l 349 1783 l 519 1783 l 451 1639 l 165 1639 z "},"ř":{"ha":489,"x_min":7,"x_max":482,"o":"m 7 0 l 7 1132 l 204 1132 l 204 1089 q 333 1143 250 1143 q 440 1103 400 1143 q 471 1051 460 1083 q 482 964 482 1018 l 482 725 l 304 725 l 304 919 q 301 945 304 936 q 292 961 297 954 q 254 976 279 976 q 217 961 229 976 q 208 945 211 954 q 204 919 204 936 l 204 0 l 7 0 m 110 1199 l 39 1360 l 215 1360 l 253 1267 l 290 1360 l 450 1360 l 382 1199 l 110 1199 z "},"Ś":{"ha":614,"x_min":7,"x_max":607,"o":"m 307 -6 q 164 13 222 -6 q 69 67 106 32 q 23 146 39 99 q 7 253 7 193 l 7 594 l 232 594 l 232 247 q 251 184 232 204 q 307 164 269 164 q 361 184 343 164 q 379 247 379 204 q 352 383 379 308 q 289 543 325 458 l 92 1006 q 48 1119 65 1068 q 22 1217 31 1169 q 13 1318 13 1265 q 31 1431 13 1383 q 83 1517 49 1479 q 173 1572 117 1553 q 308 1592 229 1592 q 449 1574 392 1592 q 539 1522 506 1556 q 586 1444 571 1492 q 601 1333 601 1396 l 601 1025 l 376 1025 l 376 1339 q 360 1402 376 1382 q 308 1422 344 1422 q 258 1402 275 1422 q 240 1339 240 1382 q 260 1229 240 1296 q 315 1082 281 1163 l 500 649 q 558 505 535 568 q 594 383 582 442 q 607 261 607 325 q 587 145 607 193 q 529 64 567 97 q 434 13 490 31 q 307 -6 378 -6 m 213 1639 l 238 1778 l 474 1778 l 389 1639 l 213 1639 z "},"ś":{"ha":531,"x_min":7,"x_max":524,"o":"m 265 -6 q 67 54 126 -6 q 7 226 7 114 l 7 429 l 204 429 l 204 213 q 219 160 204 178 q 265 142 235 142 q 313 161 299 142 q 326 211 326 181 q 306 292 326 242 q 243 410 285 342 l 86 671 q 28 787 47 738 q 10 903 10 836 q 42 1039 10 988 q 131 1114 74 1090 q 265 1138 189 1138 q 399 1114 342 1138 q 489 1038 457 1090 q 521 897 521 985 l 521 725 l 324 725 l 324 928 q 308 974 324 958 q 265 990 293 990 q 222 972 238 990 q 207 918 207 953 q 225 844 207 878 q 275 754 243 810 l 421 507 q 474 413 451 457 q 510 324 497 368 q 524 226 524 279 q 498 100 524 151 q 415 22 472 49 q 265 -6 358 -6 m 181 1199 l 206 1360 l 428 1360 l 343 1199 l 181 1199 z "},"Ŝ":{"ha":614,"x_min":7,"x_max":607,"o":"m 307 -6 q 164 13 222 -6 q 69 67 106 32 q 23 146 39 99 q 7 253 7 193 l 7 594 l 232 594 l 232 247 q 251 184 232 204 q 307 164 269 164 q 361 184 343 164 q 379 247 379 204 q 352 383 379 308 q 289 543 325 458 l 92 1006 q 48 1119 65 1068 q 22 1217 31 1169 q 13 1318 13 1265 q 31 1431 13 1383 q 83 1517 49 1479 q 173 1572 117 1553 q 308 1592 229 1592 q 449 1574 392 1592 q 539 1522 506 1556 q 586 1444 571 1492 q 601 1333 601 1396 l 601 1025 l 376 1025 l 376 1339 q 360 1402 376 1382 q 308 1422 344 1422 q 258 1402 275 1422 q 240 1339 240 1382 q 260 1229 240 1296 q 315 1082 281 1163 l 500 649 q 558 505 535 568 q 594 383 582 442 q 607 261 607 325 q 587 145 607 193 q 529 64 567 97 q 434 13 490 31 q 307 -6 378 -6 m 89 1639 l 157 1783 l 443 1783 l 514 1639 l 336 1639 l 299 1724 l 261 1639 l 89 1639 z "},"ŝ":{"ha":531,"x_min":7,"x_max":524,"o":"m 265 -6 q 67 54 126 -6 q 7 226 7 114 l 7 429 l 204 429 l 204 213 q 219 160 204 178 q 265 142 235 142 q 313 161 299 142 q 326 211 326 181 q 306 292 326 242 q 243 410 285 342 l 86 671 q 28 787 47 738 q 10 903 10 836 q 42 1039 10 988 q 131 1114 74 1090 q 265 1138 189 1138 q 399 1114 342 1138 q 489 1038 457 1090 q 521 897 521 985 l 521 725 l 324 725 l 324 928 q 308 974 324 958 q 265 990 293 990 q 222 972 238 990 q 207 918 207 953 q 225 844 207 878 q 275 754 243 810 l 421 507 q 474 413 451 457 q 510 324 497 368 q 524 226 524 279 q 498 100 524 151 q 415 22 472 49 q 265 -6 358 -6 m 57 1199 l 125 1360 l 397 1360 l 468 1199 l 292 1199 l 254 1292 l 217 1199 l 57 1199 z "},"Ş":{"ha":614,"x_min":7,"x_max":607,"o":"m 307 -6 q 164 13 222 -6 q 69 67 106 32 q 23 146 39 99 q 7 253 7 193 l 7 594 l 232 594 l 232 247 q 251 184 232 204 q 307 164 269 164 q 361 184 343 164 q 379 247 379 204 q 352 383 379 308 q 289 543 325 458 l 92 1006 q 48 1119 65 1068 q 22 1217 31 1169 q 13 1318 13 1265 q 31 1431 13 1383 q 83 1517 49 1479 q 173 1572 117 1553 q 308 1592 229 1592 q 449 1574 392 1592 q 539 1522 506 1556 q 586 1444 571 1492 q 601 1333 601 1396 l 601 1025 l 376 1025 l 376 1339 q 360 1402 376 1382 q 308 1422 344 1422 q 258 1402 275 1422 q 240 1339 240 1382 q 260 1229 240 1296 q 315 1082 281 1163 l 500 649 q 558 505 535 568 q 594 383 582 442 q 607 261 607 325 q 587 145 607 193 q 529 64 567 97 q 434 13 490 31 q 307 -6 378 -6 m 204 -264 l 204 -181 l 210 -181 q 246 -169 235 -181 q 254 -155 251 -162 q 257 -133 257 -147 l 257 -107 l 204 -107 l 204 21 l 399 21 l 399 -117 q 393 -174 399 -151 q 376 -211 388 -196 q 330 -250 360 -236 q 251 -264 300 -264 l 204 -264 z "},"ş":{"ha":531,"x_min":7,"x_max":524,"o":"m 265 -6 q 67 54 126 -6 q 7 226 7 114 l 7 429 l 204 429 l 204 213 q 219 160 204 178 q 265 142 235 142 q 313 161 299 142 q 326 211 326 181 q 306 292 326 242 q 243 410 285 342 l 86 671 q 28 787 47 738 q 10 903 10 836 q 42 1039 10 988 q 131 1114 74 1090 q 265 1138 189 1138 q 399 1114 342 1138 q 489 1038 457 1090 q 521 897 521 985 l 521 725 l 324 725 l 324 928 q 308 974 324 958 q 265 990 293 990 q 222 972 238 990 q 207 918 207 953 q 225 844 207 878 q 275 754 243 810 l 421 507 q 474 413 451 457 q 510 324 497 368 q 524 226 524 279 q 498 100 524 151 q 415 22 472 49 q 265 -6 358 -6 m 172 -264 l 172 -181 l 178 -181 q 214 -169 203 -181 q 222 -155 219 -162 q 225 -133 225 -147 l 225 -107 l 172 -107 l 172 21 l 353 21 l 353 -117 q 347 -174 353 -151 q 331 -211 342 -196 q 284 -250 314 -236 q 206 -264 254 -264 l 172 -264 z "},"Š":{"ha":614,"x_min":7,"x_max":607,"o":"m 307 -6 q 164 13 222 -6 q 69 67 106 32 q 23 146 39 99 q 7 253 7 193 l 7 594 l 232 594 l 232 247 q 251 184 232 204 q 307 164 269 164 q 361 184 343 164 q 379 247 379 204 q 352 383 379 308 q 289 543 325 458 l 92 1006 q 48 1119 65 1068 q 22 1217 31 1169 q 13 1318 13 1265 q 31 1431 13 1383 q 83 1517 49 1479 q 173 1572 117 1553 q 308 1592 229 1592 q 449 1574 392 1592 q 539 1522 506 1556 q 586 1444 571 1492 q 601 1333 601 1396 l 601 1025 l 376 1025 l 376 1339 q 360 1402 376 1382 q 308 1422 344 1422 q 258 1402 275 1422 q 240 1339 240 1382 q 260 1229 240 1296 q 315 1082 281 1163 l 500 649 q 558 505 535 568 q 594 383 582 442 q 607 261 607 325 q 587 145 607 193 q 529 64 567 97 q 434 13 490 31 q 307 -6 378 -6 m 160 1639 l 89 1783 l 268 1783 l 306 1699 l 343 1783 l 514 1783 l 446 1639 l 160 1639 z "},"š":{"ha":531,"x_min":7,"x_max":524,"o":"m 265 -6 q 67 54 126 -6 q 7 226 7 114 l 7 429 l 204 429 l 204 213 q 219 160 204 178 q 265 142 235 142 q 313 161 299 142 q 326 211 326 181 q 306 292 326 242 q 243 410 285 342 l 86 671 q 28 787 47 738 q 10 903 10 836 q 42 1039 10 988 q 131 1114 74 1090 q 265 1138 189 1138 q 399 1114 342 1138 q 489 1038 457 1090 q 521 897 521 985 l 521 725 l 324 725 l 324 928 q 308 974 324 958 q 265 990 293 990 q 222 972 238 990 q 207 918 207 953 q 225 844 207 878 q 275 754 243 810 l 421 507 q 474 413 451 457 q 510 324 497 368 q 524 226 524 279 q 498 100 524 151 q 415 22 472 49 q 265 -6 358 -6 m 128 1199 l 57 1360 l 233 1360 l 271 1267 l 308 1360 l 468 1360 l 400 1199 l 128 1199 z "},"Ţ":{"ha":614,"x_min":7,"x_max":607,"o":"m 194 0 l 194 1403 l 7 1403 l 7 1586 l 607 1586 l 607 1403 l 419 1403 l 419 0 l 194 0 m 210 -264 l 210 -181 l 215 -181 q 251 -169 240 -181 q 260 -155 257 -162 q 263 -133 263 -147 l 263 -107 l 210 -107 l 210 21 l 404 21 l 404 -117 q 399 -174 404 -151 q 382 -211 393 -196 q 335 -250 365 -236 q 257 -264 306 -264 l 210 -264 z "},"ţ":{"ha":372,"x_min":7,"x_max":365,"o":"m 238 0 q 162 10 192 0 q 113 39 132 19 q 85 81 94 56 q 76 144 76 106 l 76 976 l 7 976 l 7 1132 l 76 1132 l 76 1586 l 274 1586 l 274 1132 l 365 1132 l 365 976 l 274 976 l 274 199 q 311 161 274 161 l 365 161 l 365 0 l 238 0 m 147 -264 l 147 -181 l 153 -181 q 189 -169 178 -181 q 197 -155 194 -162 q 200 -133 200 -147 l 200 -107 l 147 -107 l 147 21 l 328 21 l 328 -117 q 322 -174 328 -151 q 306 -211 317 -196 q 259 -250 289 -236 q 181 -264 229 -264 l 147 -264 z "},"Ť":{"ha":614,"x_min":7,"x_max":607,"o":"m 194 0 l 194 1403 l 7 1403 l 7 1586 l 607 1586 l 607 1403 l 419 1403 l 419 0 l 194 0 m 165 1639 l 94 1783 l 274 1783 l 311 1699 l 349 1783 l 519 1783 l 451 1639 l 165 1639 z "},"ť":{"ha":372,"x_min":7,"x_max":501,"o":"m 238 0 q 162 10 192 0 q 113 39 132 19 q 85 81 94 56 q 76 144 76 106 l 76 976 l 7 976 l 7 1132 l 76 1132 l 76 1586 l 274 1586 l 274 1132 l 365 1132 l 365 976 l 274 976 l 274 199 q 311 161 274 161 l 365 161 l 365 0 l 238 0 m 288 1392 l 288 1586 l 501 1586 l 450 1392 l 288 1392 z "},"Ŧ":{"ha":614,"x_min":7,"x_max":607,"o":"m 194 0 l 194 715 l 89 715 l 89 871 l 194 871 l 194 1403 l 7 1403 l 7 1586 l 607 1586 l 607 1403 l 419 1403 l 419 871 l 525 871 l 525 715 l 419 715 l 419 0 l 194 0 z "},"ŧ":{"ha":372,"x_min":7,"x_max":365,"o":"m 238 0 q 162 10 192 0 q 113 39 132 19 q 85 81 94 56 q 76 144 76 106 l 76 976 l 7 976 l 7 1132 l 76 1132 l 76 1586 l 274 1586 l 274 1132 l 365 1132 l 365 976 l 274 976 l 274 199 q 311 161 274 161 l 365 161 l 365 0 l 238 0 m 7 490 l 7 646 l 365 646 l 365 490 l 7 490 z "},"Ũ":{"ha":614,"x_min":7,"x_max":607,"o":"m 307 -6 q 165 14 221 -6 q 72 68 108 33 q 24 146 42 100 q 7 263 7 192 l 7 1586 l 232 1586 l 232 240 q 238 197 232 213 q 251 172 243 181 q 275 157 261 163 q 307 151 289 151 q 363 172 342 151 q 376 197 371 181 q 382 240 382 213 l 382 1586 l 607 1586 l 607 263 q 590 146 607 192 q 542 68 574 100 q 450 14 507 33 q 307 -6 393 -6 m 361 1629 q 317 1636 335 1629 q 286 1650 300 1643 q 267 1661 276 1657 q 250 1665 258 1665 q 228 1656 236 1665 q 221 1633 221 1647 l 115 1633 l 115 1679 q 152 1773 115 1738 q 253 1808 189 1808 q 292 1803 276 1808 q 321 1790 308 1797 q 344 1777 335 1783 q 364 1771 354 1771 q 393 1803 393 1771 l 499 1803 l 499 1758 q 463 1665 499 1700 q 361 1629 426 1629 z "},"ũ":{"ha":531,"x_min":7,"x_max":524,"o":"m 186 -11 q 58 36 106 -11 q 20 100 33 61 q 7 203 7 139 l 7 1132 l 204 1132 l 204 231 q 208 193 204 206 q 221 172 213 181 q 265 156 238 156 q 310 172 293 156 q 322 193 318 181 q 326 231 326 206 l 326 1132 l 524 1132 l 524 0 l 326 0 l 326 50 q 265 4 301 19 q 186 -11 228 -11 m 319 1192 q 276 1197 293 1192 q 244 1213 258 1203 q 208 1228 222 1228 q 187 1219 194 1228 q 179 1196 179 1210 l 74 1196 l 74 1236 q 110 1330 74 1294 q 211 1365 147 1365 q 251 1360 235 1365 q 279 1347 267 1354 q 303 1334 293 1340 q 322 1328 313 1328 q 351 1360 351 1328 l 351 1361 l 457 1361 l 457 1321 q 421 1227 457 1263 q 319 1192 385 1192 z "},"Ū":{"ha":614,"x_min":7,"x_max":607,"o":"m 307 -6 q 165 14 221 -6 q 72 68 108 33 q 24 146 42 100 q 7 263 7 192 l 7 1586 l 232 1586 l 232 240 q 238 197 232 213 q 251 172 243 181 q 275 157 261 163 q 307 151 289 151 q 363 172 342 151 q 376 197 371 181 q 382 240 382 213 l 382 1586 l 607 1586 l 607 263 q 590 146 607 192 q 542 68 574 100 q 450 14 507 33 q 307 -6 393 -6 m 110 1639 l 110 1781 l 504 1781 l 504 1639 l 110 1639 z "},"ū":{"ha":531,"x_min":7,"x_max":524,"o":"m 186 -11 q 58 36 106 -11 q 20 100 33 61 q 7 203 7 139 l 7 1132 l 204 1132 l 204 231 q 208 193 204 206 q 221 172 213 181 q 265 156 238 156 q 310 172 293 156 q 322 193 318 181 q 326 231 326 206 l 326 1132 l 524 1132 l 524 0 l 326 0 l 326 50 q 265 4 301 19 q 186 -11 228 -11 m 68 1199 l 68 1340 l 463 1340 l 463 1199 l 68 1199 z "},"Ŭ":{"ha":614,"x_min":7,"x_max":607,"o":"m 307 -6 q 165 14 221 -6 q 72 68 108 33 q 24 146 42 100 q 7 263 7 192 l 7 1586 l 232 1586 l 232 240 q 238 197 232 213 q 251 172 243 181 q 275 157 261 163 q 307 151 289 151 q 363 172 342 151 q 376 197 371 181 q 382 240 382 213 l 382 1586 l 607 1586 l 607 263 q 590 146 607 192 q 542 68 574 100 q 450 14 507 33 q 307 -6 393 -6 m 307 1633 q 156 1672 210 1633 q 100 1783 101 1711 l 260 1783 q 307 1746 263 1746 q 354 1783 351 1746 l 514 1783 q 457 1672 513 1710 q 307 1633 401 1633 z "},"ŭ":{"ha":531,"x_min":7,"x_max":524,"o":"m 186 -11 q 58 36 106 -11 q 20 100 33 61 q 7 203 7 139 l 7 1132 l 204 1132 l 204 231 q 208 193 204 206 q 221 172 213 181 q 265 156 238 156 q 310 172 293 156 q 322 193 318 181 q 326 231 326 206 l 326 1132 l 524 1132 l 524 0 l 326 0 l 326 50 q 265 4 301 19 q 186 -11 228 -11 m 265 1193 q 119 1236 172 1193 q 65 1360 67 1279 l 218 1360 q 265 1315 221 1315 q 313 1360 310 1315 l 465 1360 q 410 1235 464 1278 q 265 1193 357 1193 z "},"Ů":{"ha":614,"x_min":7,"x_max":607,"o":"m 307 -6 q 165 14 221 -6 q 72 68 108 33 q 24 146 42 100 q 7 263 7 192 l 7 1586 l 232 1586 l 232 240 q 238 197 232 213 q 251 172 243 181 q 275 157 261 163 q 307 151 289 151 q 363 172 342 151 q 376 197 371 181 q 382 240 382 213 l 382 1586 l 607 1586 l 607 263 q 590 146 607 192 q 542 68 574 100 q 450 14 507 33 q 307 -6 393 -6 m 307 1611 q 193 1657 239 1611 q 147 1771 147 1703 q 193 1885 147 1839 q 307 1931 239 1931 q 421 1885 375 1931 q 467 1771 467 1839 q 421 1657 467 1703 q 307 1611 375 1611 m 307 1731 q 335 1742 324 1731 q 347 1771 347 1754 q 335 1799 347 1788 q 307 1811 324 1811 q 278 1799 290 1811 q 267 1771 267 1788 q 278 1742 267 1754 q 307 1731 290 1731 z "},"ů":{"ha":531,"x_min":7,"x_max":524,"o":"m 186 -11 q 58 36 106 -11 q 20 100 33 61 q 7 203 7 139 l 7 1132 l 204 1132 l 204 231 q 208 193 204 206 q 221 172 213 181 q 265 156 238 156 q 310 172 293 156 q 322 193 318 181 q 326 231 326 206 l 326 1132 l 524 1132 l 524 0 l 326 0 l 326 50 q 265 4 301 19 q 186 -11 228 -11 m 265 1176 q 157 1221 201 1176 q 113 1329 113 1265 q 157 1438 113 1394 q 265 1482 201 1482 q 374 1438 331 1482 q 418 1329 418 1394 q 374 1221 418 1265 q 265 1176 331 1176 m 265 1289 q 294 1301 282 1289 q 306 1329 306 1313 q 294 1358 306 1346 q 265 1369 282 1369 q 237 1358 249 1369 q 225 1329 225 1346 q 237 1301 225 1313 q 265 1289 249 1289 z "},"Ű":{"ha":614,"x_min":7,"x_max":607,"o":"m 307 -6 q 165 14 221 -6 q 72 68 108 33 q 24 146 42 100 q 7 263 7 192 l 7 1586 l 232 1586 l 232 240 q 238 197 232 213 q 251 172 243 181 q 275 157 261 163 q 307 151 289 151 q 363 172 342 151 q 376 197 371 181 q 382 240 382 213 l 382 1586 l 607 1586 l 607 263 q 590 146 607 192 q 542 68 574 100 q 450 14 507 33 q 307 -6 393 -6 m 113 1639 l 126 1778 l 340 1778 l 282 1639 l 113 1639 m 332 1639 l 389 1778 l 603 1778 l 501 1639 l 332 1639 z "},"ű":{"ha":531,"x_min":7,"x_max":554,"o":"m 186 -11 q 58 36 106 -11 q 20 100 33 61 q 7 203 7 139 l 7 1132 l 204 1132 l 204 231 q 208 193 204 206 q 221 172 213 181 q 265 156 238 156 q 310 172 293 156 q 322 193 318 181 q 326 231 326 206 l 326 1132 l 524 1132 l 524 0 l 326 0 l 326 50 q 265 4 301 19 q 186 -11 228 -11 m 78 1199 l 96 1360 l 299 1360 l 240 1199 l 78 1199 m 290 1199 l 347 1360 l 554 1360 l 453 1199 l 290 1199 z "},"Ų":{"ha":614,"x_min":7,"x_max":607,"o":"m 307 -6 q 165 14 221 -6 q 72 68 108 33 q 24 146 42 100 q 7 263 7 192 l 7 1586 l 232 1586 l 232 240 q 238 197 232 213 q 251 172 243 181 q 275 157 261 163 q 307 151 289 151 q 363 172 342 151 q 376 197 371 181 q 382 240 382 213 l 382 1586 l 607 1586 l 607 263 q 590 146 607 192 q 542 68 574 100 q 450 14 507 33 q 307 -6 393 -6 m 399 -221 q 301 -190 343 -221 q 258 -93 258 -158 q 300 -2 258 -40 q 401 57 342 36 l 467 21 q 421 -11 436 8 q 406 -50 406 -31 q 453 -99 406 -99 l 467 -99 l 467 -221 l 399 -221 z "},"ų":{"ha":531,"x_min":7,"x_max":524,"o":"m 186 -11 q 58 36 106 -11 q 20 100 33 61 q 7 203 7 139 l 7 1132 l 204 1132 l 204 231 q 208 193 204 206 q 221 172 213 181 q 265 156 238 156 q 310 172 293 156 q 322 193 318 181 q 326 231 326 206 l 326 1132 l 524 1132 l 524 0 l 326 0 l 326 50 q 265 4 301 19 q 186 -11 228 -11 m 453 -242 q 362 -210 401 -242 q 322 -114 322 -179 q 362 -23 322 -61 q 458 36 401 15 l 524 0 q 478 -32 493 -12 q 463 -71 463 -51 q 510 -119 463 -119 l 524 -119 l 524 -242 l 453 -242 z "},"Ŵ":{"ha":1033,"x_min":0,"x_max":1033,"o":"m 154 0 l 0 1586 l 224 1586 l 301 557 l 379 1586 l 674 1586 l 751 557 l 829 1586 l 1033 1586 l 879 0 l 594 0 l 517 1011 l 439 0 l 154 0 m 304 1639 l 372 1783 l 658 1783 l 729 1639 l 551 1639 l 514 1724 l 476 1639 l 304 1639 z "},"ŵ":{"ha":908,"x_min":0,"x_max":908,"o":"m 131 0 l 0 1132 l 197 1132 l 272 389 l 346 1132 l 582 1132 l 656 389 l 731 1132 l 908 1132 l 778 0 l 528 0 l 454 738 l 381 0 l 131 0 m 249 1199 l 317 1360 l 589 1360 l 660 1199 l 483 1199 l 446 1292 l 408 1199 l 249 1199 z "},"Ŷ":{"ha":665,"x_min":0,"x_max":665,"o":"m 219 0 l 219 565 l 0 1586 l 219 1586 l 339 990 l 460 1586 l 665 1586 l 444 565 l 444 0 l 219 0 m 121 1639 l 189 1783 l 475 1783 l 546 1639 l 368 1639 l 331 1724 l 293 1639 l 121 1639 z "},"ŷ":{"ha":625,"x_min":0,"x_max":625,"o":"m 156 -228 l 222 58 l 0 1132 l 203 1132 l 318 518 l 438 1132 l 625 1132 l 344 -228 l 156 -228 m 107 1199 l 175 1360 l 447 1360 l 518 1199 l 342 1199 l 304 1292 l 267 1199 l 107 1199 z "},"Ÿ":{"ha":665,"x_min":0,"x_max":665,"o":"m 219 0 l 219 565 l 0 1586 l 219 1586 l 339 990 l 460 1586 l 665 1586 l 444 565 l 444 0 l 219 0 m 110 1639 l 110 1783 l 300 1783 l 300 1639 l 110 1639 m 367 1639 l 367 1783 l 557 1783 l 557 1639 l 367 1639 z "},"Ź":{"ha":550,"x_min":7,"x_max":543,"o":"m 7 0 l 7 181 l 308 1400 l 13 1400 l 13 1586 l 528 1586 l 528 1386 l 233 186 l 543 186 l 543 0 l 7 0 m 186 1639 l 211 1778 l 447 1778 l 363 1639 l 186 1639 z "},"ź":{"ha":468,"x_min":7,"x_max":461,"o":"m 7 0 l 7 161 l 242 971 l 14 971 l 14 1132 l 444 1132 l 444 971 l 210 161 l 461 161 l 461 0 l 7 0 m 153 1199 l 178 1360 l 400 1360 l 315 1199 l 153 1199 z "},"Ż":{"ha":550,"x_min":7,"x_max":543,"o":"m 7 0 l 7 181 l 308 1400 l 13 1400 l 13 1586 l 528 1586 l 528 1386 l 233 186 l 543 186 l 543 0 l 7 0 m 169 1639 l 169 1783 l 381 1783 l 381 1639 l 169 1639 z "},"ż":{"ha":468,"x_min":7,"x_max":461,"o":"m 7 0 l 7 161 l 242 971 l 14 971 l 14 1132 l 444 1132 l 444 971 l 210 161 l 461 161 l 461 0 l 7 0 m 136 1199 l 136 1360 l 333 1360 l 333 1199 l 136 1199 z "},"Ž":{"ha":550,"x_min":7,"x_max":543,"o":"m 7 0 l 7 181 l 308 1400 l 13 1400 l 13 1586 l 528 1586 l 528 1386 l 233 186 l 543 186 l 543 0 l 7 0 m 133 1639 l 63 1783 l 242 1783 l 279 1699 l 317 1783 l 488 1783 l 419 1639 l 133 1639 z "},"ž":{"ha":468,"x_min":7,"x_max":461,"o":"m 7 0 l 7 161 l 242 971 l 14 971 l 14 1132 l 444 1132 l 444 971 l 210 161 l 461 161 l 461 0 l 7 0 m 100 1199 l 29 1360 l 206 1360 l 243 1267 l 281 1360 l 440 1360 l 372 1199 l 100 1199 z "},"ſ":{"ha":211,"x_min":7,"x_max":318,"o":"m 7 0 l 7 1442 q 16 1506 7 1481 q 43 1547 25 1531 q 92 1576 63 1567 q 168 1586 122 1586 l 318 1586 l 318 1425 l 242 1425 q 204 1388 204 1425 l 204 0 l 7 0 z "},"Ə":{"ha":614,"x_min":7,"x_max":607,"o":"m 307 -6 q 165 14 221 -6 q 72 68 108 33 q 24 146 42 100 q 7 263 7 192 l 7 868 l 382 868 l 382 1350 q 376 1394 382 1378 q 363 1418 371 1410 q 307 1439 342 1439 q 251 1418 272 1439 q 238 1394 243 1410 q 232 1350 232 1378 l 232 964 l 7 964 l 7 1324 q 24 1441 7 1394 q 72 1518 42 1488 q 165 1573 108 1554 q 307 1592 221 1592 q 450 1573 393 1592 q 542 1518 507 1554 q 590 1441 574 1488 q 607 1324 607 1394 l 607 263 q 590 146 607 192 q 542 68 574 100 q 450 14 507 33 q 307 -6 393 -6 m 307 147 q 363 168 342 147 q 376 192 371 176 q 382 236 382 208 l 382 685 l 232 685 l 232 236 q 238 192 232 208 q 251 168 243 176 q 307 147 272 147 z "},"Ɛ":{"ha":614,"x_min":7,"x_max":607,"o":"m 307 -6 q 165 14 221 -6 q 72 68 108 33 q 24 146 42 100 q 7 263 7 192 l 7 615 q 30 739 7 689 q 113 817 53 789 q 35 895 57 846 q 14 1021 14 944 l 14 1325 q 31 1444 14 1399 q 81 1521 49 1490 q 169 1573 115 1554 q 307 1592 224 1592 q 445 1573 390 1592 q 535 1521 500 1554 q 583 1444 567 1490 q 600 1325 600 1399 l 600 1025 l 375 1025 l 375 1357 q 371 1396 375 1382 q 358 1419 367 1410 q 307 1439 342 1439 q 256 1419 272 1439 q 243 1396 247 1410 q 239 1357 239 1382 l 239 979 q 243 940 239 954 q 256 917 247 926 q 279 902 264 907 q 321 897 294 897 l 424 897 l 424 733 l 321 733 q 278 728 294 733 q 251 713 261 722 q 238 688 243 704 q 232 644 232 672 l 232 236 q 238 192 232 208 q 251 168 243 176 q 307 147 272 147 q 363 168 342 147 q 376 192 371 176 q 382 236 382 208 l 382 594 l 607 594 l 607 263 q 590 146 607 192 q 542 68 574 100 q 450 14 507 33 q 307 -6 393 -6 z "},"ƒ":{"ha":325,"x_min":-101,"x_max":318,"o":"m -101 -228 l -101 -67 l -31 -67 q 7 -29 7 -67 l 7 1442 q 16 1506 7 1481 q 43 1547 25 1531 q 92 1576 63 1567 q 168 1586 122 1586 l 318 1586 l 318 1425 l 242 1425 q 204 1388 204 1425 l 204 1132 l 318 1132 l 318 976 l 204 976 l 204 -83 q 195 -147 204 -122 q 168 -189 186 -172 q 119 -217 149 -207 q 43 -228 89 -228 l -101 -228 z "},"Ɣ":{"ha":633,"x_min":0,"x_max":633,"o":"m 317 -233 q 149 -177 211 -233 q 86 -25 86 -121 q 164 140 86 85 l 0 1586 l 224 1586 l 326 574 l 429 1586 l 633 1586 l 469 140 q 547 -25 547 85 q 485 -177 547 -121 q 317 -233 424 -233 m 317 -86 q 361 -69 344 -86 q 378 -25 378 -53 q 361 19 378 3 q 317 36 344 36 q 272 19 289 36 q 256 -25 256 3 q 272 -69 256 -53 q 317 -86 289 -86 z "},"Ɨ":{"ha":372,"x_min":7,"x_max":365,"o":"m 74 0 l 74 1586 l 299 1586 l 299 0 l 74 0 m 7 715 l 7 871 l 365 871 l 365 715 l 7 715 z "},"Ɲ":{"ha":639,"x_min":-101,"x_max":632,"o":"m -101 -228 l -101 -67 l -31 -67 q 7 -29 7 -67 l 7 1586 l 285 1586 l 435 781 l 435 1586 l 632 1586 l 632 0 l 382 0 l 204 915 l 204 -83 q 195 -147 204 -122 q 168 -189 186 -172 q 119 -217 149 -207 q 43 -228 89 -228 l -101 -228 z "},"Ƶ":{"ha":550,"x_min":7,"x_max":543,"o":"m 7 0 l 7 181 l 139 715 l 33 715 l 33 871 l 178 871 l 308 1400 l 13 1400 l 13 1586 l 528 1586 l 528 1386 l 401 871 l 517 871 l 517 715 l 363 715 l 233 186 l 543 186 l 543 0 l 7 0 z "},"ƶ":{"ha":468,"x_min":7,"x_max":461,"o":"m 7 0 l 7 161 l 101 489 l 28 489 l 28 644 l 147 644 l 242 971 l 14 971 l 14 1132 l 444 1132 l 444 971 l 350 644 l 442 644 l 442 489 l 304 489 l 210 161 l 461 161 l 461 0 l 7 0 z "},"Ǆ":{"ha":1158,"x_min":7,"x_max":1151,"o":"m 7 0 l 7 1586 l 350 1586 q 469 1570 424 1586 q 544 1524 514 1554 q 591 1447 575 1493 q 607 1329 607 1401 l 607 257 q 591 139 607 185 q 544 63 575 93 q 468 16 514 32 q 350 0 422 0 l 7 0 m 233 183 l 294 183 q 364 204 346 183 q 378 233 372 214 q 383 283 383 251 l 383 1314 q 378 1358 383 1342 q 364 1382 372 1374 q 338 1397 354 1392 q 294 1403 322 1403 l 233 1403 l 233 183 m 615 0 l 615 181 l 917 1400 l 621 1400 l 621 1586 l 1136 1586 l 1136 1386 l 842 186 l 1151 186 l 1151 0 l 615 0 m 742 1639 l 671 1783 l 850 1783 l 888 1699 l 925 1783 l 1096 1783 l 1028 1639 l 742 1639 z "},"ǅ":{"ha":1075,"x_min":7,"x_max":1068,"o":"m 7 0 l 7 1586 l 350 1586 q 469 1570 424 1586 q 544 1524 514 1554 q 591 1447 575 1493 q 607 1329 607 1401 l 607 257 q 591 139 607 185 q 544 63 575 93 q 468 16 514 32 q 350 0 422 0 l 7 0 m 233 183 l 294 183 q 364 204 346 183 q 378 233 372 214 q 383 283 383 251 l 383 1314 q 378 1358 383 1342 q 364 1382 372 1374 q 338 1397 354 1392 q 294 1403 322 1403 l 233 1403 l 233 183 m 614 0 l 614 161 l 849 971 l 621 971 l 621 1132 l 1051 1132 l 1051 971 l 817 161 l 1068 161 l 1068 0 l 614 0 m 707 1199 l 636 1360 l 813 1360 l 850 1267 l 888 1360 l 1047 1360 l 979 1199 l 707 1199 z "},"ǆ":{"ha":999,"x_min":7,"x_max":992,"o":"m 186 -11 q 58 36 106 -11 q 20 100 33 61 q 7 203 7 139 l 7 929 q 20 1032 7 993 q 58 1096 33 1071 q 186 1143 106 1143 q 326 1082 278 1143 l 326 1586 l 524 1586 l 524 0 l 326 0 l 326 51 q 267 4 303 19 q 186 -11 231 -11 m 265 156 q 310 172 293 156 q 322 193 318 181 q 326 231 326 206 l 326 901 q 322 939 326 926 q 310 960 318 951 q 265 976 293 976 q 221 960 238 976 q 208 939 213 951 q 204 901 204 926 l 204 231 q 208 193 204 206 q 221 172 213 181 q 265 156 238 156 m 538 0 l 538 161 l 772 971 l 544 971 l 544 1132 l 975 1132 l 975 971 l 740 161 l 992 161 l 992 0 l 538 0 m 631 1199 l 560 1360 l 736 1360 l 774 1267 l 811 1360 l 971 1360 l 903 1199 l 631 1199 z "},"Ǎ":{"ha":647,"x_min":0,"x_max":647,"o":"m 0 0 l 151 1586 l 497 1586 l 647 0 l 422 0 l 403 253 l 232 253 l 213 0 l 0 0 m 247 436 l 388 436 l 317 1329 l 247 436 m 182 1639 l 111 1783 l 290 1783 l 328 1699 l 365 1783 l 536 1783 l 468 1639 l 182 1639 z "},"ǎ":{"ha":531,"x_min":7,"x_max":524,"o":"m 185 -11 q 53 41 100 -11 q 7 190 7 93 l 7 421 q 22 509 7 472 q 71 576 38 546 l 264 756 q 304 804 290 781 q 324 853 318 828 q 329 907 329 878 q 315 971 329 951 q 269 990 301 990 q 224 972 239 990 q 210 918 210 954 l 210 725 l 15 725 l 15 899 q 80 1083 15 1028 q 269 1138 144 1138 q 463 1080 401 1138 q 524 899 524 1022 l 524 0 l 326 0 l 326 50 q 185 -11 278 -11 m 265 142 q 326 208 326 142 l 326 579 q 318 569 322 574 q 310 561 314 565 l 231 483 q 211 453 218 471 q 204 414 204 436 l 204 208 q 265 142 204 142 m 131 1199 l 60 1360 l 236 1360 l 274 1267 l 311 1360 l 471 1360 l 403 1199 l 131 1199 z "},"Ǐ":{"ha":239,"x_min":-93,"x_max":332,"o":"m 7 0 l 7 1586 l 232 1586 l 232 0 l 7 0 m -22 1639 l -93 1783 l 86 1783 l 124 1699 l 161 1783 l 332 1783 l 264 1639 l -22 1639 z "},"ǐ":{"ha":211,"x_min":-100,"x_max":311,"o":"m 7 0 l 7 1132 l 204 1132 l 204 0 l 7 0 m -29 1199 l -100 1360 l 76 1360 l 114 1267 l 151 1360 l 311 1360 l 243 1199 l -29 1199 z "},"Ǒ":{"ha":614,"x_min":7,"x_max":607,"o":"m 307 -6 q 165 14 221 -6 q 72 68 108 33 q 24 146 42 100 q 7 264 7 192 l 7 1322 q 24 1441 7 1394 q 72 1518 42 1488 q 165 1573 108 1554 q 307 1592 221 1592 q 450 1573 393 1592 q 542 1518 507 1554 q 590 1441 574 1488 q 607 1322 607 1394 l 607 264 q 590 146 607 192 q 542 68 574 100 q 450 14 507 33 q 307 -6 393 -6 m 307 151 q 363 172 342 151 q 376 197 371 181 q 382 240 382 213 l 382 1346 q 376 1390 382 1374 q 363 1414 371 1406 q 307 1435 342 1435 q 251 1414 272 1435 q 238 1390 243 1406 q 232 1346 232 1374 l 232 240 q 238 197 232 213 q 251 172 243 181 q 307 151 272 151 m 165 1639 l 94 1783 l 274 1783 l 311 1699 l 349 1783 l 519 1783 l 451 1639 l 165 1639 z "},"ǒ":{"ha":531,"x_min":7,"x_max":524,"o":"m 265 -6 q 142 10 189 -6 q 64 57 94 26 q 22 126 38 85 q 7 236 7 168 l 7 896 q 22 1006 7 964 q 64 1075 38 1049 q 142 1122 94 1106 q 265 1138 189 1138 q 390 1122 343 1138 q 467 1075 436 1106 q 509 1006 494 1049 q 524 896 524 964 l 524 236 q 509 126 524 168 q 467 57 494 85 q 390 10 436 26 q 265 -6 343 -6 m 265 142 q 310 158 293 142 q 322 179 318 167 q 326 217 326 192 l 326 915 q 322 953 326 940 q 310 974 318 965 q 265 990 293 990 q 221 974 238 990 q 208 953 213 965 q 204 915 204 940 l 204 217 q 208 179 204 192 q 221 158 213 167 q 265 142 238 142 m 131 1199 l 60 1360 l 236 1360 l 274 1267 l 311 1360 l 471 1360 l 403 1199 l 131 1199 z "},"Ǔ":{"ha":614,"x_min":7,"x_max":607,"o":"m 307 -6 q 165 14 221 -6 q 72 68 108 33 q 24 146 42 100 q 7 263 7 192 l 7 1586 l 232 1586 l 232 240 q 238 197 232 213 q 251 172 243 181 q 275 157 261 163 q 307 151 289 151 q 363 172 342 151 q 376 197 371 181 q 382 240 382 213 l 382 1586 l 607 1586 l 607 263 q 590 146 607 192 q 542 68 574 100 q 450 14 507 33 q 307 -6 393 -6 m 165 1639 l 94 1783 l 274 1783 l 311 1699 l 349 1783 l 519 1783 l 451 1639 l 165 1639 z "},"ǔ":{"ha":531,"x_min":7,"x_max":524,"o":"m 186 -11 q 58 36 106 -11 q 20 100 33 61 q 7 203 7 139 l 7 1132 l 204 1132 l 204 231 q 208 193 204 206 q 221 172 213 181 q 265 156 238 156 q 310 172 293 156 q 322 193 318 181 q 326 231 326 206 l 326 1132 l 524 1132 l 524 0 l 326 0 l 326 50 q 265 4 301 19 q 186 -11 228 -11 m 131 1199 l 60 1360 l 236 1360 l 274 1267 l 311 1360 l 471 1360 l 403 1199 l 131 1199 z "},"Ǧ":{"ha":614,"x_min":7,"x_max":607,"o":"m 217 -11 q 128 3 165 -11 q 63 43 90 17 q 22 110 36 69 q 7 217 7 151 l 7 1322 q 24 1441 7 1394 q 72 1518 42 1488 q 165 1573 108 1554 q 307 1592 221 1592 q 450 1573 393 1592 q 542 1518 507 1554 q 590 1441 574 1488 q 607 1322 607 1394 l 607 1025 l 382 1025 l 382 1346 q 376 1390 382 1374 q 363 1414 371 1406 q 307 1435 342 1435 q 251 1414 272 1435 q 238 1390 243 1406 q 232 1346 232 1374 l 232 249 q 238 205 232 221 q 251 181 243 189 q 275 165 261 171 q 307 160 289 160 q 363 181 342 160 q 376 205 371 189 q 382 249 382 221 l 382 699 l 296 699 l 296 871 l 607 871 l 607 0 l 382 0 l 382 56 q 308 5 351 21 q 217 -11 265 -11 m 165 1639 l 94 1783 l 274 1783 l 311 1699 l 349 1783 l 519 1783 l 451 1639 l 165 1639 z "},"ǧ":{"ha":531,"x_min":7,"x_max":524,"o":"m 265 -233 q 142 -217 189 -233 q 64 -171 94 -201 q 22 -105 38 -144 q 7 -6 7 -65 l 7 0 l 204 0 l 204 -11 q 208 -49 204 -36 q 221 -69 213 -61 q 265 -86 238 -86 q 310 -69 293 -86 q 322 -49 318 -61 q 326 -11 326 -36 l 326 107 q 266 60 303 75 q 186 44 229 44 q 58 92 106 44 q 20 156 33 117 q 7 258 7 194 l 7 929 q 20 1032 7 993 q 58 1096 33 1071 q 186 1143 106 1143 q 326 1082 278 1143 l 326 1132 l 524 1132 l 524 8 q 509 -101 524 -60 q 467 -171 494 -143 q 389 -217 436 -201 q 265 -233 342 -233 m 265 211 q 310 228 293 211 q 322 249 318 236 q 326 286 326 261 l 326 901 q 322 939 326 926 q 310 960 318 951 q 265 976 293 976 q 221 960 238 976 q 208 939 213 951 q 204 901 204 926 l 204 286 q 208 249 204 261 q 221 228 213 236 q 265 211 238 211 m 131 1199 l 60 1360 l 236 1360 l 274 1267 l 311 1360 l 471 1360 l 403 1199 l 131 1199 z "},"Ǩ":{"ha":617,"x_min":7,"x_max":617,"o":"m 7 0 l 7 1586 l 232 1586 l 232 917 l 390 1586 l 611 1586 l 426 851 l 617 0 l 379 0 l 232 707 l 232 0 l 7 0 m 167 1639 l 96 1783 l 275 1783 l 313 1699 l 350 1783 l 521 1783 l 453 1639 l 167 1639 z "},"ǩ":{"ha":546,"x_min":-107,"x_max":546,"o":"m 7 0 l 7 1586 l 204 1586 l 204 640 l 346 1132 l 540 1132 l 378 603 l 546 0 l 336 0 l 204 501 l 204 0 l 7 0 m -36 1639 l -107 1783 l 72 1783 l 110 1699 l 147 1783 l 318 1783 l 250 1639 l -36 1639 z "},"Ǫ":{"ha":614,"x_min":7,"x_max":607,"o":"m 307 -6 q 165 14 221 -6 q 72 68 108 33 q 24 146 42 100 q 7 264 7 192 l 7 1322 q 24 1441 7 1394 q 72 1518 42 1488 q 165 1573 108 1554 q 307 1592 221 1592 q 450 1573 393 1592 q 542 1518 507 1554 q 590 1441 574 1488 q 607 1322 607 1394 l 607 264 q 590 146 607 192 q 542 68 574 100 q 450 14 507 33 q 307 -6 393 -6 m 307 151 q 363 172 342 151 q 376 197 371 181 q 382 240 382 213 l 382 1346 q 376 1390 382 1374 q 363 1414 371 1406 q 307 1435 342 1435 q 251 1414 272 1435 q 238 1390 243 1406 q 232 1346 232 1374 l 232 240 q 238 197 232 213 q 251 172 243 181 q 307 151 272 151 m 399 -222 q 301 -191 343 -222 q 258 -94 258 -160 q 300 -3 258 -42 q 401 56 342 35 l 467 19 q 421 -12 436 7 q 406 -51 406 -32 q 453 -100 406 -100 l 467 -100 l 467 -222 l 399 -222 z "},"ǫ":{"ha":531,"x_min":7,"x_max":524,"o":"m 265 -6 q 142 10 189 -6 q 64 57 94 26 q 22 126 38 85 q 7 236 7 168 l 7 896 q 22 1006 7 964 q 64 1075 38 1049 q 142 1122 94 1106 q 265 1138 189 1138 q 390 1122 343 1138 q 467 1075 436 1106 q 509 1006 494 1049 q 524 896 524 964 l 524 236 q 509 126 524 168 q 467 57 494 85 q 390 10 436 26 q 265 -6 343 -6 m 265 142 q 310 158 293 142 q 322 179 318 167 q 326 217 326 192 l 326 915 q 322 953 326 940 q 310 974 318 965 q 265 990 293 990 q 221 974 238 990 q 208 953 213 965 q 204 915 204 940 l 204 217 q 208 179 204 192 q 221 158 213 167 q 265 142 238 142 m 328 -228 q 237 -197 276 -228 q 197 -100 197 -165 q 237 -9 197 -47 q 333 50 276 29 l 399 14 q 353 -18 368 1 q 338 -57 338 -37 q 385 -106 338 -106 l 399 -106 l 399 -228 l 328 -228 z "},"Ǳ":{"ha":1158,"x_min":7,"x_max":1151,"o":"m 7 0 l 7 1586 l 350 1586 q 469 1570 424 1586 q 544 1524 514 1554 q 591 1447 575 1493 q 607 1329 607 1401 l 607 257 q 591 139 607 185 q 544 63 575 93 q 468 16 514 32 q 350 0 422 0 l 7 0 m 233 183 l 294 183 q 364 204 346 183 q 378 233 372 214 q 383 283 383 251 l 383 1314 q 378 1358 383 1342 q 364 1382 372 1374 q 338 1397 354 1392 q 294 1403 322 1403 l 233 1403 l 233 183 m 615 0 l 615 181 l 917 1400 l 621 1400 l 621 1586 l 1136 1586 l 1136 1386 l 842 186 l 1151 186 l 1151 0 l 615 0 z "},"ǲ":{"ha":1075,"x_min":7,"x_max":1068,"o":"m 7 0 l 7 1586 l 350 1586 q 469 1570 424 1586 q 544 1524 514 1554 q 591 1447 575 1493 q 607 1329 607 1401 l 607 257 q 591 139 607 185 q 544 63 575 93 q 468 16 514 32 q 350 0 422 0 l 7 0 m 233 183 l 294 183 q 364 204 346 183 q 378 233 372 214 q 383 283 383 251 l 383 1314 q 378 1358 383 1342 q 364 1382 372 1374 q 338 1397 354 1392 q 294 1403 322 1403 l 233 1403 l 233 183 m 614 0 l 614 161 l 849 971 l 621 971 l 621 1132 l 1051 1132 l 1051 971 l 817 161 l 1068 161 l 1068 0 l 614 0 z "},"ǳ":{"ha":999,"x_min":7,"x_max":992,"o":"m 186 -11 q 58 36 106 -11 q 20 100 33 61 q 7 203 7 139 l 7 929 q 20 1032 7 993 q 58 1096 33 1071 q 186 1143 106 1143 q 326 1082 278 1143 l 326 1586 l 524 1586 l 524 0 l 326 0 l 326 51 q 267 4 303 19 q 186 -11 231 -11 m 265 156 q 310 172 293 156 q 322 193 318 181 q 326 231 326 206 l 326 901 q 322 939 326 926 q 310 960 318 951 q 265 976 293 976 q 221 960 238 976 q 208 939 213 951 q 204 901 204 926 l 204 231 q 208 193 204 206 q 221 172 213 181 q 265 156 238 156 m 538 0 l 538 161 l 772 971 l 544 971 l 544 1132 l 975 1132 l 975 971 l 740 161 l 992 161 l 992 0 l 538 0 z "},"Ǹ":{"ha":639,"x_min":7,"x_max":632,"o":"m 7 0 l 7 1586 l 285 1586 l 435 781 l 435 1586 l 632 1586 l 632 0 l 382 0 l 204 915 l 204 0 l 7 0 m 231 1639 l 146 1778 l 382 1778 l 407 1639 l 231 1639 z "},"ǹ":{"ha":531,"x_min":7,"x_max":524,"o":"m 7 0 l 7 1132 l 204 1132 l 204 1082 q 266 1128 229 1114 q 344 1143 303 1143 q 472 1096 425 1143 q 510 1033 497 1071 q 524 929 524 994 l 524 0 l 326 0 l 326 901 q 322 939 326 926 q 310 960 318 951 q 265 976 293 976 q 221 960 238 976 q 208 939 213 951 q 204 901 204 926 l 204 0 l 7 0 m 183 1199 l 99 1360 l 321 1360 l 346 1199 l 183 1199 z "},"Ǻ":{"ha":647,"x_min":0,"x_max":647,"o":"m 0 0 l 151 1586 l 497 1586 l 647 0 l 422 0 l 403 253 l 232 253 l 213 0 l 0 0 m 247 436 l 388 436 l 317 1329 l 247 436 m 324 1611 q 210 1657 256 1611 q 164 1771 164 1703 q 210 1885 164 1839 q 324 1931 256 1931 q 438 1885 392 1931 q 483 1771 483 1839 q 438 1657 483 1703 q 324 1611 392 1611 m 324 1731 q 352 1742 340 1731 q 364 1771 364 1754 q 352 1799 364 1788 q 324 1811 340 1811 q 295 1799 307 1811 q 283 1771 283 1788 q 295 1742 283 1754 q 324 1731 307 1731 m 235 1947 l 260 2086 l 496 2086 l 411 1947 l 235 1947 z "},"ǻ":{"ha":531,"x_min":7,"x_max":524,"o":"m 185 -11 q 53 41 100 -11 q 7 190 7 93 l 7 421 q 22 509 7 472 q 71 576 38 546 l 264 756 q 304 804 290 781 q 324 853 318 828 q 329 907 329 878 q 315 971 329 951 q 269 990 301 990 q 224 972 239 990 q 210 918 210 954 l 210 725 l 15 725 l 15 899 q 80 1083 15 1028 q 269 1138 144 1138 q 463 1080 401 1138 q 524 899 524 1022 l 524 0 l 326 0 l 326 50 q 185 -11 278 -11 m 265 142 q 326 208 326 142 l 326 579 q 318 569 322 574 q 310 561 314 565 l 231 483 q 211 453 218 471 q 204 414 204 436 l 204 208 q 265 142 204 142 m 265 1176 q 157 1221 201 1176 q 113 1329 113 1265 q 157 1438 113 1394 q 265 1482 201 1482 q 374 1438 331 1482 q 418 1329 418 1394 q 374 1221 418 1265 q 265 1176 331 1176 m 265 1289 q 294 1301 282 1289 q 306 1329 306 1313 q 294 1358 306 1346 q 265 1369 282 1369 q 237 1358 249 1369 q 225 1329 225 1346 q 237 1301 225 1313 q 265 1289 249 1289 m 183 1524 l 208 1685 l 431 1685 l 346 1524 l 183 1524 z "},"Ǽ":{"ha":854,"x_min":0,"x_max":847,"o":"m 0 0 l 239 1586 l 847 1586 l 847 1403 l 619 1403 l 619 910 l 847 910 l 847 726 l 619 726 l 619 183 l 847 183 l 847 0 l 394 0 l 394 226 l 243 226 l 213 0 l 0 0 m 267 403 l 394 403 l 394 1367 l 393 1367 l 267 403 m 425 1639 l 450 1778 l 686 1778 l 601 1639 l 425 1639 z "},"ǽ":{"ha":850,"x_min":7,"x_max":843,"o":"m 213 -11 q 60 41 114 -11 q 7 190 7 93 l 7 421 q 22 509 7 472 q 71 576 38 546 l 264 756 q 304 804 290 781 q 324 853 318 828 q 329 907 329 878 q 315 968 329 949 q 269 988 301 988 q 210 918 210 988 l 210 725 l 15 725 l 15 896 q 77 1081 15 1025 q 257 1138 139 1138 q 353 1127 311 1138 q 425 1093 394 1117 q 592 1138 483 1138 q 710 1120 665 1138 q 786 1075 756 1103 q 828 1006 814 1049 q 843 896 843 964 l 843 539 l 524 539 l 524 217 q 528 179 524 192 q 540 158 532 167 q 585 142 557 142 q 629 158 613 142 q 642 179 638 167 q 646 217 646 192 l 646 429 l 843 429 l 843 236 q 828 126 843 168 q 786 57 814 85 q 709 10 756 26 q 588 -6 663 -6 q 465 10 511 -6 q 389 57 419 26 q 313 6 357 22 q 213 -11 268 -11 m 265 142 q 326 208 326 142 l 326 579 q 318 569 322 574 q 310 561 314 565 l 231 483 q 211 453 218 471 q 204 414 204 436 l 204 208 q 265 142 204 142 m 524 689 l 646 689 l 646 915 q 642 953 646 940 q 629 974 638 965 q 585 990 613 990 q 540 974 557 990 q 528 953 532 965 q 524 915 524 940 l 524 689 m 343 1199 l 368 1360 l 590 1360 l 506 1199 l 343 1199 z "},"Ǿ":{"ha":614,"x_min":7,"x_max":607,"o":"m 172 -57 l 7 -12 l 39 111 q 15 176 24 139 q 7 264 7 214 l 7 1322 q 24 1441 7 1394 q 72 1518 42 1488 q 165 1573 108 1554 q 307 1592 221 1592 q 370 1589 342 1592 q 424 1579 399 1586 l 440 1642 l 606 1597 l 574 1475 q 599 1410 590 1447 q 607 1322 607 1372 l 607 264 q 590 146 607 192 q 542 68 574 100 q 450 14 507 33 q 307 -6 393 -6 q 243 -2 272 -6 q 189 7 214 1 l 172 -57 m 232 779 l 382 1351 q 365 1415 382 1392 q 307 1439 347 1439 q 251 1418 272 1439 q 238 1394 243 1410 q 232 1350 232 1378 l 232 779 m 307 147 q 363 168 342 147 q 376 192 371 176 q 382 236 382 208 l 382 815 l 232 243 q 248 174 232 200 q 307 147 264 147 m 218 1639 l 243 1778 l 479 1778 l 394 1639 l 218 1639 z "},"ǿ":{"ha":531,"x_min":7,"x_max":524,"o":"m 176 -58 l 31 -21 l 54 67 q 19 134 32 93 q 7 236 7 175 l 7 896 q 22 1006 7 964 q 64 1075 36 1049 q 142 1122 94 1106 q 265 1138 189 1138 q 305 1136 286 1138 q 340 1132 324 1135 l 356 1190 l 500 1154 l 476 1065 q 512 998 500 1039 q 524 896 524 957 l 524 236 q 509 126 524 168 q 467 57 494 83 q 389 10 436 26 q 265 -6 342 -6 q 226 -4 244 -6 q 192 -1 208 -3 l 176 -58 m 204 564 l 313 971 q 291 986 303 982 q 265 990 279 990 q 221 974 238 990 q 208 953 213 965 q 204 915 204 940 l 204 564 m 265 142 q 310 158 293 142 q 322 179 318 167 q 326 217 326 192 l 326 567 l 218 161 q 240 147 228 151 q 265 142 251 142 m 183 1199 l 208 1360 l 431 1360 l 346 1199 l 183 1199 z "},"Ș":{"ha":614,"x_min":7,"x_max":607,"o":"m 307 -6 q 164 13 222 -6 q 69 67 106 32 q 23 146 39 99 q 7 253 7 193 l 7 594 l 232 594 l 232 247 q 251 184 232 204 q 307 164 269 164 q 361 184 343 164 q 379 247 379 204 q 352 383 379 308 q 289 543 325 458 l 92 1006 q 48 1119 65 1068 q 22 1217 31 1169 q 13 1318 13 1265 q 31 1431 13 1383 q 83 1517 49 1479 q 173 1572 117 1553 q 308 1592 229 1592 q 449 1574 392 1592 q 539 1522 506 1556 q 586 1444 571 1492 q 601 1333 601 1396 l 601 1025 l 376 1025 l 376 1339 q 360 1402 376 1382 q 308 1422 344 1422 q 258 1402 275 1422 q 240 1339 240 1382 q 260 1229 240 1296 q 315 1082 281 1163 l 500 649 q 558 505 535 568 q 594 383 582 442 q 607 261 607 325 q 587 145 607 193 q 529 64 567 97 q 434 13 490 31 q 307 -6 378 -6 m 158 -214 l 183 -53 l 419 -53 l 335 -214 l 158 -214 z "},"ș":{"ha":531,"x_min":7,"x_max":524,"o":"m 265 -6 q 67 54 126 -6 q 7 226 7 114 l 7 429 l 204 429 l 204 213 q 219 160 204 178 q 265 142 235 142 q 313 161 299 142 q 326 211 326 181 q 306 292 326 242 q 243 410 285 342 l 86 671 q 28 787 47 738 q 10 903 10 836 q 42 1039 10 988 q 131 1114 74 1090 q 265 1138 189 1138 q 399 1114 342 1138 q 489 1038 457 1090 q 521 897 521 985 l 521 725 l 324 725 l 324 928 q 308 974 324 958 q 265 990 293 990 q 222 972 238 990 q 207 918 207 953 q 225 844 207 878 q 275 754 243 810 l 421 507 q 474 413 451 457 q 510 324 497 368 q 524 226 524 279 q 498 100 524 151 q 415 22 472 49 q 265 -6 358 -6 m 126 -228 l 151 -67 l 374 -67 l 289 -228 l 126 -228 z "},"Ț":{"ha":614,"x_min":7,"x_max":607,"o":"m 194 0 l 194 1403 l 7 1403 l 7 1586 l 607 1586 l 607 1403 l 419 1403 l 419 0 l 194 0 m 164 -214 l 189 -53 l 425 -53 l 340 -214 l 164 -214 z "},"ț":{"ha":372,"x_min":7,"x_max":365,"o":"m 238 0 q 162 10 192 0 q 113 39 132 19 q 85 81 94 56 q 76 144 76 106 l 76 976 l 7 976 l 7 1132 l 76 1132 l 76 1586 l 274 1586 l 274 1132 l 365 1132 l 365 976 l 274 976 l 274 199 q 311 161 274 161 l 365 161 l 365 0 l 238 0 m 101 -228 l 126 -67 l 349 -67 l 264 -228 l 101 -228 z "},"Ȟ":{"ha":606,"x_min":7,"x_max":599,"o":"m 7 0 l 7 1586 l 232 1586 l 232 910 l 374 910 l 374 1586 l 599 1586 l 599 0 l 374 0 l 374 726 l 232 726 l 232 0 l 7 0 m 161 1639 l 90 1783 l 269 1783 l 307 1699 l 344 1783 l 515 1783 l 447 1639 l 161 1639 z "},"ȟ":{"ha":531,"x_min":-107,"x_max":524,"o":"m 7 0 l 7 1586 l 204 1586 l 204 1082 q 266 1128 229 1113 q 344 1143 303 1143 q 472 1096 425 1143 q 510 1032 497 1071 q 524 929 524 993 l 524 0 l 326 0 l 326 901 q 322 939 326 926 q 310 960 318 951 q 265 976 293 976 q 221 960 238 976 q 208 939 213 951 q 204 901 204 926 l 204 0 l 7 0 m -36 1639 l -107 1783 l 72 1783 l 110 1699 l 147 1783 l 318 1783 l 250 1639 l -36 1639 z "},"Ȯ":{"ha":614,"x_min":7,"x_max":607,"o":"m 307 -6 q 165 14 221 -6 q 72 68 108 33 q 24 146 42 100 q 7 264 7 192 l 7 1322 q 24 1441 7 1394 q 72 1518 42 1488 q 165 1573 108 1554 q 307 1592 221 1592 q 450 1573 393 1592 q 542 1518 507 1554 q 590 1441 574 1488 q 607 1322 607 1394 l 607 264 q 590 146 607 192 q 542 68 574 100 q 450 14 507 33 q 307 -6 393 -6 m 307 151 q 363 172 342 151 q 376 197 371 181 q 382 240 382 213 l 382 1346 q 376 1390 382 1374 q 363 1414 371 1406 q 307 1435 342 1435 q 251 1414 272 1435 q 238 1390 243 1406 q 232 1346 232 1374 l 232 240 q 238 197 232 213 q 251 172 243 181 q 307 151 272 151 m 201 1639 l 201 1783 l 413 1783 l 413 1639 l 201 1639 z "},"ȯ":{"ha":531,"x_min":7,"x_max":524,"o":"m 265 -6 q 142 10 189 -6 q 64 57 94 26 q 22 126 38 85 q 7 236 7 168 l 7 896 q 22 1006 7 964 q 64 1075 38 1049 q 142 1122 94 1106 q 265 1138 189 1138 q 390 1122 343 1138 q 467 1075 436 1106 q 509 1006 494 1049 q 524 896 524 964 l 524 236 q 509 126 524 168 q 467 57 494 85 q 390 10 436 26 q 265 -6 343 -6 m 265 142 q 310 158 293 142 q 322 179 318 167 q 326 217 326 192 l 326 915 q 322 953 326 940 q 310 974 318 965 q 265 990 293 990 q 221 974 238 990 q 208 953 213 965 q 204 915 204 940 l 204 217 q 208 179 204 192 q 221 158 213 167 q 265 142 238 142 m 167 1199 l 167 1360 l 364 1360 l 364 1199 l 167 1199 z "},"Ȳ":{"ha":665,"x_min":0,"x_max":665,"o":"m 219 0 l 219 565 l 0 1586 l 219 1586 l 339 990 l 460 1586 l 665 1586 l 444 565 l 444 0 l 219 0 m 136 1639 l 136 1781 l 531 1781 l 531 1639 l 136 1639 z "},"ȳ":{"ha":625,"x_min":0,"x_max":625,"o":"m 156 -228 l 222 58 l 0 1132 l 203 1132 l 318 518 l 438 1132 l 625 1132 l 344 -228 l 156 -228 m 115 1199 l 115 1340 l 510 1340 l 510 1199 l 115 1199 z "},"ȷ":{"ha":211,"x_min":-101,"x_max":204,"o":"m -101 -228 l -101 -67 l -31 -67 q 7 -29 7 -67 l 7 1132 l 204 1132 l 204 -83 q 195 -147 204 -122 q 168 -189 186 -172 q 119 -218 149 -208 q 43 -228 89 -228 l -101 -228 z "},"Ʉ":{"ha":733,"x_min":7,"x_max":726,"o":"m 367 -6 q 224 14 281 -6 q 132 68 168 33 q 84 146 101 100 q 67 263 67 192 l 67 715 l 7 715 l 7 871 l 67 871 l 67 1586 l 292 1586 l 292 871 l 442 871 l 442 1586 l 667 1586 l 667 871 l 726 871 l 726 715 l 667 715 l 667 263 q 650 146 667 192 q 601 68 633 100 q 510 14 567 33 q 367 -6 453 -6 m 367 147 q 422 168 401 147 q 436 192 431 176 q 442 236 442 208 l 442 715 l 292 715 l 292 236 q 297 192 292 208 q 311 168 303 176 q 367 147 332 147 z "},"ə":{"ha":531,"x_min":7,"x_max":524,"o":"m 265 1138 q 389 1122 342 1138 q 467 1075 436 1106 q 509 1006 494 1049 q 524 896 524 964 l 524 236 q 509 126 524 168 q 467 57 494 85 q 389 10 436 26 q 265 -6 342 -6 q 142 10 189 -6 q 64 57 94 26 q 22 126 38 85 q 7 236 7 168 l 7 635 l 326 635 l 326 915 q 322 953 326 940 q 310 974 318 965 q 265 990 293 990 q 221 974 238 990 q 208 953 213 965 q 204 915 204 940 l 204 703 l 7 703 l 7 896 q 22 1006 7 964 q 64 1075 38 1049 q 142 1122 94 1106 q 265 1138 189 1138 m 326 485 l 204 485 l 204 217 q 208 179 204 192 q 221 158 213 167 q 265 142 238 142 q 310 158 293 142 q 322 179 318 167 q 326 217 326 192 l 326 485 z "},"ɛ":{"ha":531,"x_min":7,"x_max":524,"o":"m 265 -6 q 142 10 189 -6 q 64 57 94 26 q 22 126 38 85 q 7 236 7 168 l 7 372 q 31 500 7 447 q 110 578 54 553 q 33 650 58 601 q 7 765 7 699 l 7 899 q 22 1007 7 965 q 64 1075 38 1049 q 142 1122 94 1106 q 265 1138 189 1138 q 390 1122 343 1138 q 467 1075 436 1106 q 509 1006 494 1049 q 524 896 524 964 l 524 725 l 326 725 l 326 915 q 322 953 326 940 q 310 974 318 965 q 265 990 293 990 q 221 974 238 990 q 208 953 213 965 q 204 915 204 940 l 204 736 q 224 674 204 693 q 249 658 235 664 q 288 653 264 653 l 385 653 l 385 503 l 288 503 q 249 498 264 503 q 224 482 235 493 q 209 458 214 472 q 204 419 204 443 l 204 217 q 208 179 204 192 q 221 158 213 167 q 265 142 238 142 q 310 158 293 142 q 322 179 318 167 q 326 217 326 192 l 326 429 l 524 429 l 524 236 q 509 126 524 168 q 467 57 494 85 q 390 10 436 26 q 265 -6 343 -6 z "},"ɣ":{"ha":553,"x_min":0,"x_max":553,"o":"m 285 -233 q 117 -177 179 -233 q 54 -25 54 -121 q 69 60 54 21 q 118 129 83 99 l 0 1132 l 201 1132 l 285 326 l 368 1132 l 553 1132 l 436 140 q 495 72 475 114 q 515 -25 515 29 q 453 -177 515 -121 q 285 -233 392 -233 m 285 -86 q 329 -69 313 -86 q 346 -25 346 -53 q 329 19 346 3 q 285 36 313 36 q 240 19 257 36 q 224 -25 224 3 q 240 -69 224 -53 q 285 -86 257 -86 z "},"ɨ":{"ha":372,"x_min":7,"x_max":365,"o":"m 7 551 l 7 707 l 365 707 l 365 551 l 7 551 m 88 0 l 88 1132 l 285 1132 l 285 0 l 88 0 m 88 1199 l 88 1360 l 285 1360 l 285 1199 l 88 1199 z "},"ɲ":{"ha":531,"x_min":-74,"x_max":524,"o":"m -74 -228 l -74 -67 l -31 -67 q 7 -29 7 -67 l 7 1132 l 204 1132 l 204 1082 q 267 1128 231 1113 q 344 1143 303 1143 q 416 1132 385 1143 q 472 1096 447 1121 q 510 1032 497 1071 q 524 929 524 993 l 524 0 l 326 0 l 326 901 q 322 939 326 926 q 310 960 318 951 q 265 976 293 976 q 221 960 238 976 q 208 939 213 951 q 204 901 204 926 l 204 -83 q 195 -147 204 -122 q 168 -189 186 -172 q 119 -218 149 -208 q 43 -228 89 -228 l -74 -228 z "},"ʉ":{"ha":658,"x_min":7,"x_max":651,"o":"m 250 -11 q 122 36 169 -11 q 84 100 97 61 q 71 203 71 139 l 71 1132 l 268 1132 l 268 231 q 272 193 268 206 q 285 172 276 181 q 329 156 301 156 q 374 172 357 156 q 386 193 382 181 q 390 231 390 206 l 390 1132 l 588 1132 l 588 0 l 390 0 l 390 50 q 328 4 365 19 q 250 -11 292 -11 m 7 551 l 7 707 l 651 707 l 651 551 l 7 551 z "},"ˆ":{"ha":425,"x_min":7,"x_max":418,"o":"m 7 1425 l 75 1586 l 347 1586 l 418 1425 l 242 1425 l 204 1518 l 167 1425 l 7 1425 z "},"ˇ":{"ha":425,"x_min":7,"x_max":418,"o":"m 78 1425 l 7 1586 l 183 1586 l 221 1493 l 258 1586 l 418 1586 l 350 1425 l 78 1425 z "},"ˉ":{"ha":408,"x_min":7,"x_max":401,"o":"m 7 1419 l 7 1561 l 401 1561 l 401 1419 l 7 1419 z "},"˘":{"ha":414,"x_min":7,"x_max":407,"o":"m 207 1419 q 61 1463 114 1419 q 7 1586 8 1506 l 160 1586 q 207 1542 163 1542 q 254 1586 251 1542 l 407 1586 q 352 1462 406 1504 q 207 1419 299 1419 z "},"˙":{"ha":211,"x_min":7,"x_max":204,"o":"m 7 1425 l 7 1586 l 204 1586 l 204 1425 l 7 1425 z "},"˚":{"ha":319,"x_min":7,"x_max":313,"o":"m 160 1367 q 51 1411 96 1367 q 7 1519 7 1456 q 51 1628 7 1585 q 160 1672 96 1672 q 269 1628 225 1672 q 313 1519 313 1585 q 269 1411 313 1456 q 160 1367 225 1367 m 160 1479 q 188 1491 176 1479 q 200 1519 200 1503 q 188 1548 200 1536 q 160 1560 176 1560 q 131 1548 143 1560 q 119 1519 119 1536 q 131 1491 119 1503 q 160 1479 143 1479 z "},"˛":{"ha":215,"x_min":7,"x_max":208,"o":"m 138 -242 q 47 -210 86 -242 q 7 -114 7 -179 q 47 -23 7 -61 q 143 36 86 15 l 208 0 q 163 -32 178 -12 q 147 -71 147 -51 q 194 -119 147 -119 l 208 -119 l 208 -242 l 138 -242 z "},"˜":{"ha":397,"x_min":7,"x_max":390,"o":"m 253 1418 q 178 1439 206 1418 q 142 1454 156 1454 q 120 1445 128 1454 q 113 1422 113 1436 l 7 1422 l 7 1463 q 44 1556 7 1521 q 144 1592 81 1592 q 184 1586 168 1592 q 213 1574 200 1581 q 236 1560 226 1567 q 256 1554 246 1554 q 285 1586 285 1554 l 285 1588 l 390 1588 l 390 1547 q 354 1453 390 1489 q 253 1418 318 1418 z "},"˝":{"ha":490,"x_min":7,"x_max":483,"o":"m 7 1425 l 25 1586 l 228 1586 l 169 1425 l 7 1425 m 219 1425 l 276 1586 l 483 1586 l 382 1425 l 219 1425 z "},"̀":{"ha":0,"x_min":7,"x_max":254,"o":"m 92 1199 l 7 1360 l 229 1360 l 254 1199 l 92 1199 z "},"́":{"ha":0,"x_min":7,"x_max":254,"o":"m 7 1199 l 32 1360 l 254 1360 l 169 1199 l 7 1199 z "},"̂":{"ha":0,"x_min":7,"x_max":418,"o":"m 7 1199 l 75 1360 l 347 1360 l 418 1199 l 242 1199 l 204 1292 l 167 1199 l 7 1199 z "},"̃":{"ha":0,"x_min":7,"x_max":390,"o":"m 253 1192 q 209 1197 226 1192 q 178 1213 192 1203 q 142 1228 156 1228 q 120 1219 128 1228 q 113 1196 113 1210 l 7 1196 l 7 1236 q 44 1330 7 1294 q 144 1365 81 1365 q 184 1360 168 1365 q 213 1347 200 1354 q 236 1334 226 1340 q 256 1328 246 1328 q 285 1360 285 1328 l 285 1361 l 390 1361 l 390 1321 q 354 1227 390 1263 q 253 1192 318 1192 z "},"̄":{"ha":0,"x_min":7,"x_max":401,"o":"m 7 1199 l 7 1340 l 401 1340 l 401 1199 l 7 1199 z "},"̆":{"ha":0,"x_min":7,"x_max":407,"o":"m 207 1193 q 61 1236 114 1193 q 7 1360 8 1279 l 160 1360 q 207 1315 163 1315 q 254 1360 251 1315 l 407 1360 q 352 1235 406 1278 q 207 1193 299 1193 z "},"̇":{"ha":0,"x_min":7,"x_max":204,"o":"m 7 1199 l 7 1360 l 204 1360 l 204 1199 l 7 1199 z "},"̈":{"ha":0,"x_min":7,"x_max":440,"o":"m 7 1199 l 7 1360 l 190 1360 l 190 1199 l 7 1199 m 257 1199 l 257 1360 l 440 1360 l 440 1199 l 257 1199 z "},"̊":{"ha":0,"x_min":7,"x_max":313,"o":"m 160 1176 q 51 1221 96 1176 q 7 1329 7 1265 q 51 1438 7 1394 q 160 1482 96 1482 q 269 1438 225 1482 q 313 1329 313 1394 q 269 1221 313 1265 q 160 1176 225 1176 m 160 1289 q 188 1301 176 1289 q 200 1329 200 1313 q 188 1358 200 1346 q 160 1369 176 1369 q 131 1358 143 1369 q 119 1329 119 1346 q 131 1301 119 1313 q 160 1289 143 1289 z "},"̋":{"ha":0,"x_min":7,"x_max":483,"o":"m 7 1199 l 25 1360 l 228 1360 l 169 1199 l 7 1199 m 219 1199 l 276 1360 l 483 1360 l 382 1199 l 219 1199 z "},"̌":{"ha":0,"x_min":7,"x_max":418,"o":"m 78 1199 l 7 1360 l 183 1360 l 221 1267 l 258 1360 l 418 1360 l 350 1199 l 78 1199 z "},"̒":{"ha":0,"x_min":7,"x_max":254,"o":"m 7 1199 l 92 1360 l 254 1360 l 229 1199 l 7 1199 z "},"̓":{"ha":0,"x_min":7,"x_max":254,"o":"m 7 1199 l 32 1360 l 254 1360 l 169 1199 l 7 1199 z "},"̣":{"ha":0,"x_min":7,"x_max":204,"o":"m 7 -228 l 7 -67 l 204 -67 l 204 -228 l 7 -228 z "},"̦":{"ha":0,"x_min":7,"x_max":254,"o":"m 7 -228 l 32 -67 l 254 -67 l 169 -228 l 7 -228 z "},"̧":{"ha":0,"x_min":7,"x_max":188,"o":"m 7 -264 l 7 -181 l 13 -181 q 49 -169 38 -181 q 57 -155 54 -162 q 60 -133 60 -147 l 60 -107 l 7 -107 l 7 21 l 188 21 l 188 -117 q 182 -174 188 -151 q 165 -211 176 -196 q 119 -250 149 -236 q 40 -264 89 -264 l 7 -264 z "},"̨":{"ha":0,"x_min":7,"x_max":208,"o":"m 138 -242 q 47 -210 86 -242 q 7 -114 7 -179 q 47 -23 7 -61 q 143 36 86 15 l 208 0 q 163 -32 178 -12 q 147 -71 147 -51 q 194 -119 147 -119 l 208 -119 l 208 -242 l 138 -242 z "},"̮":{"ha":0,"x_min":7,"x_max":407,"o":"m 207 -233 q 61 -190 114 -233 q 7 -67 8 -147 l 160 -67 q 207 -111 163 -111 q 254 -67 251 -111 l 407 -67 q 352 -191 406 -149 q 207 -233 299 -233 z "},"̱":{"ha":0,"x_min":7,"x_max":401,"o":"m 7 -208 l 7 -67 l 401 -67 l 401 -208 l 7 -208 z "},"̵":{"ha":0,"x_min":7,"x_max":365,"o":"m 7 689 l 7 844 l 365 844 l 365 689 l 7 689 z "},"·":{"ha":225,"x_min":7,"x_max":218,"o":"m 7 456 l 7 649 l 218 649 l 218 456 l 7 456 z "},"Δ":{"ha":661,"x_min":7,"x_max":654,"o":"m 7 0 l 158 1586 l 504 1586 l 654 0 l 7 0 m 232 176 l 415 176 l 324 1343 l 232 176 z "},"Ω":{"ha":614,"x_min":7,"x_max":607,"o":"m 7 0 l 7 172 l 86 172 q 24 253 40 203 q 7 365 7 303 l 7 1324 q 24 1441 7 1394 q 72 1518 42 1488 q 165 1573 108 1554 q 307 1592 221 1592 q 450 1573 393 1592 q 542 1518 507 1554 q 590 1441 574 1488 q 607 1324 607 1394 l 607 365 q 590 251 607 300 q 528 172 572 201 l 607 172 l 607 0 l 328 0 l 328 181 q 382 253 382 192 l 382 1350 q 376 1394 382 1378 q 363 1418 371 1410 q 307 1439 342 1439 q 251 1418 272 1439 q 238 1394 243 1410 q 232 1350 232 1378 l 232 253 q 286 181 232 192 l 286 0 l 7 0 z "},"μ":{"ha":531,"x_min":7,"x_max":524,"o":"m 7 -228 l 7 1132 l 204 1132 l 204 231 q 208 193 204 206 q 221 172 213 181 q 265 156 238 156 q 310 172 293 156 q 322 193 318 181 q 326 231 326 206 l 326 1132 l 524 1132 l 524 0 l 326 0 l 326 50 q 265 4 301 19 q 186 -11 228 -11 l 176 -11 l 176 -228 l 7 -228 z "},"π":{"ha":628,"x_min":7,"x_max":621,"o":"m 76 0 l 76 976 l 7 976 l 7 1132 l 621 1132 l 621 976 l 551 976 l 551 0 l 354 0 l 354 976 l 274 976 l 274 0 l 76 0 z "},"Ḃ":{"ha":614,"x_min":7,"x_max":607,"o":"m 7 0 l 7 1586 l 368 1586 q 477 1572 436 1586 q 544 1531 518 1558 q 585 1465 571 1504 q 599 1358 599 1425 l 599 1033 q 585 927 599 967 q 544 861 571 888 q 475 819 517 833 q 553 775 522 806 q 593 709 579 749 q 607 603 607 669 l 607 228 q 593 122 607 161 q 553 56 579 82 q 485 15 526 29 q 376 0 444 0 l 7 0 m 232 910 l 285 910 q 354 931 336 910 q 368 959 363 940 q 374 1010 374 978 l 374 1314 q 368 1358 374 1342 q 354 1382 363 1374 q 328 1397 344 1392 q 285 1403 313 1403 l 232 1403 l 232 910 m 232 183 l 293 183 q 337 189 321 183 q 363 204 353 194 q 376 228 371 213 q 382 272 382 244 l 382 638 q 376 681 382 665 q 363 706 371 697 q 337 721 353 715 q 293 726 321 726 l 232 726 l 232 183 m 201 1639 l 201 1783 l 413 1783 l 413 1639 l 201 1639 z "},"ḃ":{"ha":531,"x_min":7,"x_max":524,"o":"m 260 1264 l 260 1403 l 457 1403 l 457 1264 l 260 1264 m 344 -11 q 264 4 300 -11 q 204 51 228 19 l 204 0 l 7 0 l 7 1586 l 204 1586 l 204 1082 q 344 1143 253 1143 q 472 1096 425 1143 q 510 1032 497 1071 q 524 929 524 993 l 524 203 q 510 100 524 139 q 472 36 497 61 q 344 -11 425 -11 m 265 156 q 310 172 293 156 q 322 193 318 181 q 326 231 326 206 l 326 901 q 322 939 326 926 q 310 960 318 951 q 265 976 293 976 q 221 960 238 976 q 208 939 213 951 q 204 901 204 926 l 204 231 q 208 193 204 206 q 221 172 213 181 q 265 156 238 156 z "},"Ḋ":{"ha":614,"x_min":7,"x_max":607,"o":"m 7 0 l 7 1586 l 350 1586 q 469 1570 424 1586 q 544 1524 514 1554 q 591 1447 575 1493 q 607 1329 607 1401 l 607 257 q 591 139 607 185 q 544 63 575 93 q 468 16 514 32 q 350 0 422 0 l 7 0 m 233 183 l 294 183 q 364 204 346 183 q 378 233 372 214 q 383 283 383 251 l 383 1314 q 378 1358 383 1342 q 364 1382 372 1374 q 338 1397 354 1392 q 294 1403 322 1403 l 233 1403 l 233 183 m 201 1639 l 201 1783 l 413 1783 l 413 1639 l 201 1639 z "},"ḋ":{"ha":531,"x_min":7,"x_max":524,"o":"m 74 1264 l 74 1403 l 271 1403 l 271 1264 l 74 1264 m 186 -11 q 58 36 106 -11 q 20 100 33 61 q 7 203 7 139 l 7 929 q 20 1032 7 993 q 58 1096 33 1071 q 186 1143 106 1143 q 326 1082 278 1143 l 326 1586 l 524 1586 l 524 0 l 326 0 l 326 51 q 267 4 303 19 q 186 -11 231 -11 m 265 156 q 310 172 293 156 q 322 193 318 181 q 326 231 326 206 l 326 901 q 322 939 326 926 q 310 960 318 951 q 265 976 293 976 q 221 960 238 976 q 208 939 213 951 q 204 901 204 926 l 204 231 q 208 193 204 206 q 221 172 213 181 q 265 156 238 156 z "},"Ḍ":{"ha":614,"x_min":7,"x_max":607,"o":"m 7 0 l 7 1586 l 350 1586 q 469 1570 424 1586 q 544 1524 514 1554 q 591 1447 575 1493 q 607 1329 607 1401 l 607 257 q 591 139 607 185 q 544 63 575 93 q 468 16 514 32 q 350 0 422 0 l 7 0 m 233 183 l 294 183 q 364 204 346 183 q 378 233 372 214 q 383 283 383 251 l 383 1314 q 378 1358 383 1342 q 364 1382 372 1374 q 338 1397 354 1392 q 294 1403 322 1403 l 233 1403 l 233 183 m 201 -212 l 201 -51 l 413 -51 l 413 -212 l 201 -212 z "},"ḍ":{"ha":531,"x_min":7,"x_max":524,"o":"m 186 -11 q 58 36 106 -11 q 20 100 33 61 q 7 203 7 139 l 7 929 q 20 1032 7 993 q 58 1096 33 1071 q 186 1143 106 1143 q 326 1082 278 1143 l 326 1586 l 524 1586 l 524 0 l 326 0 l 326 51 q 267 4 303 19 q 186 -11 231 -11 m 265 156 q 310 172 293 156 q 322 193 318 181 q 326 231 326 206 l 326 901 q 322 939 326 926 q 310 960 318 951 q 265 976 293 976 q 221 960 238 976 q 208 939 213 951 q 204 901 204 926 l 204 231 q 208 193 204 206 q 221 172 213 181 q 265 156 238 156 m 167 -228 l 167 -67 l 364 -67 l 364 -228 l 167 -228 z "},"Ḏ":{"ha":614,"x_min":7,"x_max":607,"o":"m 7 0 l 7 1586 l 350 1586 q 469 1570 424 1586 q 544 1524 514 1554 q 591 1447 575 1493 q 607 1329 607 1401 l 607 257 q 591 139 607 185 q 544 63 575 93 q 468 16 514 32 q 350 0 422 0 l 7 0 m 233 183 l 294 183 q 364 204 346 183 q 378 233 372 214 q 383 283 383 251 l 383 1314 q 378 1358 383 1342 q 364 1382 372 1374 q 338 1397 354 1392 q 294 1403 322 1403 l 233 1403 l 233 183 m 110 -194 l 110 -53 l 504 -53 l 504 -194 l 110 -194 z "},"ḏ":{"ha":531,"x_min":7,"x_max":524,"o":"m 186 -11 q 58 36 106 -11 q 20 100 33 61 q 7 203 7 139 l 7 929 q 20 1032 7 993 q 58 1096 33 1071 q 186 1143 106 1143 q 326 1082 278 1143 l 326 1586 l 524 1586 l 524 0 l 326 0 l 326 51 q 267 4 303 19 q 186 -11 231 -11 m 265 156 q 310 172 293 156 q 322 193 318 181 q 326 231 326 206 l 326 901 q 322 939 326 926 q 310 960 318 951 q 265 976 293 976 q 221 960 238 976 q 208 939 213 951 q 204 901 204 926 l 204 231 q 208 193 204 206 q 221 172 213 181 q 265 156 238 156 m 68 -208 l 68 -67 l 463 -67 l 463 -208 l 68 -208 z "},"Ḑ":{"ha":614,"x_min":7,"x_max":607,"o":"m 7 0 l 7 1586 l 350 1586 q 469 1570 424 1586 q 544 1524 514 1554 q 591 1447 575 1493 q 607 1329 607 1401 l 607 257 q 591 139 607 185 q 544 63 575 93 q 468 16 514 32 q 350 0 422 0 l 7 0 m 233 183 l 294 183 q 364 204 346 183 q 378 233 372 214 q 383 283 383 251 l 383 1314 q 378 1358 383 1342 q 364 1382 372 1374 q 338 1397 354 1392 q 294 1403 322 1403 l 233 1403 l 233 183 m 164 -214 l 189 -53 l 425 -53 l 340 -214 l 164 -214 z "},"ḑ":{"ha":531,"x_min":7,"x_max":524,"o":"m 186 -11 q 58 36 106 -11 q 20 100 33 61 q 7 203 7 139 l 7 929 q 20 1032 7 993 q 58 1096 33 1071 q 186 1143 106 1143 q 326 1082 278 1143 l 326 1586 l 524 1586 l 524 0 l 326 0 l 326 51 q 267 4 303 19 q 186 -11 231 -11 m 265 156 q 310 172 293 156 q 322 193 318 181 q 326 231 326 206 l 326 901 q 322 939 326 926 q 310 960 318 951 q 265 976 293 976 q 221 960 238 976 q 208 939 213 951 q 204 901 204 926 l 204 231 q 208 193 204 206 q 221 172 213 181 q 265 156 238 156 m 129 -228 l 154 -67 l 376 -67 l 292 -228 l 129 -228 z "},"Ḟ":{"ha":522,"x_min":7,"x_max":515,"o":"m 7 0 l 7 1586 l 515 1586 l 515 1403 l 232 1403 l 232 910 l 515 910 l 515 726 l 232 726 l 232 0 l 7 0 m 156 1639 l 156 1783 l 367 1783 l 367 1639 l 156 1639 z "},"ḟ":{"ha":394,"x_min":7,"x_max":388,"o":"m 149 1639 l 149 1778 l 346 1778 l 346 1639 l 149 1639 m 76 0 l 76 976 l 7 976 l 7 1132 l 76 1132 l 76 1442 q 85 1506 76 1481 q 113 1547 94 1531 q 163 1576 133 1567 q 238 1586 192 1586 l 388 1586 l 388 1425 l 311 1425 q 274 1388 274 1425 l 274 1132 l 388 1132 l 388 976 l 274 976 l 274 0 l 76 0 z "},"Ḡ":{"ha":614,"x_min":7,"x_max":607,"o":"m 217 -11 q 128 3 165 -11 q 63 43 90 17 q 22 110 36 69 q 7 217 7 151 l 7 1322 q 24 1441 7 1394 q 72 1518 42 1488 q 165 1573 108 1554 q 307 1592 221 1592 q 450 1573 393 1592 q 542 1518 507 1554 q 590 1441 574 1488 q 607 1322 607 1394 l 607 1025 l 382 1025 l 382 1346 q 376 1390 382 1374 q 363 1414 371 1406 q 307 1435 342 1435 q 251 1414 272 1435 q 238 1390 243 1406 q 232 1346 232 1374 l 232 249 q 238 205 232 221 q 251 181 243 189 q 275 165 261 171 q 307 160 289 160 q 363 181 342 160 q 376 205 371 189 q 382 249 382 221 l 382 699 l 296 699 l 296 871 l 607 871 l 607 0 l 382 0 l 382 56 q 308 5 351 21 q 217 -11 265 -11 m 110 1639 l 110 1781 l 504 1781 l 504 1639 l 110 1639 z "},"ḡ":{"ha":531,"x_min":7,"x_max":524,"o":"m 265 -233 q 142 -217 189 -233 q 64 -171 94 -201 q 22 -105 38 -144 q 7 -6 7 -65 l 7 0 l 204 0 l 204 -11 q 208 -49 204 -36 q 221 -69 213 -61 q 265 -86 238 -86 q 310 -69 293 -86 q 322 -49 318 -61 q 326 -11 326 -36 l 326 107 q 266 60 303 75 q 186 44 229 44 q 58 92 106 44 q 20 156 33 117 q 7 258 7 194 l 7 929 q 20 1032 7 993 q 58 1096 33 1071 q 186 1143 106 1143 q 326 1082 278 1143 l 326 1132 l 524 1132 l 524 8 q 509 -101 524 -60 q 467 -171 494 -143 q 389 -217 436 -201 q 265 -233 342 -233 m 265 211 q 310 228 293 211 q 322 249 318 236 q 326 286 326 261 l 326 901 q 322 939 326 926 q 310 960 318 951 q 265 976 293 976 q 221 960 238 976 q 208 939 213 951 q 204 901 204 926 l 204 286 q 208 249 204 261 q 221 228 213 236 q 265 211 238 211 m 68 1199 l 68 1340 l 463 1340 l 463 1199 l 68 1199 z "},"Ḣ":{"ha":606,"x_min":7,"x_max":599,"o":"m 7 0 l 7 1586 l 232 1586 l 232 910 l 374 910 l 374 1586 l 599 1586 l 599 0 l 374 0 l 374 726 l 232 726 l 232 0 l 7 0 m 197 1639 l 197 1783 l 408 1783 l 408 1639 l 197 1639 z "},"ḣ":{"ha":531,"x_min":0,"x_max":524,"o":"m 7 0 l 7 1586 l 204 1586 l 204 1082 q 266 1128 229 1113 q 344 1143 303 1143 q 472 1096 425 1143 q 510 1032 497 1071 q 524 929 524 993 l 524 0 l 326 0 l 326 901 q 322 939 326 926 q 310 960 318 951 q 265 976 293 976 q 221 960 238 976 q 208 939 213 951 q 204 901 204 926 l 204 0 l 7 0 m 0 1639 l 0 1783 l 211 1783 l 211 1639 l 0 1639 z "},"Ḥ":{"ha":606,"x_min":7,"x_max":599,"o":"m 7 0 l 7 1586 l 232 1586 l 232 910 l 374 910 l 374 1586 l 599 1586 l 599 0 l 374 0 l 374 726 l 232 726 l 232 0 l 7 0 m 197 -212 l 197 -51 l 408 -51 l 408 -212 l 197 -212 z "},"ḥ":{"ha":531,"x_min":7,"x_max":524,"o":"m 7 0 l 7 1586 l 204 1586 l 204 1082 q 266 1128 229 1113 q 344 1143 303 1143 q 472 1096 425 1143 q 510 1032 497 1071 q 524 929 524 993 l 524 0 l 326 0 l 326 901 q 322 939 326 926 q 310 960 318 951 q 265 976 293 976 q 221 960 238 976 q 208 939 213 951 q 204 901 204 926 l 204 0 l 7 0 m 167 -228 l 167 -67 l 364 -67 l 364 -228 l 167 -228 z "},"Ḫ":{"ha":606,"x_min":7,"x_max":599,"o":"m 7 0 l 7 1586 l 232 1586 l 232 910 l 374 910 l 374 1586 l 599 1586 l 599 0 l 374 0 l 374 726 l 232 726 l 232 0 l 7 0 m 303 -219 q 151 -176 206 -219 q 96 -53 97 -133 l 256 -53 q 303 -97 258 -97 q 350 -53 347 -97 l 510 -53 q 453 -177 508 -135 q 303 -219 397 -219 z "},"ḫ":{"ha":531,"x_min":7,"x_max":524,"o":"m 7 0 l 7 1586 l 204 1586 l 204 1082 q 266 1128 229 1113 q 344 1143 303 1143 q 472 1096 425 1143 q 510 1032 497 1071 q 524 929 524 993 l 524 0 l 326 0 l 326 901 q 322 939 326 926 q 310 960 318 951 q 265 976 293 976 q 221 960 238 976 q 208 939 213 951 q 204 901 204 926 l 204 0 l 7 0 m 265 -233 q 119 -190 172 -233 q 65 -67 67 -147 l 218 -67 q 265 -111 221 -111 q 313 -67 310 -111 l 465 -67 q 410 -191 464 -149 q 265 -233 357 -233 z "},"Ḷ":{"ha":522,"x_min":7,"x_max":515,"o":"m 7 0 l 7 1586 l 232 1586 l 232 183 l 515 183 l 515 0 l 7 0 m 156 -212 l 156 -51 l 367 -51 l 367 -212 l 156 -212 z "},"ḷ":{"ha":211,"x_min":7,"x_max":204,"o":"m 7 0 l 7 1586 l 204 1586 l 204 0 l 7 0 m 7 -228 l 7 -67 l 204 -67 l 204 -228 l 7 -228 z "},"Ḹ":{"ha":522,"x_min":-78,"x_max":515,"o":"m 7 0 l 7 1586 l 232 1586 l 232 183 l 515 183 l 515 0 l 7 0 m 156 -212 l 156 -51 l 367 -51 l 367 -212 l 156 -212 m -78 1639 l -78 1781 l 317 1781 l 317 1639 l -78 1639 z "},"ḹ":{"ha":211,"x_min":-92,"x_max":303,"o":"m 7 0 l 7 1586 l 204 1586 l 204 0 l 7 0 m 7 -228 l 7 -67 l 204 -67 l 204 -228 l 7 -228 m -92 1639 l -92 1781 l 303 1781 l 303 1639 l -92 1639 z "},"Ḻ":{"ha":522,"x_min":7,"x_max":515,"o":"m 7 0 l 7 1586 l 232 1586 l 232 183 l 515 183 l 515 0 l 7 0 m 64 -194 l 64 -53 l 458 -53 l 458 -194 l 64 -194 z "},"ḻ":{"ha":211,"x_min":-92,"x_max":303,"o":"m 7 0 l 7 1586 l 204 1586 l 204 0 l 7 0 m -92 -208 l -92 -67 l 303 -67 l 303 -208 l -92 -208 z "},"Ḿ":{"ha":928,"x_min":7,"x_max":921,"o":"m 7 0 l 7 1586 l 367 1586 l 463 728 l 558 1586 l 921 1586 l 921 0 l 696 0 l 696 1200 l 563 0 l 344 0 l 208 1200 l 208 0 l 7 0 m 375 1639 l 400 1778 l 636 1778 l 551 1639 l 375 1639 z "},"ḿ":{"ha":833,"x_min":7,"x_max":826,"o":"m 7 0 l 7 1132 l 204 1132 l 204 1085 q 340 1143 251 1143 q 486 1071 440 1143 q 651 1143 546 1143 q 778 1096 731 1143 q 814 1035 801 1072 q 826 939 826 999 l 826 0 l 629 0 l 629 913 q 613 963 629 949 q 572 976 596 976 q 532 963 546 976 q 520 944 525 956 q 515 913 515 932 l 515 0 l 318 0 l 318 913 q 301 963 318 949 q 261 976 285 976 q 221 963 235 976 q 209 944 214 956 q 204 913 204 932 l 204 0 l 7 0 m 335 1199 l 360 1360 l 582 1360 l 497 1199 l 335 1199 z "},"Ṁ":{"ha":928,"x_min":7,"x_max":921,"o":"m 7 0 l 7 1586 l 367 1586 l 463 728 l 558 1586 l 921 1586 l 921 0 l 696 0 l 696 1200 l 563 0 l 344 0 l 208 1200 l 208 0 l 7 0 m 358 1639 l 358 1783 l 569 1783 l 569 1639 l 358 1639 z "},"ṁ":{"ha":833,"x_min":7,"x_max":826,"o":"m 7 0 l 7 1132 l 204 1132 l 204 1085 q 340 1143 251 1143 q 486 1071 440 1143 q 651 1143 546 1143 q 778 1096 731 1143 q 814 1035 801 1072 q 826 939 826 999 l 826 0 l 629 0 l 629 913 q 613 963 629 949 q 572 976 596 976 q 532 963 546 976 q 520 944 525 956 q 515 913 515 932 l 515 0 l 318 0 l 318 913 q 301 963 318 949 q 261 976 285 976 q 221 963 235 976 q 209 944 214 956 q 204 913 204 932 l 204 0 l 7 0 m 318 1199 l 318 1360 l 515 1360 l 515 1199 l 318 1199 z "},"Ṃ":{"ha":928,"x_min":7,"x_max":921,"o":"m 7 0 l 7 1586 l 367 1586 l 463 728 l 558 1586 l 921 1586 l 921 0 l 696 0 l 696 1200 l 563 0 l 344 0 l 208 1200 l 208 0 l 7 0 m 349 -212 l 349 -51 l 560 -51 l 560 -212 l 349 -212 z "},"ṃ":{"ha":833,"x_min":7,"x_max":826,"o":"m 7 0 l 7 1132 l 204 1132 l 204 1085 q 340 1143 251 1143 q 486 1071 440 1143 q 651 1143 546 1143 q 778 1096 731 1143 q 814 1035 801 1072 q 826 939 826 999 l 826 0 l 629 0 l 629 913 q 613 963 629 949 q 572 976 596 976 q 532 963 546 976 q 520 944 525 956 q 515 913 515 932 l 515 0 l 318 0 l 318 913 q 301 963 318 949 q 261 976 285 976 q 221 963 235 976 q 209 944 214 956 q 204 913 204 932 l 204 0 l 7 0 m 318 -228 l 318 -67 l 515 -67 l 515 -228 l 318 -228 z "},"Ṅ":{"ha":639,"x_min":7,"x_max":632,"o":"m 7 0 l 7 1586 l 285 1586 l 435 781 l 435 1586 l 632 1586 l 632 0 l 382 0 l 204 915 l 204 0 l 7 0 m 214 1639 l 214 1783 l 425 1783 l 425 1639 l 214 1639 z "},"ṅ":{"ha":531,"x_min":7,"x_max":524,"o":"m 7 0 l 7 1132 l 204 1132 l 204 1082 q 266 1128 229 1114 q 344 1143 303 1143 q 472 1096 425 1143 q 510 1033 497 1071 q 524 929 524 994 l 524 0 l 326 0 l 326 901 q 322 939 326 926 q 310 960 318 951 q 265 976 293 976 q 221 960 238 976 q 208 939 213 951 q 204 901 204 926 l 204 0 l 7 0 m 167 1199 l 167 1360 l 364 1360 l 364 1199 l 167 1199 z "},"Ṇ":{"ha":639,"x_min":7,"x_max":632,"o":"m 7 0 l 7 1586 l 285 1586 l 435 781 l 435 1586 l 632 1586 l 632 0 l 382 0 l 204 915 l 204 0 l 7 0 m 214 -212 l 214 -51 l 425 -51 l 425 -212 l 214 -212 z "},"ṇ":{"ha":531,"x_min":7,"x_max":524,"o":"m 7 0 l 7 1132 l 204 1132 l 204 1082 q 266 1128 229 1114 q 344 1143 303 1143 q 472 1096 425 1143 q 510 1033 497 1071 q 524 929 524 994 l 524 0 l 326 0 l 326 901 q 322 939 326 926 q 310 960 318 951 q 265 976 293 976 q 221 960 238 976 q 208 939 213 951 q 204 901 204 926 l 204 0 l 7 0 m 167 -228 l 167 -67 l 364 -67 l 364 -228 l 167 -228 z "},"Ṉ":{"ha":639,"x_min":7,"x_max":632,"o":"m 7 0 l 7 1586 l 285 1586 l 435 781 l 435 1586 l 632 1586 l 632 0 l 382 0 l 204 915 l 204 0 l 7 0 m 122 -194 l 122 -53 l 517 -53 l 517 -194 l 122 -194 z "},"ṉ":{"ha":531,"x_min":7,"x_max":524,"o":"m 7 0 l 7 1132 l 204 1132 l 204 1082 q 266 1128 229 1114 q 344 1143 303 1143 q 472 1096 425 1143 q 510 1033 497 1071 q 524 929 524 994 l 524 0 l 326 0 l 326 901 q 322 939 326 926 q 310 960 318 951 q 265 976 293 976 q 221 960 238 976 q 208 939 213 951 q 204 901 204 926 l 204 0 l 7 0 m 68 -208 l 68 -67 l 463 -67 l 463 -208 l 68 -208 z "},"Ṗ":{"ha":614,"x_min":7,"x_max":607,"o":"m 7 0 l 7 1586 l 376 1586 q 485 1572 444 1586 q 553 1531 526 1558 q 593 1465 579 1504 q 607 1358 607 1425 l 607 896 q 593 790 607 829 q 553 724 579 750 q 485 683 526 697 q 376 668 444 668 l 232 668 l 232 0 l 7 0 m 232 851 l 293 851 q 363 872 344 851 q 376 901 371 882 q 382 951 382 919 l 382 1314 q 376 1358 382 1342 q 363 1382 371 1374 q 337 1397 353 1392 q 293 1403 321 1403 l 232 1403 l 232 851 m 201 1639 l 201 1783 l 413 1783 l 413 1639 l 201 1639 z "},"ṗ":{"ha":531,"x_min":7,"x_max":524,"o":"m 7 -228 l 7 1132 l 204 1132 l 204 1081 q 264 1128 228 1113 q 344 1143 300 1143 q 472 1096 425 1143 q 510 1032 497 1071 q 524 929 524 993 l 524 203 q 510 100 524 139 q 472 36 497 61 q 344 -11 425 -11 q 204 50 253 -11 l 204 -228 l 7 -228 m 265 156 q 310 172 293 156 q 322 193 318 181 q 326 231 326 206 l 326 901 q 322 939 326 926 q 310 960 318 951 q 265 976 293 976 q 221 960 238 976 q 208 939 213 951 q 204 901 204 926 l 204 231 q 208 193 204 206 q 221 172 213 181 q 265 156 238 156 m 167 1199 l 167 1360 l 364 1360 l 364 1199 l 167 1199 z "},"Ṛ":{"ha":614,"x_min":7,"x_max":607,"o":"m 7 0 l 7 1586 l 376 1586 q 485 1572 444 1586 q 553 1531 526 1558 q 593 1465 579 1504 q 607 1358 607 1425 l 607 1033 q 593 927 607 967 q 553 861 579 888 q 523 838 539 847 q 486 821 507 828 q 582 746 550 800 q 601 696 594 725 q 607 617 607 667 l 607 0 l 382 0 l 382 638 q 376 681 382 665 q 363 706 371 697 q 337 721 353 715 q 293 726 321 726 l 232 726 l 232 0 l 7 0 m 232 910 l 293 910 q 363 931 344 910 q 376 959 371 940 q 382 1010 382 978 l 382 1314 q 376 1358 382 1342 q 363 1382 371 1374 q 337 1397 353 1392 q 293 1403 321 1403 l 232 1403 l 232 910 m 201 -212 l 201 -51 l 413 -51 l 413 -212 l 201 -212 z "},"ṛ":{"ha":489,"x_min":7,"x_max":482,"o":"m 7 0 l 7 1132 l 204 1132 l 204 1089 q 333 1143 250 1143 q 440 1103 400 1143 q 471 1051 460 1083 q 482 964 482 1018 l 482 725 l 304 725 l 304 919 q 301 945 304 936 q 292 961 297 954 q 254 976 279 976 q 217 961 229 976 q 208 945 211 954 q 204 919 204 936 l 204 0 l 7 0 m 7 -228 l 7 -67 l 204 -67 l 204 -228 l 7 -228 z "},"Ṝ":{"ha":614,"x_min":7,"x_max":607,"o":"m 7 0 l 7 1586 l 376 1586 q 485 1572 444 1586 q 553 1531 526 1558 q 593 1465 579 1504 q 607 1358 607 1425 l 607 1033 q 593 927 607 967 q 553 861 579 888 q 523 838 539 847 q 486 821 507 828 q 582 746 550 800 q 601 696 594 725 q 607 617 607 667 l 607 0 l 382 0 l 382 638 q 376 681 382 665 q 363 706 371 697 q 337 721 353 715 q 293 726 321 726 l 232 726 l 232 0 l 7 0 m 232 910 l 293 910 q 363 931 344 910 q 376 959 371 940 q 382 1010 382 978 l 382 1314 q 376 1358 382 1342 q 363 1382 371 1374 q 337 1397 353 1392 q 293 1403 321 1403 l 232 1403 l 232 910 m 201 -212 l 201 -51 l 413 -51 l 413 -212 l 201 -212 m 110 1639 l 110 1781 l 504 1781 l 504 1639 l 110 1639 z "},"ṝ":{"ha":489,"x_min":7,"x_max":482,"o":"m 7 0 l 7 1132 l 204 1132 l 204 1089 q 333 1143 250 1143 q 440 1103 400 1143 q 471 1051 460 1083 q 482 964 482 1018 l 482 725 l 304 725 l 304 919 q 301 945 304 936 q 292 961 297 954 q 254 976 279 976 q 217 961 229 976 q 208 945 211 954 q 204 919 204 936 l 204 0 l 7 0 m 7 -228 l 7 -67 l 204 -67 l 204 -228 l 7 -228 m 47 1199 l 47 1340 l 442 1340 l 442 1199 l 47 1199 z "},"Ṟ":{"ha":614,"x_min":7,"x_max":607,"o":"m 7 0 l 7 1586 l 376 1586 q 485 1572 444 1586 q 553 1531 526 1558 q 593 1465 579 1504 q 607 1358 607 1425 l 607 1033 q 593 927 607 967 q 553 861 579 888 q 523 838 539 847 q 486 821 507 828 q 582 746 550 800 q 601 696 594 725 q 607 617 607 667 l 607 0 l 382 0 l 382 638 q 376 681 382 665 q 363 706 371 697 q 337 721 353 715 q 293 726 321 726 l 232 726 l 232 0 l 7 0 m 232 910 l 293 910 q 363 931 344 910 q 376 959 371 940 q 382 1010 382 978 l 382 1314 q 376 1358 382 1342 q 363 1382 371 1374 q 337 1397 353 1392 q 293 1403 321 1403 l 232 1403 l 232 910 m 110 -194 l 110 -53 l 504 -53 l 504 -194 l 110 -194 z "},"ṟ":{"ha":489,"x_min":-92,"x_max":482,"o":"m 7 0 l 7 1132 l 204 1132 l 204 1089 q 333 1143 250 1143 q 440 1103 400 1143 q 471 1051 460 1083 q 482 964 482 1018 l 482 725 l 304 725 l 304 919 q 301 945 304 936 q 292 961 297 954 q 254 976 279 976 q 217 961 229 976 q 208 945 211 954 q 204 919 204 936 l 204 0 l 7 0 m -92 -208 l -92 -67 l 303 -67 l 303 -208 l -92 -208 z "},"Ṡ":{"ha":614,"x_min":7,"x_max":607,"o":"m 307 -6 q 164 13 222 -6 q 69 67 106 32 q 23 146 39 99 q 7 253 7 193 l 7 594 l 232 594 l 232 247 q 251 184 232 204 q 307 164 269 164 q 361 184 343 164 q 379 247 379 204 q 352 383 379 308 q 289 543 325 458 l 92 1006 q 48 1119 65 1068 q 22 1217 31 1169 q 13 1318 13 1265 q 31 1431 13 1383 q 83 1517 49 1479 q 173 1572 117 1553 q 308 1592 229 1592 q 449 1574 392 1592 q 539 1522 506 1556 q 586 1444 571 1492 q 601 1333 601 1396 l 601 1025 l 376 1025 l 376 1339 q 360 1402 376 1382 q 308 1422 344 1422 q 258 1402 275 1422 q 240 1339 240 1382 q 260 1229 240 1296 q 315 1082 281 1163 l 500 649 q 558 505 535 568 q 594 383 582 442 q 607 261 607 325 q 587 145 607 193 q 529 64 567 97 q 434 13 490 31 q 307 -6 378 -6 m 196 1639 l 196 1783 l 407 1783 l 407 1639 l 196 1639 z "},"ṡ":{"ha":531,"x_min":7,"x_max":524,"o":"m 265 -6 q 67 54 126 -6 q 7 226 7 114 l 7 429 l 204 429 l 204 213 q 219 160 204 178 q 265 142 235 142 q 313 161 299 142 q 326 211 326 181 q 306 292 326 242 q 243 410 285 342 l 86 671 q 28 787 47 738 q 10 903 10 836 q 42 1039 10 988 q 131 1114 74 1090 q 265 1138 189 1138 q 399 1114 342 1138 q 489 1038 457 1090 q 521 897 521 985 l 521 725 l 324 725 l 324 928 q 308 974 324 958 q 265 990 293 990 q 222 972 238 990 q 207 918 207 953 q 225 844 207 878 q 275 754 243 810 l 421 507 q 474 413 451 457 q 510 324 497 368 q 524 226 524 279 q 498 100 524 151 q 415 22 472 49 q 265 -6 358 -6 m 164 1199 l 164 1360 l 361 1360 l 361 1199 l 164 1199 z "},"Ṣ":{"ha":614,"x_min":7,"x_max":607,"o":"m 307 -6 q 164 13 222 -6 q 69 67 106 32 q 23 146 39 99 q 7 253 7 193 l 7 594 l 232 594 l 232 247 q 251 184 232 204 q 307 164 269 164 q 361 184 343 164 q 379 247 379 204 q 352 383 379 308 q 289 543 325 458 l 92 1006 q 48 1119 65 1068 q 22 1217 31 1169 q 13 1318 13 1265 q 31 1431 13 1383 q 83 1517 49 1479 q 173 1572 117 1553 q 308 1592 229 1592 q 449 1574 392 1592 q 539 1522 506 1556 q 586 1444 571 1492 q 601 1333 601 1396 l 601 1025 l 376 1025 l 376 1339 q 360 1402 376 1382 q 308 1422 344 1422 q 258 1402 275 1422 q 240 1339 240 1382 q 260 1229 240 1296 q 315 1082 281 1163 l 500 649 q 558 505 535 568 q 594 383 582 442 q 607 261 607 325 q 587 145 607 193 q 529 64 567 97 q 434 13 490 31 q 307 -6 378 -6 m 196 -212 l 196 -51 l 407 -51 l 407 -212 l 196 -212 z "},"ṣ":{"ha":531,"x_min":7,"x_max":524,"o":"m 265 -6 q 67 54 126 -6 q 7 226 7 114 l 7 429 l 204 429 l 204 213 q 219 160 204 178 q 265 142 235 142 q 313 161 299 142 q 326 211 326 181 q 306 292 326 242 q 243 410 285 342 l 86 671 q 28 787 47 738 q 10 903 10 836 q 42 1039 10 988 q 131 1114 74 1090 q 265 1138 189 1138 q 399 1114 342 1138 q 489 1038 457 1090 q 521 897 521 985 l 521 725 l 324 725 l 324 928 q 308 974 324 958 q 265 990 293 990 q 222 972 238 990 q 207 918 207 953 q 225 844 207 878 q 275 754 243 810 l 421 507 q 474 413 451 457 q 510 324 497 368 q 524 226 524 279 q 498 100 524 151 q 415 22 472 49 q 265 -6 358 -6 m 164 -228 l 164 -67 l 361 -67 l 361 -228 l 164 -228 z "},"Ṫ":{"ha":614,"x_min":7,"x_max":607,"o":"m 194 0 l 194 1403 l 7 1403 l 7 1586 l 607 1586 l 607 1403 l 419 1403 l 419 0 l 194 0 m 201 1639 l 201 1783 l 413 1783 l 413 1639 l 201 1639 z "},"ṫ":{"ha":372,"x_min":7,"x_max":365,"o":"m 238 0 q 162 10 192 0 q 113 39 132 19 q 85 81 94 56 q 76 144 76 106 l 76 976 l 7 976 l 7 1132 l 76 1132 l 76 1586 l 274 1586 l 274 1132 l 365 1132 l 365 976 l 274 976 l 274 199 q 311 161 274 161 l 365 161 l 365 0 l 238 0 m 69 1639 l 69 1783 l 281 1783 l 281 1639 l 69 1639 z "},"Ṭ":{"ha":614,"x_min":7,"x_max":607,"o":"m 194 0 l 194 1403 l 7 1403 l 7 1586 l 607 1586 l 607 1403 l 419 1403 l 419 0 l 194 0 m 201 -212 l 201 -51 l 413 -51 l 413 -212 l 201 -212 z "},"ṭ":{"ha":372,"x_min":7,"x_max":365,"o":"m 238 0 q 162 10 192 0 q 113 39 132 19 q 85 81 94 56 q 76 144 76 106 l 76 976 l 7 976 l 7 1132 l 76 1132 l 76 1586 l 274 1586 l 274 1132 l 365 1132 l 365 976 l 274 976 l 274 199 q 311 161 274 161 l 365 161 l 365 0 l 238 0 m 139 -228 l 139 -67 l 336 -67 l 336 -228 l 139 -228 z "},"Ṯ":{"ha":614,"x_min":7,"x_max":607,"o":"m 194 0 l 194 1403 l 7 1403 l 7 1586 l 607 1586 l 607 1403 l 419 1403 l 419 0 l 194 0 m 110 -194 l 110 -53 l 504 -53 l 504 -194 l 110 -194 z "},"ṯ":{"ha":372,"x_min":7,"x_max":435,"o":"m 238 0 q 162 10 192 0 q 113 39 132 19 q 85 81 94 56 q 76 144 76 106 l 76 976 l 7 976 l 7 1132 l 76 1132 l 76 1586 l 274 1586 l 274 1132 l 365 1132 l 365 976 l 274 976 l 274 199 q 311 161 274 161 l 365 161 l 365 0 l 238 0 m 40 -208 l 40 -67 l 435 -67 l 435 -208 l 40 -208 z "},"Ṽ":{"ha":633,"x_min":0,"x_max":633,"o":"m 181 0 l 0 1586 l 224 1586 l 326 574 l 429 1586 l 633 1586 l 453 0 l 181 0 m 371 1629 q 327 1636 344 1629 q 296 1650 310 1643 q 277 1661 286 1657 q 260 1665 268 1665 q 238 1656 246 1665 q 231 1633 231 1647 l 125 1633 l 125 1679 q 162 1773 125 1738 q 263 1808 199 1808 q 302 1803 286 1808 q 331 1790 318 1797 q 354 1777 344 1783 q 374 1771 364 1771 q 403 1803 403 1771 l 508 1803 l 508 1758 q 472 1665 508 1700 q 371 1629 436 1629 z "},"ṽ":{"ha":553,"x_min":0,"x_max":553,"o":"m 133 0 l 0 1132 l 201 1132 l 285 326 l 368 1132 l 553 1132 l 419 0 l 133 0 m 331 1192 q 287 1197 304 1192 q 256 1213 269 1203 q 219 1228 233 1228 q 198 1219 206 1228 q 190 1196 190 1210 l 85 1196 l 85 1236 q 122 1330 85 1294 q 222 1365 158 1365 q 262 1360 246 1365 q 290 1347 278 1354 q 314 1334 304 1340 q 333 1328 324 1328 q 363 1360 363 1328 l 363 1361 l 468 1361 l 468 1321 q 432 1227 468 1263 q 331 1192 396 1192 z "},"Ẁ":{"ha":1033,"x_min":0,"x_max":1033,"o":"m 154 0 l 0 1586 l 224 1586 l 301 557 l 379 1586 l 674 1586 l 751 557 l 829 1586 l 1033 1586 l 879 0 l 594 0 l 517 1011 l 439 0 l 154 0 m 428 1639 l 343 1778 l 579 1778 l 604 1639 l 428 1639 z "},"ẁ":{"ha":908,"x_min":0,"x_max":908,"o":"m 131 0 l 0 1132 l 197 1132 l 272 389 l 346 1132 l 582 1132 l 656 389 l 731 1132 l 908 1132 l 778 0 l 528 0 l 454 738 l 381 0 l 131 0 m 372 1199 l 288 1360 l 510 1360 l 535 1199 l 372 1199 z "},"Ẃ":{"ha":1033,"x_min":0,"x_max":1033,"o":"m 154 0 l 0 1586 l 224 1586 l 301 557 l 379 1586 l 674 1586 l 751 557 l 829 1586 l 1033 1586 l 879 0 l 594 0 l 517 1011 l 439 0 l 154 0 m 428 1639 l 453 1778 l 689 1778 l 604 1639 l 428 1639 z "},"ẃ":{"ha":908,"x_min":0,"x_max":908,"o":"m 131 0 l 0 1132 l 197 1132 l 272 389 l 346 1132 l 582 1132 l 656 389 l 731 1132 l 908 1132 l 778 0 l 528 0 l 454 738 l 381 0 l 131 0 m 372 1199 l 397 1360 l 619 1360 l 535 1199 l 372 1199 z "},"Ẅ":{"ha":1033,"x_min":0,"x_max":1033,"o":"m 154 0 l 0 1586 l 224 1586 l 301 557 l 379 1586 l 674 1586 l 751 557 l 829 1586 l 1033 1586 l 879 0 l 594 0 l 517 1011 l 439 0 l 154 0 m 293 1639 l 293 1783 l 483 1783 l 483 1639 l 293 1639 m 550 1639 l 550 1783 l 740 1783 l 740 1639 l 550 1639 z "},"ẅ":{"ha":908,"x_min":0,"x_max":908,"o":"m 131 0 l 0 1132 l 197 1132 l 272 389 l 346 1132 l 582 1132 l 656 389 l 731 1132 l 908 1132 l 778 0 l 528 0 l 454 738 l 381 0 l 131 0 m 238 1199 l 238 1360 l 421 1360 l 421 1199 l 238 1199 m 488 1199 l 488 1360 l 671 1360 l 671 1199 l 488 1199 z "},"Ẋ":{"ha":725,"x_min":0,"x_max":725,"o":"m 0 0 l 226 799 l 4 1586 l 239 1586 l 363 1126 l 486 1586 l 707 1586 l 492 815 l 725 0 l 490 0 l 356 496 l 221 0 l 0 0 m 257 1639 l 257 1783 l 468 1783 l 468 1639 l 257 1639 z "},"ẋ":{"ha":617,"x_min":0,"x_max":617,"o":"m 0 0 l 200 571 l 4 1132 l 203 1132 l 308 803 l 415 1132 l 614 1132 l 418 571 l 617 0 l 418 0 l 308 339 l 199 0 l 0 0 m 210 1199 l 210 1360 l 407 1360 l 407 1199 l 210 1199 z "},"Ẓ":{"ha":550,"x_min":7,"x_max":543,"o":"m 7 0 l 7 181 l 308 1400 l 13 1400 l 13 1586 l 528 1586 l 528 1386 l 233 186 l 543 186 l 543 0 l 7 0 m 169 -212 l 169 -51 l 381 -51 l 381 -212 l 169 -212 z "},"ẓ":{"ha":468,"x_min":7,"x_max":461,"o":"m 7 0 l 7 161 l 242 971 l 14 971 l 14 1132 l 444 1132 l 444 971 l 210 161 l 461 161 l 461 0 l 7 0 m 136 -228 l 136 -67 l 333 -67 l 333 -228 l 136 -228 z "},"ẗ":{"ha":372,"x_min":-49,"x_max":399,"o":"m 238 0 q 162 10 192 0 q 113 39 132 19 q 85 81 94 56 q 76 144 76 106 l 76 976 l 7 976 l 7 1132 l 76 1132 l 76 1586 l 274 1586 l 274 1132 l 365 1132 l 365 976 l 274 976 l 274 199 q 311 161 274 161 l 365 161 l 365 0 l 238 0 m -49 1639 l -49 1783 l 142 1783 l 142 1639 l -49 1639 m 208 1639 l 208 1783 l 399 1783 l 399 1639 l 208 1639 z "},"ẞ":{"ha":619,"x_min":7,"x_max":613,"o":"m 7 0 l 7 1586 l 592 1586 l 592 1411 l 460 979 q 517 960 493 972 q 558 929 540 949 q 599 863 585 903 q 613 757 613 824 l 613 269 q 596 151 613 197 q 547 74 579 106 q 454 19 513 39 q 299 0 396 0 l 257 0 l 257 183 l 299 183 q 342 189 326 183 q 368 204 358 194 q 382 228 376 213 q 388 272 388 244 l 388 733 q 381 780 388 763 q 361 807 374 797 q 339 818 353 814 q 299 822 325 822 l 257 822 l 257 982 l 379 1403 l 232 1403 l 232 0 l 7 0 z "},"Ạ":{"ha":647,"x_min":0,"x_max":647,"o":"m 0 0 l 151 1586 l 497 1586 l 647 0 l 422 0 l 403 253 l 232 253 l 213 0 l 0 0 m 247 436 l 388 436 l 317 1329 l 247 436 m 218 -212 l 218 -51 l 429 -51 l 429 -212 l 218 -212 z "},"ạ":{"ha":531,"x_min":7,"x_max":524,"o":"m 185 -11 q 53 41 100 -11 q 7 190 7 93 l 7 421 q 22 509 7 472 q 71 576 38 546 l 264 756 q 304 804 290 781 q 324 853 318 828 q 329 907 329 878 q 315 971 329 951 q 269 990 301 990 q 224 972 239 990 q 210 918 210 954 l 210 725 l 15 725 l 15 899 q 80 1083 15 1028 q 269 1138 144 1138 q 463 1080 401 1138 q 524 899 524 1022 l 524 0 l 326 0 l 326 50 q 185 -11 278 -11 m 265 142 q 326 208 326 142 l 326 579 q 318 569 322 574 q 310 561 314 565 l 231 483 q 211 453 218 471 q 204 414 204 436 l 204 208 q 265 142 204 142 m 167 -228 l 167 -67 l 364 -67 l 364 -228 l 167 -228 z "},"Ẹ":{"ha":522,"x_min":7,"x_max":515,"o":"m 7 0 l 7 1586 l 515 1586 l 515 1403 l 232 1403 l 232 910 l 515 910 l 515 726 l 232 726 l 232 183 l 515 183 l 515 0 l 7 0 m 156 -212 l 156 -51 l 367 -51 l 367 -212 l 156 -212 z "},"ẹ":{"ha":531,"x_min":7,"x_max":524,"o":"m 265 -6 q 142 10 189 -6 q 64 57 94 26 q 22 126 38 85 q 7 236 7 168 l 7 896 q 22 1006 7 964 q 64 1075 38 1049 q 142 1122 94 1106 q 265 1138 189 1138 q 389 1122 342 1138 q 467 1075 436 1106 q 509 1006 494 1049 q 524 896 524 964 l 524 497 l 204 497 l 204 217 q 208 179 204 192 q 221 158 213 167 q 265 142 238 142 q 310 158 293 142 q 322 179 318 167 q 326 217 326 192 l 326 429 l 524 429 l 524 236 q 509 126 524 168 q 467 57 494 85 q 389 10 436 26 q 265 -6 342 -6 m 204 647 l 326 647 l 326 915 q 322 953 326 940 q 310 974 318 965 q 265 990 293 990 q 221 974 238 990 q 208 953 213 965 q 204 915 204 940 l 204 647 m 167 -228 l 167 -67 l 364 -67 l 364 -228 l 167 -228 z "},"Ẽ":{"ha":522,"x_min":7,"x_max":515,"o":"m 7 0 l 7 1586 l 515 1586 l 515 1403 l 232 1403 l 232 910 l 515 910 l 515 726 l 232 726 l 232 183 l 515 183 l 515 0 l 7 0 m 315 1629 q 272 1636 289 1629 q 240 1650 254 1643 q 222 1661 231 1657 q 204 1665 213 1665 q 183 1656 190 1665 q 175 1633 175 1647 l 69 1633 l 69 1679 q 106 1773 69 1738 q 207 1808 143 1808 q 247 1803 231 1808 q 275 1790 263 1797 q 299 1777 289 1783 q 318 1771 308 1771 q 347 1803 347 1771 l 453 1803 l 453 1758 q 417 1665 453 1700 q 315 1629 381 1629 z "}}}
